{
.appVersion = "895";
copyright = "Nunito Font, Copyright (c) 2014, Vernon Adams (vern@newtypography.co.uk)";
customParameters = (
{
name = license;
value = "This Font Software is licensed under the SIL Open Font License, Version 1.1. This license is available with a FAQ at: http://scripts.sil.org/OFL";
},
{
name = licenseURL;
value = "http://scripts.sil.org/OFL";
},
{
name = openTypeNameVersion;
value = "Version 2.0";
},
{
name = openTypeOS2FamilyClass;
value = (
0,
0
);
},
{
name = vendorID;
value = NeWT;
},
{
name = trademark;
value = "Nunito is a trademark of Vernon Adams and may be registered in certain jurisdictions.";
},
{
name = fsType;
value = (
);
}
);
date = "2016-08-02 22:44:42 +0000";
designer = "Vernon Adams";
designerURL = newtypography.co.uk;
familyName = Nunito;
featurePrefixes = (
{

glyphs = (
{
glyphname = A;
lastChange = "2016-08-02 16:24:46 +0000";
layers = (
{
anchors = (
{
name = bottom;
position = "{693, 0}";
},
{
name = ogonek;
position = "{1266, 19}";
},
{
name = top;
position = "{689, 1456}";
}
);
layerId = "9E718F8A-2CEA-4931-B05D-987794BD97DA";
paths = (
{
closed = 1;
nodes = (
"322 402 LINE",
"1056 402 LINE",
"1201 41 LINE SMOOTH",
"1214 10 OFFCURVE",
"1238 -3 OFFCURVE",
"1261 -3 CURVE SMOOTH",
"1291 -3 OFFCURVE",
"1321 19 OFFCURVE",
"1321 54 CURVE SMOOTH",
"1321 63 OFFCURVE",
"1319 74 OFFCURVE",
"1314 85 CURVE",
"818 1300 LINE SMOOTH",
"777 1402 OFFCURVE",
"747 1422 OFFCURVE",
"689 1422 CURVE SMOOTH",
"632 1422 OFFCURVE",
"601 1402 OFFCURVE",
"561 1300 CURVE SMOOTH",
"65 85 LINE",
"60 74 OFFCURVE",
"58 63 OFFCURVE",
"58 54 CURVE SMOOTH",
"58 19 OFFCURVE",
"88 -3 OFFCURVE",
"118 -3 CURVE SMOOTH",
"141 -3 OFFCURVE",
"166 10 OFFCURVE",
"178 41 CURVE SMOOTH"
);
},
{
closed = 1;
nodes = (
"1019 496 LINE",
"360 496 LINE",
"689 1318 LINE"
);
}
);
width = 1385;
},
{
anchors = (
{
name = bottom;
position = "{703, 0}";
},
{
name = ogonek;
position = "{1251, 4}";
},
{
name = top;
position = "{701, 1442}";
}
);
layerId = "5FCC6278-3A1D-4B2B-A133-84AE53360430";
paths = (
{
closed = 1;
nodes = (
"345 384 LINE",
"1057 384 LINE",
"1189 50 LINE SMOOTH",
"1204 11 OFFCURVE",
"1235 -5 OFFCURVE",
"1265 -5 CURVE SMOOTH",
"1305 -5 OFFCURVE",
"1343 25 OFFCURVE",
"1343 68 CURVE SMOOTH",
"1343 78 OFFCURVE",
"1341 89 OFFCURVE",
"1336 101 CURVE SMOOTH",
"850 1294 LINE SMOOTH",
"806 1405 OFFCURVE",
"764 1425 OFFCURVE",
"701 1425 CURVE SMOOTH",
"637 1425 OFFCURVE",
"596 1405 OFFCURVE",
"552 1294 CURVE SMOOTH",
"66 101 LINE SMOOTH",
"61 89 OFFCURVE",
"59 78 OFFCURVE",
"59 68 CURVE SMOOTH",
"59 25 OFFCURVE",
"97 -5 OFFCURVE",
"137 -5 CURVE SMOOTH",
"167 -5 OFFCURVE",
"198 11 OFFCURVE",
"213 50 CURVE SMOOTH"
);
},
{
closed = 1;
nodes = (
"1010 502 LINE",
"392 502 LINE",
"701 1279 LINE"
);
}
);
width = 1405;
},
{
anchors = (
{
name = bottom;
position = "{714, 0}";
},
{
name = ogonek;
position = "{1266, 19}";
},
{
name = top;
position = "{714, 1450}";
}
);
layerId = "334510DF-EE69-4F45-9EE4-32E3392006F4";
paths = (
{
closed = 1;
nodes = (
"370 364 LINE",
"1058 364 LINE",
"1176 60 LINE SMOOTH",
"1194 13 OFFCURVE",
"1231 -6 OFFCURVE",
"1268 -6 CURVE SMOOTH",
"1318 -6 OFFCURVE",
"1369 29 OFFCURVE",
"1369 82 CURVE SMOOTH",
"1369 93 OFFCURVE",
"1366 106 OFFCURVE",
"1361 119 CURVE SMOOTH",
"886 1298 LINE SMOOTH",
"837 1420 OFFCURVE",
"784 1438 OFFCURVE",
"714 1438 CURVE SMOOTH",
"644 1438 OFFCURVE",
"591 1420 OFFCURVE",
"542 1298 CURVE SMOOTH",
"67 119 LINE SMOOTH",
"62 106 OFFCURVE",
"59 94 OFFCURVE",
"59 82 CURVE SMOOTH",
"59 30 OFFCURVE",
"109 -6 OFFCURVE",
"159 -6 CURVE SMOOTH",
"196 -6 OFFCURVE",
"234 13 OFFCURVE",
"252 60 CURVE SMOOTH"
);
},
{
closed = 1;
nodes = (
"1001 509 LINE",
"427 509 LINE",
"714 1248 LINE"
);
}
);
width = 1428;
},
{
anchors = (
{
name = bottom;
position = "{721, 0}";
},
{
name = ogonek;
position = "{1266, 19}";
},
{
name = top;
position = "{722, 1444}";
}
);
layerId = "F812A762-7E77-4DA4-9A10-AD66CDB59C76";
paths = (
{
closed = 1;
nodes = (
"384.918 351 LINE",
"1058.33 351 LINE",
"1168 66 LINE SMOOTH",
"1188.01 14.271 OFFCURVE",
"1229.84 -7.234 OFFCURVE",
"1271.4 -7.234 CURVE SMOOTH",
"1327.97 -7.234 OFFCURVE",
"1384.05 32.581 OFFCURVE",
"1384.05 90.24 CURVE SMOOTH",
"1384.05 102.431 OFFCURVE",
"1381.54 115.421 OFFCURVE",
"1376 129 CURVE SMOOTH",
"907 1298 LINE SMOOTH",
"856 1425 OFFCURVE",
"796 1444 OFFCURVE",
"722 1444 CURVE SMOOTH",
"648 1444 OFFCURVE",
"587 1425 OFFCURVE",
"536 1298 CURVE SMOOTH",
"67 129 LINE SMOOTH",
"61.661 115.651 OFFCURVE",
"59.241 102.873 OFFCURVE",
"59.241 90.862 CURVE SMOOTH",
"59.241 32.868 OFFCURVE",
"115.663 -7.234 OFFCURVE",
"172.3 -7.234 CURVE SMOOTH",
"213.775 -7.234 OFFCURVE",
"255.366 14.271 OFFCURVE",
"275 66 CURVE SMOOTH"
);
},
{
closed = 1;
nodes = (
"995.988 513 LINE",
"447.398 513 LINE",
"722 1225 LINE"
);
}
);
width = 1441;
},
{
anchors = (
{
name = bottom;
position = "{727, 0}";
},
{
name = ogonek;
position = "{1266, 19}";
},
{
name = top;
position = "{726, 1436}";
}
);
layerId = "04B13600-F055-45EE-B953-7859ECDADD08";
paths = (
{
closed = 1;
nodes = (
"398.004 341 LINE",
"1058.76 341 LINE",
"1162 71 LINE SMOOTH",
"1183.12 15.194 OFFCURVE",
"1228.26 -7.91 OFFCURVE",
"1273.41 -7.91 CURVE SMOOTH",
"1335.35 -7.91 OFFCURVE",
"1397.3 35.556 OFFCURVE",
"1397.3 97.727 CURVE SMOOTH",
"1397.3 110.44 OFFCURVE",
"1394.71 123.935 OFFCURVE",
"1389 138 CURVE SMOOTH",
"926 1297 LINE SMOOTH",
"872 1430 OFFCURVE",
"806 1448 OFFCURVE",
"728 1448 CURVE SMOOTH",
"651 1448 OFFCURVE",
"584 1430 OFFCURVE",
"531 1297 CURVE SMOOTH",
"68 138 LINE SMOOTH",
"62.289 123.935 OFFCURVE",
"59.699 110.44 OFFCURVE",
"59.699 97.727 CURVE SMOOTH",
"59.699 35.556 OFFCURVE",
"121.653 -7.91 OFFCURVE",
"183.586 -7.91 CURVE SMOOTH",
"228.741 -7.91 OFFCURVE",
"273.884 15.194 OFFCURVE",
"295 71 CURVE SMOOTH"
);
},
{
closed = 1;
nodes = (
"991.459 517 LINE",
"465.148 517 LINE",
"728 1206 LINE"
);
}
);
width = 1453;
},
{
anchors = (
{
name = bottom;
position = "{734, 0}";
},
{
name = ogonek;
position = "{1266, 19}";
},
{
name = top;
position = "{733, 1438}";
}
);
layerId = "A4C065E6-C319-4A8F-B4BD-A6F28D5DCD95";
paths = (
{
closed = 1;
nodes = (
"417 332 LINE",
"1055 332 LINE",
"1145 92 LINE SMOOTH",
"1169 23 OFFCURVE",
"1222 -6 OFFCURVE",
"1275 -6 CURVE SMOOTH",
"1344 -6 OFFCURVE",
"1413 45 OFFCURVE",
"1413 121 CURVE SMOOTH",
"1413 137 OFFCURVE",
"1410 154 OFFCURVE",
"1403 172 CURVE SMOOTH",
"964 1271 LINE SMOOTH",
"903 1432 OFFCURVE",
"825 1458 OFFCURVE",
"736 1458 CURVE SMOOTH",
"647 1458 OFFCURVE",
"569 1432 OFFCURVE",
"508 1271 CURVE SMOOTH",
"69 172 LINE SMOOTH",
"62 154 OFFCURVE",
"59 137 OFFCURVE",
"59 121 CURVE SMOOTH",
"59 45 OFFCURVE",
"128 -6 OFFCURVE",
"197 -6 CURVE SMOOTH",
"250 -6 OFFCURVE",
"303 23 OFFCURVE",
"327 92 CURVE SMOOTH"
);
},
{
closed = 1;
nodes = (
"983 525 LINE",
"489 525 LINE",
"736 1184 LINE"
);
}
);
width = 1468;
},
{
anchors = (
{
name = bottom;
position = "{738, 0}";
},
{
name = ogonek;
position = "{1265, 19}";
},
{
name = top;
position = "{737, 1438}";
}
);
layerId = "8F6BE840-9356-4940-A488-AC64157678BA";
paths = (
{
closed = 1;
nodes = (
"430.86 331 LINE",
"1047.14 331 LINE",
"1128 109 LINE SMOOTH",
"1155.41 30.688 OFFCURVE",
"1215.32 -2.855 OFFCURVE",
"1273.82 -2.855 CURVE SMOOTH",
"1348.24 -2.855 OFFCURVE",
"1420.37 51.433 OFFCURVE",
"1420.37 136.894 CURVE SMOOTH",
"1420.37 155.818 OFFCURVE",
"1416.83 176.27 OFFCURVE",
"1409 198 CURVE SMOOTH",
"1000 1245 LINE SMOOTH",
"931 1430 OFFCURVE",
"842 1464 OFFCURVE",
"739 1464 CURVE SMOOTH",
"636 1464 OFFCURVE",
"547 1430 OFFCURVE",
"479 1245 CURVE SMOOTH",
"70 198 LINE SMOOTH",
"61.983 176.065 OFFCURVE",
"58.368 155.432 OFFCURVE",
"58.368 136.359 CURVE SMOOTH",
"58.368 51.207 OFFCURVE",
"130.435 -2.855 OFFCURVE",
"204.676 -2.855 CURVE SMOOTH",
"263.155 -2.855 OFFCURVE",
"322.982 30.688 OFFCURVE",
"350 109 CURVE SMOOTH"
);
},
{
closed = 1;
nodes = (
"974.658 530 LINE",
"503.342 530 LINE",
"739 1177 LINE"
);
}
);
width = 1476;
},
{
anchors = (
{
name = bottom;
position = "{744, 0}";
},
{
name = ogonek;
position = "{1264, 19}";
},
{
name = top;
position = "{742, 1438}";
}
);
layerId = "E1B555A7-F4E1-459C-9C1A-AE952106EEF9";
paths = (
{
closed = 1;
nodes = (
"450.223 331 LINE",
"1037.78 331 LINE",
"1104 143 LINE SMOOTH",
"1136 46 OFFCURVE",
"1206 3 OFFCURVE",
"1273 3 CURVE SMOOTH",
"1354 3 OFFCURVE",
"1431 65 OFFCURVE",
"1431 168 CURVE SMOOTH",
"1431 193 OFFCURVE",
"1427 220 OFFCURVE",
"1417 249 CURVE",
"1052 1193 LINE",
"971 1427 OFFCURVE",
"867 1476 OFFCURVE",
"744 1476 CURVE SMOOTH",
"621 1476 OFFCURVE",
"516 1427 OFFCURVE",
"436 1193 CURVE",
"71 249 LINE",
"61 220 OFFCURVE",
"57 193 OFFCURVE",
"57 168 CURVE SMOOTH",
"57 65 OFFCURVE",
"134 3 OFFCURVE",
"215 3 CURVE SMOOTH",
"282 3 OFFCURVE",
"352 46 OFFCURVE",
"384 143 CURVE SMOOTH"
);
},
{
closed = 1;
nodes = (
"964.157 540 LINE",
"523.843 540 LINE",
"744 1165 LINE"
);
}
);
width = 1488;
}
);
unicode = 0041;
userData = {
anchors = (
);
b = {
};
com.typemytype.robofont.layerData = {
b = {
anchors = (
);
components = (
);
contours = (
{
points = (
{
segmentType = line;
smooth = 0;
x = 403;
y = 502;
},
{
segmentType = line;
smooth = 0;
x = 703;
y = 1275;
},
{
segmentType = line;
smooth = 0;
x = 705;
y = 1275;
},
{
segmentType = line;
smooth = 0;
x = 1004;
y = 502;
}
);
},
{
points = (
{
segmentType = curve;
smooth = 1;
x = 150;
y = 0;
},
{
smooth = 0;
x = 181;
y = 0;
},
{
smooth = 0;
x = 214;
y = 15;
},
{
segmentType = curve;
smooth = 1;
x = 229;
y = 53;
},
{
segmentType = line;
smooth = 0;
x = 356;
y = 373;
},
{
segmentType = line;
smooth = 0;
x = 1051;
y = 373;
},
{
segmentType = line;
smooth = 1;
x = 1179;
y = 53;
},
{
smooth = 0;
x = 1193;
y = 17;
},
{
smooth = 0;
x = 1228;
y = 0;
},
{
segmentType = curve;
smooth = 1;
x = 1260;
y = 0;
},
{
smooth = 0;
x = 1306;
y = 0;
},
{
smooth = 0;
x = 1354;
y = 31;
},
{
segmentType = curve;
smooth = 1;
x = 1354;
y = 80;
},
{
smooth = 0;
x = 1354;
y = 87;
},
{
smooth = 0;
x = 1352;
y = 97;
},
{
segmentType = curve;
smooth = 0;
x = 1349;
y = 108;
},
{
segmentType = line;
smooth = 1;
x = 871;
y = 1288;
},
{
smooth = 0;
x = 817;
y = 1420;
},
{
smooth = 0;
x = 777;
y = 1430;
},
{
segmentType = curve;
smooth = 1;
x = 710;
y = 1430;
},
{
smooth = 0;
x = 644;
y = 1430;
},
{
smooth = 0;
x = 596;
y = 1413;
},
{
segmentType = curve;
smooth = 1;
x = 542;
y = 1280;
},
{
segmentType = line;
smooth = 1;
x = 66;
y = 108;
},
{
smooth = 0;
x = 62;
y = 97;
},
{
smooth = 0;
x = 60;
y = 87;
},
{
segmentType = curve;
smooth = 1;
x = 60;
y = 78;
},
{
smooth = 0;
x = 60;
y = 32;
},
{
smooth = 0;
x = 106;
y = 0;
}
);
}
);
lib = {
};
name = A;
unicodes = (
);
width = 1414;
};
};
components = (
);
contours = {
};
lib = {
};
name = A;
points = {
};
segmentType = line;
unicodes = (
);
width = 1445;
x = 718;
y = 1232;
};
},
{
glyphname = AE;
lastChange = "2016-08-02 16:24:46 +0000";
layers = (
{
anchors = (
{
name = bottom;
position = "{978, 0}";
},
{
name = top;
position = "{1277, 1440}";
}
);
layerId = "9E718F8A-2CEA-4931-B05D-987794BD97DA";
paths = (
{
closed = 1;
nodes = (
"390 385 LINE",
"1118 385 LINE",
"1179 33 LINE SMOOTH",
"1185 1 OFFCURVE",
"1216 0 OFFCURVE",
"1246 0 CURVE SMOOTH",
"1862 0 LINE SMOOTH",
"1893 0 OFFCURVE",
"1907 24 OFFCURVE",
"1907 46 CURVE SMOOTH",
"1907 77 OFFCURVE",
"1881 113 OFFCURVE",
"1838 113 CURVE SMOOTH",
"1290 113 LINE",
"1196 677 LINE",
"1807 677 LINE SMOOTH",
"1840 677 OFFCURVE",
"1857 698 OFFCURVE",
"1857 723 CURVE SMOOTH",
"1857 756 OFFCURVE",
"1830 789 OFFCURVE",
"1787 789 CURVE SMOOTH",
"1178 789 LINE",
"1094 1306 LINE",
"1837 1306 LINE SMOOTH",
"1871 1306 OFFCURVE",
"1885 1327 OFFCURVE",
"1885 1352 CURVE SMOOTH",
"1885 1383 OFFCURVE",
"1860 1419 OFFCURVE",
"1817 1419 CURVE SMOOTH",
"1003 1419 LINE SMOOTH",
"964 1419 OFFCURVE",
"924 1410 OFFCURVE",
"857 1306 CURVE SMOOTH",
"62 79 LINE SMOOTH",
"54 67 OFFCURVE",
"50 57 OFFCURVE",
"50 49 CURVE SMOOTH",
"50 18 OFFCURVE",
"71 -2 OFFCURVE",
"103 -2 CURVE SMOOTH",
"123 -2 OFFCURVE",
"145 7 OFFCURVE",
"162 33 CURVE SMOOTH"
);
},
{
closed = 1;
nodes = (
"970 1304 LINE",
"1103 500 LINE",
"466 500 LINE",
"967 1304 LINE"
);
}
);
width = 1955;
},
{
anchors = (
{
name = bottom;
position = "{981, 0}";
},
{
name = top;
position = "{1359, 1455}";
}
);
layerId = "5FCC6278-3A1D-4B2B-A133-84AE53360430";
paths = (
{
closed = 1;
nodes = (
"408 377 LINE",
"1110 377 LINE",
"1167 47 LINE SMOOTH",
"1174 7 OFFCURVE",
"1213 0 OFFCURVE",
"1250 0 CURVE SMOOTH",
"1857 0 LINE SMOOTH",
"1897 0 OFFCURVE",
"1915 29 OFFCURVE",
"1915 58 CURVE SMOOTH",
"1915 95 OFFCURVE",
"1886 135 OFFCURVE",
"1836 135 CURVE SMOOTH",
"1312 135 LINE",
"1224 667 LINE",
"1803 667 LINE SMOOTH",
"1845 667 OFFCURVE",
"1865 694 OFFCURVE",
"1865 724 CURVE SMOOTH",
"1865 762 OFFCURVE",
"1836 801 OFFCURVE",
"1786 801 CURVE SMOOTH",
"1204 801 LINE",
"1126 1288 LINE",
"1835 1288 LINE SMOOTH",
"1876 1288 OFFCURVE",
"1895 1316 OFFCURVE",
"1895 1346 CURVE SMOOTH",
"1895 1383 OFFCURVE",
"1866 1424 OFFCURVE",
"1816 1424 CURVE SMOOTH",
"1000 1424 LINE SMOOTH",
"943 1424 OFFCURVE",
"893 1409 OFFCURVE",
"821 1286 CURVE",
"65 99 LINE SMOOTH",
"56 84 OFFCURVE",
"51 71 OFFCURVE",
"51 60 CURVE SMOOTH",
"51 23 OFFCURVE",
"81 -1 OFFCURVE",
"119 -1 CURVE SMOOTH",
"147 -1 OFFCURVE",
"177 12 OFFCURVE",
"196 47 CURVE"
);
},
{
closed = 1;
nodes = (
"968 1296 LINE",
"1094 506 LINE",
"486 506 LINE",
"965 1296 LINE"
);
}
);
width = 1961;
},
{
anchors = (
{
name = bottom;
position = "{984, 0}";
},
{
name = top;
position = "{1291, 1449}";
}
);
layerId = "334510DF-EE69-4F45-9EE4-32E3392006F4";
paths = (
{
closed = 1;
nodes = (
"428 367 LINE",
"1102 367 LINE",
"1154 62 LINE SMOOTH",
"1161 13 OFFCURVE",
"1208 0 OFFCURVE",
"1255 0 CURVE SMOOTH",
"1850 0 LINE SMOOTH",
"1901 1 OFFCURVE",
"1923 35 OFFCURVE",
"1923 71 CURVE SMOOTH",
"1923 113 OFFCURVE",
"1891 160 OFFCURVE",
"1834 160 CURVE SMOOTH",
"1336 160 LINE",
"1255 655 LINE",
"1800 655 LINE SMOOTH",
"1850 655 OFFCURVE",
"1873 689 OFFCURVE",
"1873 726 CURVE SMOOTH",
"1873 769 OFFCURVE",
"1842 814 OFFCURVE",
"1784 814 CURVE SMOOTH",
"1232 814 LINE",
"1160 1270 LINE",
"1833 1270 LINE SMOOTH",
"1883 1270 OFFCURVE",
"1905 1304 OFFCURVE",
"1905 1340 CURVE SMOOTH",
"1905 1383 OFFCURVE",
"1873 1429 OFFCURVE",
"1816 1429 CURVE SMOOTH",
"995 1429 LINE SMOOTH",
"920 1429 OFFCURVE",
"859 1408 OFFCURVE",
"781 1265 CURVE",
"68 122 LINE SMOOTH",
"57 105 OFFCURVE",
"53 89 OFFCURVE",
"53 75 CURVE SMOOTH",
"53 28 OFFCURVE",
"91 -1 OFFCURVE",
"137 -1 CURVE SMOOTH",
"173 -1 OFFCURVE",
"211 17 OFFCURVE",
"234 62 CURVE"
);
},
{
closed = 1;
nodes = (
"966 1288 LINE",
"1084 512 LINE",
"509 512 LINE",
"963 1288 LINE"
);
}
);
width = 1967;
},
{
anchors = (
{
name = bottom;
position = "{985, 0}";
},
{
name = top;
position = "{1296, 1445}";
}
);
layerId = "F812A762-7E77-4DA4-9A10-AD66CDB59C76";
paths = (
{
closed = 1;
nodes = (
"440 362 LINE",
"1097 362 LINE",
"1146 71 LINE SMOOTH",
"1154 16 OFFCURVE",
"1206 0 OFFCURVE",
"1258 0 CURVE SMOOTH",
"1848 0 LINE",
"1904 2 OFFCURVE",
"1929 39 OFFCURVE",
"1929 79 CURVE SMOOTH",
"1929 125 OFFCURVE",
"1894 175 OFFCURVE",
"1832 175 CURVE SMOOTH",
"1350 175 LINE",
"1274 648 LINE",
"1798 648 LINE SMOOTH",
"1853 648 OFFCURVE",
"1879 686 OFFCURVE",
"1879 727 CURVE SMOOTH",
"1879 773 OFFCURVE",
"1845 822 OFFCURVE",
"1783 822 CURVE SMOOTH",
"1250 822 LINE",
"1181 1258 LINE",
"1831 1258 LINE SMOOTH",
"1887 1258 OFFCURVE",
"1912 1296 OFFCURVE",
"1912 1337 CURVE SMOOTH",
"1912 1383 OFFCURVE",
"1877 1433 OFFCURVE",
"1815 1433 CURVE SMOOTH",
"993 1432 LINE SMOOTH",
"906 1432 OFFCURVE",
"839 1408 OFFCURVE",
"756 1252 CURVE",
"70 135 LINE SMOOTH",
"59 116 OFFCURVE",
"54 97 OFFCURVE",
"54 81 CURVE SMOOTH",
"54 31 OFFCURVE",
"99 0 OFFCURVE",
"148 0 CURVE SMOOTH",
"189 0 OFFCURVE",
"232 21 OFFCURVE",
"257 71 CURVE"
);
},
{
closed = 1;
nodes = (
"964 1282 LINE",
"1078 515 LINE",
"522 515 LINE",
"961 1282 LINE"
);
}
);
width = 1970;
},
{
anchors = (
{
name = bottom;
position = "{987, 0}";
},
{
name = top;
position = "{1300, 1441}";
}
);
layerId = "04B13600-F055-45EE-B953-7859ECDADD08";
paths = (
{
closed = 1;
nodes = (
"450 357 LINE",
"1093 357 LINE",
"1140 79 LINE",
"1147 19 OFFCURVE",
"1204 0 OFFCURVE",
"1260 0 CURVE SMOOTH",
"1846 0 LINE SMOOTH",
"1906 2 OFFCURVE",
"1933 42 OFFCURVE",
"1933 86 CURVE SMOOTH",
"1933 135 OFFCURVE",
"1897 187 OFFCURVE",
"1831 187 CURVE SMOOTH",
"1363 187 LINE",
"1290 642 LINE",
"1796 642 LINE SMOOTH",
"1856 642 OFFCURVE",
"1883 684 OFFCURVE",
"1883 728 CURVE SMOOTH",
"1883 777 OFFCURVE",
"1848 829 OFFCURVE",
"1782 829 CURVE SMOOTH",
"1265 829 LINE",
"1199 1248 LINE",
"1830 1248 LINE SMOOTH",
"1890 1248 OFFCURVE",
"1917 1290 OFFCURVE",
"1917 1334 CURVE SMOOTH",
"1917 1383 OFFCURVE",
"1881 1436 OFFCURVE",
"1815 1436 CURVE SMOOTH",
"991 1435 LINE SMOOTH",
"894 1435 OFFCURVE",
"821 1407 OFFCURVE",
"735 1240 CURVE",
"72 147 LINE",
"61 126 OFFCURVE",
"55 106 OFFCURVE",
"55 89 CURVE SMOOTH",
"55 34 OFFCURVE",
"104 0 OFFCURVE",
"157 0 CURVE SMOOTH",
"203 0 OFFCURVE",
"250 24 OFFCURVE",
"277 79 CURVE"
);
},
{
closed = 1;
nodes = (
"963 1278 LINE",
"1073 518 LINE",
"534 518 LINE",
"960 1278 LINE"
);
}
);
width = 1973;
},
{
anchors = (
{
name = bottom;
position = "{990, 0}";
},
{
name = top;
position = "{1300, 1441}";
}
);
layerId = "A4C065E6-C319-4A8F-B4BD-A6F28D5DCD95";
paths = (
{
closed = 1;
nodes = (
"469 346 LINE",
"1085 346 LINE",
"1124 125 LINE",
"1135 33 OFFCURVE",
"1192 0 OFFCURVE",
"1264 0 CURVE SMOOTH",
"1832 0 LINE SMOOTH",
"1904 2 OFFCURVE",
"1940 40 OFFCURVE",
"1940 99 CURVE SMOOTH",
"1940 169 OFFCURVE",
"1900 216 OFFCURVE",
"1817 216 CURVE SMOOTH",
"1385 216 LINE",
"1318 629 LINE",
"1785 629 LINE SMOOTH",
"1859 629 OFFCURVE",
"1892 668 OFFCURVE",
"1892 730 CURVE SMOOTH",
"1892 798 OFFCURVE",
"1845 845 OFFCURVE",
"1770 845 CURVE SMOOTH",
"1291 845 LINE",
"1231 1226 LINE",
"1817 1226 LINE SMOOTH",
"1891 1226 OFFCURVE",
"1927 1265 OFFCURVE",
"1927 1327 CURVE SMOOTH",
"1927 1393 OFFCURVE",
"1879 1442 OFFCURVE",
"1804 1442 CURVE SMOOTH",
"987 1441 LINE SMOOTH",
"863 1441 OFFCURVE",
"782 1383 OFFCURVE",
"682 1175 CURVE",
"83 194 LINE",
"68 163 OFFCURVE",
"58 130 OFFCURVE",
"58 104 CURVE SMOOTH",
"58 39 OFFCURVE",
"112 1 OFFCURVE",
"172 1 CURVE SMOOTH",
"230 1 OFFCURVE",
"282 39 OFFCURVE",
"317 112 CURVE"
);
},
{
closed = 1;
nodes = (
"961 1268 LINE",
"1064 526 LINE",
"555 526 LINE",
"958 1268 LINE"
);
}
);
width = 1979;
},
{
anchors = (
{
name = bottom;
position = "{992, 0}";
},
{
name = top;
position = "{1295, 1446}";
}
);
layerId = "8F6BE840-9356-4940-A488-AC64157678BA";
paths = (
{
closed = 1;
nodes = (
"484 339 LINE",
"1079 339 LINE",
"1109 163 LINE",
"1125 44 OFFCURVE",
"1176 0 OFFCURVE",
"1268 0 CURVE SMOOTH",
"1812 0 LINE SMOOTH",
"1898 1 OFFCURVE",
"1946 34 OFFCURVE",
"1946 106 CURVE SMOOTH",
"1946 195 OFFCURVE",
"1902 235 OFFCURVE",
"1796 235 CURVE SMOOTH",
"1404 235 LINE",
"1343 620 LINE",
"1770 620 LINE SMOOTH",
"1860 620 OFFCURVE",
"1899 653 OFFCURVE",
"1899 731 CURVE SMOOTH",
"1899 816 OFFCURVE",
"1835 855 OFFCURVE",
"1752 855 CURVE SMOOTH",
"1314 855 LINE",
"1259 1211 LINE",
"1797 1211 LINE SMOOTH",
"1887 1211 OFFCURVE",
"1935 1244 OFFCURVE",
"1935 1322 CURVE SMOOTH",
"1935 1403 OFFCURVE",
"1870 1446 OFFCURVE",
"1787 1446 CURVE SMOOTH",
"984 1445 LINE SMOOTH",
"829 1445 OFFCURVE",
"744 1358 OFFCURVE",
"625 1118 CURVE",
"98 230 LINE",
"78 190 OFFCURVE",
"61 146 OFFCURVE",
"60 112 CURVE SMOOTH",
"60 43 OFFCURVE",
"117 2 OFFCURVE",
"183 2 CURVE SMOOTH",
"256 2 OFFCURVE",
"309 52 OFFCURVE",
"355 138 CURVE"
);
},
{
closed = 1;
nodes = (
"959 1261 LINE",
"1057 530 LINE",
"573 530 LINE",
"956 1261 LINE"
);
}
);
width = 1984;
},
{
anchors = (
{
name = bottom;
position = "{996, 0}";
},
{
name = top;
position = "{1287, 1453}";
}
);
layerId = "E1B555A7-F4E1-459C-9C1A-AE952106EEF9";
paths = (
{
closed = 1;
nodes = (
"507 325 LINE",
"1069 325 LINE",
"1087 241 LINE",
"1110 65 OFFCURVE",
"1153 0 OFFCURVE",
"1274 0 CURVE SMOOTH",
"1784 0 LINE SMOOTH",
"1889 -1 OFFCURVE",
"1954 23 OFFCURVE",
"1954 120 CURVE SMOOTH",
"1954 246 OFFCURVE",
"1905 271 OFFCURVE",
"1765 271 CURVE SMOOTH",
"1431 271 LINE",
"1377 603 LINE",
"1748 603 LINE SMOOTH",
"1861 603 OFFCURVE",
"1910 624 OFFCURVE",
"1910 734 CURVE SMOOTH",
"1910 852 OFFCURVE",
"1821 875 OFFCURVE",
"1727 875 CURVE SMOOTH",
"1347 875 LINE",
"1298 1182 LINE",
"1768 1182 LINE SMOOTH",
"1882 1182 OFFCURVE",
"1947 1203 OFFCURVE",
"1947 1313 CURVE SMOOTH",
"1947 1424 OFFCURVE",
"1859 1454 OFFCURVE",
"1762 1454 CURVE SMOOTH",
"979 1453 LINE SMOOTH",
"781 1453 OFFCURVE",
"688 1310 OFFCURVE",
"543 1005 CURVE",
"120 303 LINE",
"92 245 OFFCURVE",
"65 179 OFFCURVE",
"64 130 CURVE SMOOTH",
"64 49 OFFCURVE",
"126 5 OFFCURVE",
"199 5 CURVE SMOOTH",
"293 5 OFFCURVE",
"347 78 OFFCURVE",
"410 189 CURVE"
);
},
{
closed = 1;
nodes = (
"957 1249 LINE",
"1045 539 LINE",
"598 539 LINE",
"953 1249 LINE"
);
}
);
width = 1991;
}
);
unicode = 00C6;
userData = {
com.typemytype.robofont.layerData = {
b = {
anchors = (
);
components = (
);
contours = (
);
lib = {
};
name = AE;
unicodes = (
);
width = 1976;
};
};
};
},
{
glyphname = B;
lastChange = "2016-08-02 16:24:46 +0000";
layers = (
{
anchors = (
{
name = bottom;
position = "{621, 0}";
},
{
name = top;
position = "{639, 1438}";
}
);
layerId = "9E718F8A-2CEA-4931-B05D-987794BD97DA";
paths = (
{
closed = 1;
nodes = (
"244 1419 LINE SMOOTH",
"211 1419 OFFCURVE",
"181 1394 OFFCURVE",
"181 1360 CURVE SMOOTH",
"181 60 LINE SMOOTH",
"181 25 OFFCURVE",
"211 0 OFFCURVE",
"244 0 CURVE SMOOTH",
"713 0 LINE SMOOTH",
"1041 0 OFFCURVE",
"1160 184 OFFCURVE",
"1160 382 CURVE SMOOTH",
"1160 594 OFFCURVE",
"1012 723 OFFCURVE",
"788 740 CURVE",
"788 744 LINE",
"991 756 OFFCURVE",
"1103 916 OFFCURVE",
"1103 1058 CURVE SMOOTH",
"1103 1281 OFFCURVE",
"966 1419 OFFCURVE",
"607 1419 CURVE SMOOTH"
);
},
{
closed = 1;
nodes = (
"301 782 LINE",
"301 1324 LINE",
"620 1324 LINE SMOOTH",
"795 1324 OFFCURVE",
"982 1282 OFFCURVE",
"982 1064 CURVE SMOOTH",
"982 869 OFFCURVE",
"848 782 OFFCURVE",
"608 782 CURVE SMOOTH"
);
},
{
closed = 1;
nodes = (
"301 97 LINE",
"301 687 LINE",
"605 687 LINE SMOOTH",
"885 687 OFFCURVE",
"1030 603 OFFCURVE",
"1030 399 CURVE SMOOTH",
"1030 171 OFFCURVE",
"917 97 OFFCURVE",
"675 97 CURVE SMOOTH"
);
}
);
width = 1242;
},
{
anchors = (
{
name = bottom;
position = "{639, 0}";
},
{
name = top;
position = "{639, 1424}";
}
);
layerId = "5FCC6278-3A1D-4B2B-A133-84AE53360430";
paths = (
{
closed = 1;
nodes = (
"260 1424 LINE SMOOTH",
"216 1424 OFFCURVE",
"179 1390 OFFCURVE",
"179 1347 CURVE SMOOTH",
"179 77 LINE SMOOTH",
"179 33 OFFCURVE",
"216 0 OFFCURVE",
"260 0 CURVE SMOOTH",
"726 0 LINE SMOOTH",
"1058 0 OFFCURVE",
"1194 186 OFFCURVE",
"1194 383 CURVE SMOOTH",
"1194 597 OFFCURVE",
"1050 722 OFFCURVE",
"833 741 CURVE",
"833 745 LINE",
"1031 764 OFFCURVE",
"1135 913 OFFCURVE",
"1135 1065 CURVE SMOOTH",
"1135 1284 OFFCURVE",
"995 1424 OFFCURVE",
"641 1424 CURVE SMOOTH"
);
},
{
closed = 1;
nodes = (
"338 797 LINE",
"338 1300 LINE",
"645 1300 LINE SMOOTH",
"815 1300 OFFCURVE",
"979 1264 OFFCURVE",
"979 1063 CURVE SMOOTH",
"979 876 OFFCURVE",
"860 797 OFFCURVE",
"628 797 CURVE SMOOTH"
);
},
{
closed = 1;
nodes = (
"338 126 LINE",
"338 673 LINE",
"616 673 LINE SMOOTH",
"884 673 OFFCURVE",
"1025 606 OFFCURVE",
"1025 403 CURVE SMOOTH",
"1025 187 OFFCURVE",
"915 126 OFFCURVE",
"687 126 CURVE SMOOTH"
);
}
);
width = 1278;
},
{
anchors = (
{
name = bottom;
position = "{659, 0}";
},
{
name = top;
position = "{654, 1438}";
}
);
layerId = "334510DF-EE69-4F45-9EE4-32E3392006F4";
paths = (
{
closed = 1;
nodes = (
"276 1429 LINE SMOOTH",
"221 1429 OFFCURVE",
"177 1387 OFFCURVE",
"177 1332 CURVE SMOOTH",
"177 97 LINE SMOOTH",
"177 43 OFFCURVE",
"221 0 OFFCURVE",
"276 0 CURVE SMOOTH",
"741 0 LINE SMOOTH",
"1078 0 OFFCURVE",
"1230 188 OFFCURVE",
"1230 383 CURVE SMOOTH",
"1230 600 OFFCURVE",
"1093 720 OFFCURVE",
"882 743 CURVE",
"882 747 LINE",
"1075 772 OFFCURVE",
"1170 910 OFFCURVE",
"1170 1073 CURVE SMOOTH",
"1170 1289 OFFCURVE",
"1026 1429 OFFCURVE",
"679 1429 CURVE SMOOTH"
);
},
{
closed = 1;
nodes = (
"377 813 LINE",
"377 1274 LINE",
"671 1274 LINE SMOOTH",
"836 1274 OFFCURVE",
"974 1246 OFFCURVE",
"974 1061 CURVE SMOOTH",
"974 883 OFFCURVE",
"873 813 OFFCURVE",
"650 813 CURVE SMOOTH"
);
},
{
closed = 1;
nodes = (
"377 157 LINE",
"377 658 LINE",
"628 658 LINE SMOOTH",
"884 658 OFFCURVE",
"1020 609 OFFCURVE",
"1020 408 CURVE SMOOTH",
"1020 205 OFFCURVE",
"913 157 OFFCURVE",
"700 157 CURVE SMOOTH"
);
}
);
width = 1318;
},
{
anchors = (
{
name = bottom;
position = "{672, 0}";
},
{
name = top;
position = "{659, 1438}";
}
);
layerId = "F812A762-7E77-4DA4-9A10-AD66CDB59C76";
paths = (
{
closed = 1;
nodes = (
"286 1433 LINE SMOOTH",
"225 1433 OFFCURVE",
"175 1385 OFFCURVE",
"175 1324 CURVE SMOOTH",
"175 109 LINE SMOOTH",
"175 48 OFFCURVE",
"225 0 OFFCURVE",
"286 0 CURVE SMOOTH",
"750 0 LINE SMOOTH",
"1090 0 OFFCURVE",
"1253 190 OFFCURVE",
"1253 384 CURVE SMOOTH",
"1253 601 OFFCURVE",
"1119 719 OFFCURVE",
"912 744 CURVE",
"912 748 LINE",
"1101 777 OFFCURVE",
"1192 908 OFFCURVE",
"1192 1078 CURVE SMOOTH",
"1192 1291 OFFCURVE",
"1045 1433 OFFCURVE",
"701 1433 CURVE SMOOTH"
);
},
{
closed = 1;
nodes = (
"401 823 LINE",
"401 1259 LINE",
"687 1259 LINE SMOOTH",
"849 1259 OFFCURVE",
"972 1234 OFFCURVE",
"972 1060 CURVE SMOOTH",
"972 888 OFFCURVE",
"881 823 OFFCURVE",
"664 823 CURVE SMOOTH"
);
},
{
closed = 1;
nodes = (
"401 176 LINE",
"401 649 LINE",
"636 649 LINE SMOOTH",
"883 649 OFFCURVE",
"1017 611 OFFCURVE",
"1017 411 CURVE SMOOTH",
"1017 216 OFFCURVE",
"911 176 OFFCURVE",
"708 176 CURVE SMOOTH"
);
}
);
width = 1343;
},
{
anchors = (
{
name = bottom;
position = "{682, 0}";
},
{
name = top;
position = "{663, 1438}";
}
);
layerId = "04B13600-F055-45EE-B953-7859ECDADD08";
paths = (
{
closed = 1;
nodes = (
"295 1436 LINE SMOOTH",
"228 1436 OFFCURVE",
"174 1383 OFFCURVE",
"174 1316 CURVE SMOOTH",
"174 119 LINE SMOOTH",
"174 53 OFFCURVE",
"228 0 OFFCURVE",
"295 0 CURVE SMOOTH",
"758 0 LINE SMOOTH",
"1100 0 OFFCURVE",
"1272 191 OFFCURVE",
"1272 384 CURVE SMOOTH",
"1272 603 OFFCURVE",
"1141 718 OFFCURVE",
"938 745 CURVE",
"938 749 LINE",
"1124 781 OFFCURVE",
"1210 906 OFFCURVE",
"1210 1082 CURVE SMOOTH",
"1210 1293 OFFCURVE",
"1061 1436 OFFCURVE",
"721 1436 CURVE SMOOTH"
);
},
{
closed = 1;
nodes = (
"422 831 LINE",
"422 1245 LINE",
"701 1245 LINE SMOOTH",
"860 1245 OFFCURVE",
"970 1224 OFFCURVE",
"970 1059 CURVE SMOOTH",
"970 892 OFFCURVE",
"888 831 OFFCURVE",
"675 831 CURVE SMOOTH"
);
},
{
closed = 1;
nodes = (
"422 192 LINE",
"422 641 LINE",
"642 641 LINE SMOOTH",
"883 641 OFFCURVE",
"1014 613 OFFCURVE",
"1014 413 CURVE SMOOTH",
"1014 225 OFFCURVE",
"910 192 OFFCURVE",
"715 192 CURVE SMOOTH"
);
}
);
width = 1364;
},
{
anchors = (
{
name = bottom;
position = "{695, 0}";
},
{
name = top;
position = "{674, 1438}";
}
);
layerId = "A4C065E6-C319-4A8F-B4BD-A6F28D5DCD95";
paths = (
{
closed = 1;
nodes = (
"318 1442 LINE SMOOTH",
"236 1442 OFFCURVE",
"168 1387 OFFCURVE",
"168 1300 CURVE SMOOTH",
"168 166 LINE SMOOTH",
"168 51 OFFCURVE",
"230 0 OFFCURVE",
"318 0 CURVE SMOOTH",
"777 0 LINE SMOOTH",
"1122 0 OFFCURVE",
"1298 194 OFFCURVE",
"1298 389 CURVE SMOOTH",
"1298 599 OFFCURVE",
"1169 720 OFFCURVE",
"969 749 CURVE",
"969 753 LINE",
"1149 786 OFFCURVE",
"1237 913 OFFCURVE",
"1237 1086 CURVE SMOOTH",
"1237 1339 OFFCURVE",
"1047 1442 OFFCURVE",
"723 1442 CURVE SMOOTH"
);
},
{
closed = 1;
nodes = (
"452 836 LINE",
"452 1232 LINE",
"700 1232 LINE SMOOTH",
"856 1232 OFFCURVE",
"961 1210 OFFCURVE",
"961 1051 CURVE SMOOTH",
"961 888 OFFCURVE",
"876 836 OFFCURVE",
"674 836 CURVE SMOOTH"
);
},
{
closed = 1;
nodes = (
"452 211 LINE",
"452 639 LINE",
"645 639 LINE SMOOTH",
"874 639 OFFCURVE",
"1004 612 OFFCURVE",
"1004 423 CURVE SMOOTH",
"1004 241 OFFCURVE",
"899 211 OFFCURVE",
"706 211 CURVE SMOOTH"
);
}
);
width = 1390;
},
{
anchors = (
{
name = bottom;
position = "{702, 0}";
},
{
name = top;
position = "{687, 1438}";
}
);
layerId = "8F6BE840-9356-4940-A488-AC64157678BA";
paths = (
{
closed = 1;
nodes = (
"344 1446 LINE SMOOTH",
"245 1446 OFFCURVE",
"161 1393 OFFCURVE",
"161 1290 CURVE SMOOTH",
"161 205 LINE SMOOTH",
"161 44 OFFCURVE",
"231 0 OFFCURVE",
"344 0 CURVE SMOOTH",
"798 0 LINE SMOOTH",
"1145 0 OFFCURVE",
"1313 196 OFFCURVE",
"1313 395 CURVE SMOOTH",
"1313 594 OFFCURVE",
"1186 722 OFFCURVE",
"986 751 CURVE",
"986 755 LINE",
"1160 787 OFFCURVE",
"1255 920 OFFCURVE",
"1255 1086 CURVE SMOOTH",
"1255 1382 OFFCURVE",
"1003 1446 OFFCURVE",
"700 1446 CURVE SMOOTH"
);
},
{
closed = 1;
nodes = (
"472 834 LINE",
"472 1230 LINE",
"680 1230 LINE SMOOTH",
"836 1230 OFFCURVE",
"951 1205 OFFCURVE",
"951 1044 CURVE SMOOTH",
"951 881 OFFCURVE",
"848 834 OFFCURVE",
"656 834 CURVE SMOOTH"
);
},
{
closed = 1;
nodes = (
"472 217 LINE",
"472 643 LINE",
"642 643 LINE SMOOTH",
"861 643 OFFCURVE",
"992 610 OFFCURVE",
"992 431 CURVE SMOOTH",
"992 249 OFFCURVE",
"884 217 OFFCURVE",
"683 217 CURVE SMOOTH"
);
}
);
width = 1404;
},
{
anchors = (
{
name = bottom;
position = "{712, 0}";
},
{
name = top;
position = "{705, 1438}";
}
);
layerId = "E1B555A7-F4E1-459C-9C1A-AE952106EEF9";
paths = (
{
closed = 1;
nodes = (
"380 1455 LINE SMOOTH",
"257 1455 OFFCURVE",
"150 1405 OFFCURVE",
"150 1269 CURVE SMOOTH",
"150 283 LINE SMOOTH",
"150 32 OFFCURVE",
"231 0 OFFCURVE",
"380 0 CURVE SMOOTH",
"829 0 LINE SMOOTH",
"1178 0 OFFCURVE",
"1335 200 OFFCURVE",
"1335 406 CURVE SMOOTH",
"1335 584 OFFCURVE",
"1209 728 OFFCURVE",
"1009 757 CURVE",
"1009 761 LINE",
"1174 789 OFFCURVE",
"1282 935 OFFCURVE",
"1282 1087 CURVE SMOOTH",
"1282 1443 OFFCURVE",
"985 1455 OFFCURVE",
"723 1455 CURVE SMOOTH"
);
},
{
closed = 1;
nodes = (
"502 830 LINE",
"502 1227 LINE",
"651 1227 LINE SMOOTH",
"807 1227 OFFCURVE",
"936 1193 OFFCURVE",
"936 1030 CURVE SMOOTH",
"936 867 OFFCURVE",
"808 830 OFFCURVE",
"630 830 CURVE SMOOTH"
);
},
{
closed = 1;
nodes = (
"502 228 LINE",
"502 652 LINE",
"637 652 LINE SMOOTH",
"841 652 OFFCURVE",
"974 607 OFFCURVE",
"974 446 CURVE SMOOTH",
"974 264 OFFCURVE",
"861 228 OFFCURVE",
"648 228 CURVE SMOOTH"
);
}
);
width = 1424;
}
);
unicode = 0042;
userData = {
anchors = (
);
b = {
};
com.typemytype.robofont.layerData = {
b = {
anchors = (
);
components = (
);
contours = (
{
points = (
{
segmentType = curve;
smooth = 1;
x = 266;
y = 0;
},
{
segmentType = line;
smooth = 1;
x = 1035;
y = 0;
},
{
smooth = 0;
x = 1084;
y = 0;
},
{
smooth = 0;
x = 1108;
y = 36;
},
{
segmentType = curve;
smooth = 1;
x = 1108;
y = 73;
},
{
smooth = 0;
x = 1108;
y = 109;
},
{
smooth = 0;
x = 1084;
y = 145;
},
{
segmentType = curve;
smooth = 1;
x = 1035;
y = 145;
},
{
segmentType = line;
smooth = 0;
x = 353;
y = 145;
},
{
segmentType = line;
smooth = 0;
x = 353;
y = 662;
},
{
segmentType = line;
smooth = 1;
x = 975;
y = 662;
},
{
smooth = 0;
x = 1024;
y = 662;
},
{
smooth = 0;
x = 1049;
y = 698;
},
{
segmentType = curve;
smooth = 1;
x = 1049;
y = 734;
},
{
smooth = 0;
x = 1049;
y = 770;
},
{
smooth = 0;
x = 1026;
y = 806;
},
{
segmentType = curve;
smooth = 1;
x = 975;
y = 806;
},
{
segmentType = line;
smooth = 0;
x = 353;
y = 806;
},
{
segmentType = line;
smooth = 0;
x = 353;
y = 1281;
},
{
segmentType = line;
smooth = 1;
x = 1007;
y = 1281;
},
{
smooth = 0;
x = 1056;
y = 1281;
},
{
smooth = 0;
x = 1080;
y = 1317;
},
{
segmentType = curve;
smooth = 1;
x = 1080;
y = 1354;
},
{
smooth = 0;
x = 1080;
y = 1390;
},
{
smooth = 0;
x = 1056;
y = 1426;
},
{
segmentType = curve;
smooth = 1;
x = 1007;
y = 1426;
},
{
segmentType = line;
smooth = 1;
x = 261;
y = 1426;
},
{
smooth = 0;
x = 213;
y = 1426;
},
{
smooth = 0;
x = 178;
y = 1383;
},
{
segmentType = curve;
smooth = 1;
x = 178;
y = 1340;
},
{
segmentType = line;
smooth = 1;
x = 178;
y = 86;
},
{
smooth = 0;
x = 178;
y = 41;
},
{
smooth = 0;
x = 222;
y = 0;
}
);
}
);
lib = {
};
name = B;
unicodes = (
);
width = 1292;
};
};
components = (
);
contours = {
};
lib = {
};
name = B;
points = {
};
segmentType = curve;
unicodes = (
);
width = 1395;
x = 676;
y = 1260;
};
},
{
glyphname = C;
lastChange = "2016-08-02 17:46:46 +0000";
layers = (
{
anchors = (
{
name = bottom;
position = "{760, 14}";
},
{
name = top;
position = "{788, 1438}";
}
);
layerId = "9E718F8A-2CEA-4931-B05D-987794BD97DA";
paths = (
{
closed = 1;
nodes = (
"328 1412 OFFCURVE",
"139 1034 OFFCURVE",
"139 693 CURVE SMOOTH",
"139 323 OFFCURVE",
"324 -22 OFFCURVE",
"781 -22 CURVE SMOOTH",
"952 -22 OFFCURVE",
"1074 40 OFFCURVE",
"1141 85 CURVE SMOOTH",
"1174 107 OFFCURVE",
"1187 129 OFFCURVE",
"1187 147 CURVE SMOOTH",
"1187 171 OFFCURVE",
"1164 188 OFFCURVE",
"1139 188 CURVE SMOOTH",
"1128 188 OFFCURVE",
"1116 185 OFFCURVE",
"1105 177 CURVE",
"1010 118 OFFCURVE",
"926 78 OFFCURVE",
"788 78 CURVE SMOOTH",
"385 78 OFFCURVE",
"271 417 OFFCURVE",
"271 693 CURVE SMOOTH",
"271 967 OFFCURVE",
"392 1312 OFFCURVE",
"787 1312 CURVE SMOOTH",
"986 1312 OFFCURVE",
"1052 1265 OFFCURVE",
"1086 1244 CURVE SMOOTH",
"1099 1236 OFFCURVE",
"1110 1233 OFFCURVE",
"1119 1233 CURVE SMOOTH",
"1144 1233 OFFCURVE",
"1158 1256 OFFCURVE",
"1158 1278 CURVE SMOOTH",
"1158 1292 OFFCURVE",
"1153 1306 OFFCURVE",
"1142 1314 CURVE",
"1136 1322 OFFCURVE",
"1032 1412 OFFCURVE",
"787 1412 CURVE SMOOTH"
);
}
);
width = 1354;
},
{
anchors = (
{
name = bottom;
position = "{779, 0}";
},
{
name = top;
position = "{677, 1424}";
}
);
layerId = "5FCC6278-3A1D-4B2B-A133-84AE53360430";
paths = (
{
closed = 1;
nodes = (
"350 1430 OFFCURVE",
"131 1075 OFFCURVE",
"131 701 CURVE SMOOTH",
"131 312 OFFCURVE",
"342 -22 OFFCURVE",
"782 -22 CURVE SMOOTH",
"961 -22 OFFCURVE",
"1082 36 OFFCURVE",
"1158 86 CURVE SMOOTH",
"1193 109 OFFCURVE",
"1206 135 OFFCURVE",
"1206 157 CURVE SMOOTH",
"1206 189 OFFCURVE",
"1179 214 OFFCURVE",
"1146 214 CURVE SMOOTH",
"1134 214 OFFCURVE",
"1122 210 OFFCURVE",
"1110 203 CURVE SMOOTH",
"1020 149 OFFCURVE",
"935 107 OFFCURVE",
"801 107 CURVE SMOOTH",
"428 107 OFFCURVE",
"303 409 OFFCURVE",
"303 702 CURVE SMOOTH",
"303 994 OFFCURVE",
"433 1301 OFFCURVE",
"797 1301 CURVE SMOOTH",
"982 1301 OFFCURVE",
"1053 1252 OFFCURVE",
"1092 1231 CURVE SMOOTH",
"1104 1225 OFFCURVE",
"1115 1222 OFFCURVE",
"1125 1222 CURVE SMOOTH",
"1159 1222 OFFCURVE",
"1181 1252 OFFCURVE",
"1181 1283 CURVE SMOOTH",
"1181 1302 OFFCURVE",
"1172 1322 OFFCURVE",
"1152 1334 CURVE SMOOTH",
"1115 1357 OFFCURVE",
"1006 1430 OFFCURVE",
"794 1430 CURVE SMOOTH"
);
}
);
width = 1354;
},
{
anchors = (
{
name = bottom;
position = "{770, 6}";
},
{
name = top;
position = "{785, 1438}";
}
);
layerId = "334510DF-EE69-4F45-9EE4-32E3392006F4";
paths = (
{
closed = 1;
nodes = (
"373 1450 OFFCURVE",
"123 1120 OFFCURVE",
"123 709 CURVE SMOOTH",
"123 299 OFFCURVE",
"362 -22 OFFCURVE",
"784 -22 CURVE SMOOTH",
"971 -22 OFFCURVE",
"1092 31 OFFCURVE",
"1178 87 CURVE SMOOTH",
"1214 110 OFFCURVE",
"1228 138 OFFCURVE",
"1228 165 CURVE SMOOTH",
"1228 206 OFFCURVE",
"1194 242 OFFCURVE",
"1153 242 CURVE SMOOTH",
"1141 242 OFFCURVE",
"1128 238 OFFCURVE",
"1115 231 CURVE SMOOTH",
"1031 183 OFFCURVE",
"945 140 OFFCURVE",
"814 140 CURVE SMOOTH",
"475 140 OFFCURVE",
"337 401 OFFCURVE",
"337 712 CURVE SMOOTH",
"337 1023 OFFCURVE",
"477 1288 OFFCURVE",
"808 1288 CURVE SMOOTH",
"977 1288 OFFCURVE",
"1053 1237 OFFCURVE",
"1098 1216 CURVE SMOOTH",
"1109 1211 OFFCURVE",
"1120 1208 OFFCURVE",
"1131 1208 CURVE SMOOTH",
"1174 1208 OFFCURVE",
"1206 1247 OFFCURVE",
"1206 1288 CURVE SMOOTH",
"1206 1314 OFFCURVE",
"1193 1340 OFFCURVE",
"1162 1357 CURVE SMOOTH",
"1092 1396 OFFCURVE",
"978 1450 OFFCURVE",
"801 1450 CURVE SMOOTH"
);
}
);
width = 1354;
},
{
anchors = (
{
name = bottom;
position = "{774, 4}";
},
{
name = top;
position = "{784, 1438}";
}
);
layerId = "F812A762-7E77-4DA4-9A10-AD66CDB59C76";
paths = (
{
closed = 1;
nodes = (
"388 1462 OFFCURVE",
"118 1148 OFFCURVE",
"118 715 CURVE SMOOTH",
"118 292 OFFCURVE",
"374 -22 OFFCURVE",
"785 -22 CURVE SMOOTH",
"977 -22 OFFCURVE",
"1097 28 OFFCURVE",
"1190 87 CURVE SMOOTH",
"1226.11 110.187 OFFCURVE",
"1240.71 141.274 OFFCURVE",
"1240.71 170.63 CURVE SMOOTH",
"1240.71 216.874 OFFCURVE",
"1204.47 258.821 OFFCURVE",
"1159.01 258.821 CURVE SMOOTH",
"1146.2 258.821 OFFCURVE",
"1132.67 255.494 OFFCURVE",
"1119 248 CURVE SMOOTH",
"1037 203 OFFCURVE",
"951 159 OFFCURVE",
"823 159 CURVE SMOOTH",
"503 159 OFFCURVE",
"358 395 OFFCURVE",
"358 718 CURVE SMOOTH",
"358 1040 OFFCURVE",
"504 1281 OFFCURVE",
"814 1281 CURVE SMOOTH",
"974 1281 OFFCURVE",
"1054 1228 OFFCURVE",
"1101 1207 CURVE SMOOTH",
"1112.07 1202.24 OFFCURVE",
"1123.06 1200.08 OFFCURVE",
"1133.64 1200.08 CURVE SMOOTH",
"1182.03 1200.08 OFFCURVE",
"1221.82 1245.18 OFFCURVE",
"1221.82 1291.89 CURVE SMOOTH",
"1221.82 1320.72 OFFCURVE",
"1206.66 1350.16 OFFCURVE",
"1169 1370 CURVE SMOOTH",
"1078 1419 OFFCURVE",
"961 1462 OFFCURVE",
"806 1462 CURVE SMOOTH"
);
}
);
width = 1354;
},
{
anchors = (
{
name = bottom;
position = "{777, 2}";
},
{
name = top;
position = "{784, 1438}";
}
);
layerId = "04B13600-F055-45EE-B953-7859ECDADD08";
paths = (
{
closed = 1;
nodes = (
"400 1472 OFFCURVE",
"114 1171 OFFCURVE",
"114 719 CURVE SMOOTH",
"114 285 OFFCURVE",
"384 -22 OFFCURVE",
"786 -22 CURVE SMOOTH",
"982 -22 OFFCURVE",
"1102 26 OFFCURVE",
"1200 88 CURVE SMOOTH",
"1236.93 111.41 OFFCURVE",
"1252.01 144.17 OFFCURVE",
"1252.01 175.668 CURVE SMOOTH",
"1252.01 226.327 OFFCURVE",
"1213.01 273.724 OFFCURVE",
"1163.2 273.724 CURVE SMOOTH",
"1150.05 273.724 OFFCURVE",
"1136.14 270.42 OFFCURVE",
"1122 263 CURVE SMOOTH",
"1043 221 OFFCURVE",
"956 176 OFFCURVE",
"830 176 CURVE SMOOTH",
"528 176 OFFCURVE",
"376 391 OFFCURVE",
"376 724 CURVE SMOOTH",
"376 1055 OFFCURVE",
"527 1274 OFFCURVE",
"820 1274 CURVE SMOOTH",
"972 1274 OFFCURVE",
"1054 1220 OFFCURVE",
"1104 1199 CURVE SMOOTH",
"1114.82 1194.58 OFFCURVE",
"1125.68 1192.57 OFFCURVE",
"1136.26 1192.57 CURVE SMOOTH",
"1189.07 1192.57 OFFCURVE",
"1234.97 1242.74 OFFCURVE",
"1234.97 1294.88 CURVE SMOOTH",
"1234.97 1326.9 OFFCURVE",
"1217.66 1359.66 OFFCURVE",
"1174 1382 CURVE SMOOTH",
"1066 1439 OFFCURVE",
"946 1472 OFFCURVE",
"810 1472 CURVE SMOOTH"
);
}
);
width = 1354;
},
{
anchors = (
{
name = bottom;
position = "{783, 0}";
},
{
name = top;
position = "{792, 1438}";
}
);
layerId = "A4C065E6-C319-4A8F-B4BD-A6F28D5DCD95";
paths = (
{
closed = 1;
nodes = (
"412 1483 OFFCURVE",
"108 1193 OFFCURVE",
"108 720 CURVE SMOOTH",
"108 266 OFFCURVE",
"400 -26 OFFCURVE",
"794 -26 CURVE SMOOTH",
"993 -26 OFFCURVE",
"1118 22 OFFCURVE",
"1221 91 CURVE SMOOTH",
"1261 119 OFFCURVE",
"1277 156 OFFCURVE",
"1277 192 CURVE SMOOTH",
"1277 250 OFFCURVE",
"1234 304 OFFCURVE",
"1179 304 CURVE SMOOTH",
"1165 304 OFFCURVE",
"1152 301 OFFCURVE",
"1137 293 CURVE SMOOTH",
"1056 249 OFFCURVE",
"958 206 OFFCURVE",
"839 206 CURVE SMOOTH",
"560 206 OFFCURVE",
"410 395 OFFCURVE",
"410 727 CURVE SMOOTH",
"410 1085 OFFCURVE",
"569 1250 OFFCURVE",
"833 1250 CURVE SMOOTH",
"970 1250 OFFCURVE",
"1057 1200 OFFCURVE",
"1114 1177 CURVE SMOOTH",
"1127 1172 OFFCURVE",
"1139 1169 OFFCURVE",
"1152 1169 CURVE SMOOTH",
"1212 1169 OFFCURVE",
"1263 1226 OFFCURVE",
"1263 1287 CURVE SMOOTH",
"1263 1325 OFFCURVE",
"1243 1364 OFFCURVE",
"1194 1391 CURVE",
"1084 1446 OFFCURVE",
"963 1483 OFFCURVE",
"819 1483 CURVE SMOOTH"
);
}
);
width = 1364;
},
{
anchors = (
{
name = bottom;
position = "{789, 0}";
},
{
name = top;
position = "{805, 1438}";
}
);
layerId = "8F6BE840-9356-4940-A488-AC64157678BA";
paths = (
{
closed = 1;
nodes = (
"416 1484 OFFCURVE",
"106 1196 OFFCURVE",
"106 718 CURVE SMOOTH",
"106 252 OFFCURVE",
"410 -30 OFFCURVE",
"805 -30 CURVE SMOOTH",
"1005 -30 OFFCURVE",
"1136 20 OFFCURVE",
"1241 93 CURVE SMOOTH",
"1285.83 125.302 OFFCURVE",
"1303.71 165.969 OFFCURVE",
"1303.71 203.972 CURVE SMOOTH",
"1303.71 265.932 OFFCURVE",
"1256.17 320.81 OFFCURVE",
"1200.36 320.81 CURVE SMOOTH",
"1186.55 320.81 OFFCURVE",
"1172.23 317.448 OFFCURVE",
"1158 310 CURVE SMOOTH",
"1068 262 OFFCURVE",
"954 222 OFFCURVE",
"843 222 CURVE SMOOTH",
"579 222 OFFCURVE",
"440 403 OFFCURVE",
"440 725 CURVE SMOOTH",
"440 1102 OFFCURVE",
"607 1232 OFFCURVE",
"845 1232 CURVE SMOOTH",
"970 1232 OFFCURVE",
"1062 1186 OFFCURVE",
"1124 1161 CURVE SMOOTH",
"1140.78 1154.07 OFFCURVE",
"1157.05 1150.94 OFFCURVE",
"1172.43 1150.94 CURVE SMOOTH",
"1239.73 1150.94 OFFCURVE",
"1289.87 1210.92 OFFCURVE",
"1289.87 1275.01 CURVE SMOOTH",
"1289.87 1316.74 OFFCURVE",
"1268.61 1360.21 OFFCURVE",
"1217 1390 CURVE SMOOTH",
"1129 1437 OFFCURVE",
"1009 1484 OFFCURVE",
"829 1484 CURVE SMOOTH"
);
}
);
width = 1379;
},
{
anchors = (
{
name = bottom;
position = "{799, 0}";
},
{
name = top;
position = "{825, 1438}";
}
);
layerId = "E1B555A7-F4E1-459C-9C1A-AE952106EEF9";
paths = (
{
closed = 1;
nodes = (
"422 1487 OFFCURVE",
"102 1201 OFFCURVE",
"102 712 CURVE SMOOTH",
"102 225 OFFCURVE",
"425 -38 OFFCURVE",
"820 -38 CURVE SMOOTH",
"1021 -38 OFFCURVE",
"1163 17 OFFCURVE",
"1270 99 CURVE SMOOTH",
"1322 139 OFFCURVE",
"1342 186 OFFCURVE",
"1342 228 CURVE SMOOTH",
"1342 298 OFFCURVE",
"1288 356 OFFCURVE",
"1230 356 CURVE SMOOTH",
"1216 356 OFFCURVE",
"1202 353 OFFCURVE",
"1189 346 CURVE SMOOTH",
"1086 288 OFFCURVE",
"948 254 OFFCURVE",
"850 254 CURVE SMOOTH",
"606 254 OFFCURVE",
"484 419 OFFCURVE",
"484 722 CURVE SMOOTH",
"484 1136 OFFCURVE",
"661 1195 OFFCURVE",
"863 1195 CURVE SMOOTH",
"970 1195 OFFCURVE",
"1070 1159 OFFCURVE",
"1139 1129 CURVE SMOOTH",
"1161 1119 OFFCURVE",
"1182 1115 OFFCURVE",
"1202 1115 CURVE SMOOTH",
"1278 1115 OFFCURVE",
"1328 1181 OFFCURVE",
"1328 1253 CURVE SMOOTH",
"1328 1302 OFFCURVE",
"1305 1353 OFFCURVE",
"1252 1388 CURVE",
"1194 1418 OFFCURVE",
"1076 1487 OFFCURVE",
"842 1487 CURVE SMOOTH"
);
}
);
width = 1401;
}
);
unicode = 0043;
userData = {
anchors = (
);
b = {
};
com.typemytype.robofont.layerData = {
b = {
anchors = (
);
components = (
);
contours = (
);
lib = {
};
name = C;
unicodes = (
);
width = 1353.8900;
};
};
components = (
);
contours = (
);
lib = {
};
name = C;
unicodes = (
);
width = 1354;
};
},
{
glyphname = D;
lastChange = "2016-08-02 17:46:46 +0000";
layers = (
{
anchors = (
{
name = bottom;
position = "{739, 0}";
},
{
name = center;
position = "{739, 710}";
},
{
name = mid;
position = "{296, 698}";
},
{
name = top;
position = "{794, 1438}";
}
);
layerId = "9E718F8A-2CEA-4931-B05D-987794BD97DA";
paths = (
{
closed = 1;
nodes = (
"244 1425 LINE SMOOTH",
"209 1425 OFFCURVE",
"181 1398 OFFCURVE",
"181 1366 CURVE SMOOTH",
"181 66 LINE SMOOTH",
"181 34 OFFCURVE",
"209 6 OFFCURVE",
"244 6 CURVE SMOOTH",
"574 6 LINE SMOOTH",
"1060 6 OFFCURVE",
"1336 246 OFFCURVE",
"1336 715 CURVE SMOOTH",
"1336 1185 OFFCURVE",
"1064 1425 OFFCURVE",
"581 1425 CURVE SMOOTH"
);
},
{
closed = 1;
nodes = (
"306 105 LINE",
"306 1327 LINE",
"535 1327 LINE SMOOTH",
"987 1327 OFFCURVE",
"1206 1159 OFFCURVE",
"1206 715 CURVE SMOOTH",
"1206 326 OFFCURVE",
"1038 105 OFFCURVE",
"575 105 CURVE SMOOTH"
);
}
);
width = 1477;
},
{
anchors = (
{
name = bottom;
position = "{747, 0}";
},
{
name = center;
position = "{747, 712}";
},
{
name = mid;
position = "{298, 708}";
},
{
name = top;
position = "{747, 1424}";
}
);
layerId = "5FCC6278-3A1D-4B2B-A133-84AE53360430";
paths = (
{
closed = 1;
nodes = (
"260 1424 LINE SMOOTH",
"215 1424 OFFCURVE",
"179 1388 OFFCURVE",
"179 1346 CURVE SMOOTH",
"179 78 LINE SMOOTH",
"179 35 OFFCURVE",
"215 0 OFFCURVE",
"260 0 CURVE SMOOTH",
"600 0 LINE SMOOTH",
"1083 0 OFFCURVE",
"1361 242 OFFCURVE",
"1361 709 CURVE SMOOTH",
"1361 1178 OFFCURVE",
"1091 1424 OFFCURVE",
"599 1424 CURVE SMOOTH"
);
},
{
closed = 1;
nodes = (
"341 128 LINE",
"341 1295 LINE",
"568 1295 LINE SMOOTH",
"989 1295 OFFCURVE",
"1192 1136 OFFCURVE",
"1192 711 CURVE SMOOTH",
"1192 334 OFFCURVE",
"1039 128 OFFCURVE",
"605 128 CURVE SMOOTH"
);
}
);
width = 1493;
},
{
anchors = (
{
name = bottom;
position = "{755, 0}";
},
{
name = center;
position = "{755, 715}";
},
{
name = mid;
position = "{300, 729}";
},
{
name = top;
position = "{768, 1438}";
}
);
layerId = "334510DF-EE69-4F45-9EE4-32E3392006F4";
paths = (
{
closed = 1;
nodes = (
"278 1432 LINE SMOOTH",
"222 1432 OFFCURVE",
"177 1388 OFFCURVE",
"177 1334 CURVE SMOOTH",
"177 101 LINE SMOOTH",
"177 47 OFFCURVE",
"222 3 OFFCURVE",
"278 3 CURVE SMOOTH",
"628 3 LINE SMOOTH",
"1108 3 OFFCURVE",
"1387 249 OFFCURVE",
"1387 714 CURVE SMOOTH",
"1387 1181 OFFCURVE",
"1121 1432 OFFCURVE",
"619 1432 CURVE SMOOTH"
);
},
{
closed = 1;
nodes = (
"379 163 LINE",
"379 1271 LINE",
"604 1271 LINE SMOOTH",
"991 1271 OFFCURVE",
"1177 1123 OFFCURVE",
"1177 717 CURVE SMOOTH",
"1177 352 OFFCURVE",
"1041 163 OFFCURVE",
"638 163 CURVE SMOOTH"
);
}
);
width = 1509;
},
{
anchors = (
{
name = bottom;
position = "{760, 0}";
},
{
name = center;
position = "{760, 717}";
},
{
name = mid;
position = "{302, 739}";
},
{
name = top;
position = "{759, 1438}";
}
);
layerId = "F812A762-7E77-4DA4-9A10-AD66CDB59C76";
paths = (
{
closed = 1;
nodes = (
"289 1434 LINE SMOOTH",
"226 1434 OFFCURVE",
"175 1384 OFFCURVE",
"175 1323 CURVE SMOOTH",
"175 112 LINE SMOOTH",
"175 51 OFFCURVE",
"226 2 OFFCURVE",
"289 2 CURVE SMOOTH",
"645 2 LINE SMOOTH",
"1124 2 OFFCURVE",
"1403 250 OFFCURVE",
"1403 713 CURVE SMOOTH",
"1403 1179 OFFCURVE",
"1139 1434 OFFCURVE",
"632 1434 CURVE SMOOTH"
);
},
{
closed = 1;
nodes = (
"402 182 LINE",
"402 1254 LINE",
"626 1254 LINE SMOOTH",
"993 1254 OFFCURVE",
"1168 1111 OFFCURVE",
"1168 717 CURVE SMOOTH",
"1168 361 OFFCURVE",
"1042 182 OFFCURVE",
"658 182 CURVE SMOOTH"
);
}
);
width = 1519;
},
{
anchors = (
{
name = bottom;
position = "{764, 0}";
},
{
name = center;
position = "{764, 718}";
},
{
name = mid;
position = "{303, 747}";
},
{
name = top;
position = "{752, 1438}";
}
);
layerId = "04B13600-F055-45EE-B953-7859ECDADD08";
paths = (
{
closed = 1;
nodes = (
"298 1436 LINE SMOOTH",
"230 1436 OFFCURVE",
"174 1381 OFFCURVE",
"174 1314 CURVE SMOOTH",
"174 122 LINE SMOOTH",
"174 55 OFFCURVE",
"230 1 OFFCURVE",
"298 1 CURVE SMOOTH",
"660 1 LINE SMOOTH",
"1137 1 OFFCURVE",
"1417 251 OFFCURVE",
"1417 713 CURVE SMOOTH",
"1417 1178 OFFCURVE",
"1155 1436 OFFCURVE",
"642 1436 CURVE SMOOTH"
);
},
{
closed = 1;
nodes = (
"422 198 LINE",
"422 1239 LINE",
"645 1239 LINE SMOOTH",
"994 1239 OFFCURVE",
"1160 1101 OFFCURVE",
"1160 718 CURVE SMOOTH",
"1160 368 OFFCURVE",
"1042 198 OFFCURVE",
"675 198 CURVE SMOOTH"
);
}
);
width = 1528;
},
{
anchors = (
{
name = bottom;
position = "{769, 0}";
},
{
name = center;
position = "{769, 721}";
},
{
name = mid;
position = "{312, 750}";
},
{
name = top;
position = "{746, 1438}";
}
);
layerId = "A4C065E6-C319-4A8F-B4BD-A6F28D5DCD95";
paths = (
{
closed = 1;
nodes = (
"326 1442 LINE SMOOTH",
"229 1442 OFFCURVE",
"168 1378 OFFCURVE",
"168 1273 CURVE SMOOTH",
"168 168 LINE SMOOTH",
"168 79 OFFCURVE",
"224 0 OFFCURVE",
"311 0 CURVE SMOOTH",
"667 0 LINE SMOOTH",
"1152 0 OFFCURVE",
"1431 250 OFFCURVE",
"1431 714 CURVE SMOOTH",
"1431 1184 OFFCURVE",
"1166 1442 OFFCURVE",
"644 1442 CURVE SMOOTH"
);
},
{
closed = 1;
nodes = (
"454 221 LINE",
"454 1220 LINE",
"656 1220 LINE SMOOTH",
"983 1220 OFFCURVE",
"1133 1090 OFFCURVE",
"1133 720 CURVE SMOOTH",
"1133 372 OFFCURVE",
"1021 221 OFFCURVE",
"677 221 CURVE SMOOTH"
);
}
);
width = 1537;
},
{
anchors = (
{
name = bottom;
position = "{770, 0}";
},
{
name = center;
position = "{770, 723}";
},
{
name = mid;
position = "{324, 744}";
},
{
name = top;
position = "{746, 1438}";
}
);
layerId = "8F6BE840-9356-4940-A488-AC64157678BA";
paths = (
{
closed = 1;
nodes = (
"357 1446 LINE SMOOTH",
"224 1446 OFFCURVE",
"161 1377 OFFCURVE",
"161 1240 CURVE SMOOTH",
"161 205 LINE SMOOTH",
"161 100 OFFCURVE",
"210 0 OFFCURVE",
"320 0 CURVE SMOOTH",
"658 0 LINE SMOOTH",
"1158 0 OFFCURVE",
"1435 248 OFFCURVE",
"1435 715 CURVE SMOOTH",
"1435 1191 OFFCURVE",
"1163 1446 OFFCURVE",
"633 1446 CURVE SMOOTH"
);
},
{
closed = 1;
nodes = (
"479 231 LINE",
"479 1214 LINE",
"648 1214 LINE SMOOTH",
"963 1214 OFFCURVE",
"1101 1087 OFFCURVE",
"1101 722 CURVE SMOOTH",
"1101 370 OFFCURVE",
"985 231 OFFCURVE",
"657 231 CURVE SMOOTH"
);
}
);
width = 1539;
},
{
anchors = (
{
name = bottom;
position = "{772, 0}";
},
{
name = center;
position = "{772, 728}";
},
{
name = mid;
position = "{341, 734}";
},
{
name = top;
position = "{746, 1438}";
}
);
layerId = "E1B555A7-F4E1-459C-9C1A-AE952106EEF9";
paths = (
{
closed = 1;
nodes = (
"402 1455 LINE SMOOTH",
"215 1455 OFFCURVE",
"150 1374 OFFCURVE",
"150 1173 CURVE SMOOTH",
"150 280 LINE SMOOTH",
"150 142 OFFCURVE",
"189 0 OFFCURVE",
"332 0 CURVE SMOOTH",
"646 0 LINE SMOOTH",
"1168 0 OFFCURVE",
"1441 244 OFFCURVE",
"1441 717 CURVE SMOOTH",
"1441 1205 OFFCURVE",
"1158 1455 OFFCURVE",
"617 1455 CURVE SMOOTH"
);
},
{
closed = 1;
nodes = (
"514 251 LINE",
"514 1202 LINE",
"637 1202 LINE SMOOTH",
"935 1202 OFFCURVE",
"1055 1081 OFFCURVE",
"1055 726 CURVE SMOOTH",
"1055 366 OFFCURVE",
"933 251 OFFCURVE",
"628 251 CURVE SMOOTH"
);
}
);
width = 1543;
}
);
unicode = 0044;
userData = {
anchors = (
);
b = {
};
com.typemytype.robofont.layerData = {
b = {
anchors = (
);
components = (
);
contours = (
{
points = (
{
segmentType = curve;
smooth = 1;
x = 266;
y = 0;
},
{
segmentType = line;
smooth = 1;
x = 1035;
y = 0;
},
{
smooth = 0;
x = 1084;
y = 0;
},
{
smooth = 0;
x = 1108;
y = 34;
},
{
segmentType = curve;
smooth = 1;
x = 1108;
y = 71;
},
{
smooth = 0;
x = 1108;
y = 107;
},
{
smooth = 0;
x = 1084;
y = 141;
},
{
segmentType = curve;
smooth = 1;
x = 1035;
y = 141;
},
{
segmentType = line;
smooth = 0;
x = 356;
y = 141;
},
{
segmentType = line;
smooth = 0;
x = 356;
y = 665;
},
{
segmentType = line;
smooth = 1;
x = 975;
y = 665;
},
{
smooth = 0;
x = 1024;
y = 665;
},
{
smooth = 0;
x = 1049;
y = 698;
},
{
segmentType = curve;
smooth = 1;
x = 1049;
y = 734;
},
{
smooth = 0;
x = 1049;
y = 770;
},
{
smooth = 0;
x = 1026;
y = 803;
},
{
segmentType = curve;
smooth = 1;
x = 975;
y = 803;
},
{
segmentType = line;
smooth = 0;
x = 356;
y = 803;
},
{
segmentType = line;
smooth = 0;
x = 356;
y = 1285;
},
{
segmentType = line;
smooth = 1;
x = 1007;
y = 1285;
},
{
smooth = 0;
x = 1056;
y = 1285;
},
{
smooth = 0;
x = 1080;
y = 1319;
},
{
segmentType = curve;
smooth = 1;
x = 1080;
y = 1356;
},
{
smooth = 0;
x = 1080;
y = 1392;
},
{
smooth = 0;
x = 1056;
y = 1426;
},
{
segmentType = curve;
smooth = 1;
x = 1007;
y = 1426;
},
{
segmentType = line;
smooth = 1;
x = 261;
y = 1426;
},
{
smooth = 0;
x = 213;
y = 1426;
},
{
smooth = 0;
x = 178;
y = 1383;
},
{
segmentType = curve;
smooth = 1;
x = 178;
y = 1340;
},
{
segmentType = line;
smooth = 1;
x = 178;
y = 86;
},
{
smooth = 0;
x = 178;
y = 41;
},
{
smooth = 0;
x = 222;
y = 0;
}
);
}
);
lib = {
};
name = D;
unicodes = (
);
width = 1499;
};
};
components = (
);
contours = (
);
lib = {
};
name = D;
unicodes = (
);
width = 1535;
};
},
{
glyphname = Dcroat;
lastChange = "2016-08-02 16:24:46 +0000";
layers = (
{
components = (
{
name = D;
}
);
layerId = "9E718F8A-2CEA-4931-B05D-987794BD97DA";
paths = (
{
closed = 1;
nodes = (
"55 765 LINE SMOOTH",
"21 765 OFFCURVE",
"-1 747 OFFCURVE",
"-1 718 CURVE SMOOTH",
"-1 691 OFFCURVE",
"24 674 OFFCURVE",
"62 674 CURVE SMOOTH",
"529 674 LINE SMOOTH",
"563 674 OFFCURVE",
"584 691 OFFCURVE",
"584 718 CURVE SMOOTH",
"584 747 OFFCURVE",
"563 765 OFFCURVE",
"529 765 CURVE SMOOTH"
);
}
);
width = 1486;
},
{
components = (
{
name = D;
}
);
layerId = "5FCC6278-3A1D-4B2B-A133-84AE53360430";
paths = (
{
closed = 1;
nodes = (
"66 778 LINE SMOOTH",
"24 778 OFFCURVE",
"-3 756 OFFCURVE",
"-3 721 CURVE SMOOTH",
"-3 687 OFFCURVE",
"25 666 OFFCURVE",
"68 666 CURVE SMOOTH",
"536 666 LINE SMOOTH",
"578 666 OFFCURVE",
"604 687 OFFCURVE",
"604 721 CURVE SMOOTH",
"604 756 OFFCURVE",
"578 778 OFFCURVE",
"536 778 CURVE SMOOTH"
);
}
);
width = 1495;
},
{
components = (
{
name = D;
}
);
layerId = "334510DF-EE69-4F45-9EE4-32E3392006F4";
paths = (
{
closed = 1;
nodes = (
"77 793 LINE SMOOTH",
"27 793 OFFCURVE",
"-6 766 OFFCURVE",
"-6 724 CURVE SMOOTH",
"-6 684 OFFCURVE",
"25 658 OFFCURVE",
"74 658 CURVE SMOOTH",
"543 658 LINE SMOOTH",
"594 658 OFFCURVE",
"625 684 OFFCURVE",
"625 724 CURVE SMOOTH",
"625 766 OFFCURVE",
"594 793 OFFCURVE",
"543 793 CURVE SMOOTH"
);
}
);
width = 1505;
},
{
components = (
{
name = D;
}
);
layerId = "F812A762-7E77-4DA4-9A10-AD66CDB59C76";
paths = (
{
closed = 1;
nodes = (
"84 802 LINE SMOOTH",
"28 802 OFFCURVE",
"-7 773 OFFCURVE",
"-7 726 CURVE SMOOTH",
"-7 682 OFFCURVE",
"26 653 OFFCURVE",
"78 653 CURVE SMOOTH",
"548 653 LINE SMOOTH",
"604 653 OFFCURVE",
"638 682 OFFCURVE",
"638 726 CURVE SMOOTH",
"638 773 OFFCURVE",
"604 802 OFFCURVE",
"548 802 CURVE SMOOTH"
);
}
);
width = 1511;
},
{
components = (
{
name = D;
}
);
layerId = "04B13600-F055-45EE-B953-7859ECDADD08";
paths = (
{
closed = 1;
nodes = (
"90 809 LINE SMOOTH",
"30 809 OFFCURVE",
"-8 778 OFFCURVE",
"-8 728 CURVE SMOOTH",
"-8 680 OFFCURVE",
"26 649 OFFCURVE",
"81 649 CURVE SMOOTH",
"552 649 LINE SMOOTH",
"612 649 OFFCURVE",
"650 680 OFFCURVE",
"650 728 CURVE SMOOTH",
"650 778 OFFCURVE",
"612 809 OFFCURVE",
"552 809 CURVE SMOOTH"
);
}
);
width = 1517;
},
{
components = (
{
name = D;
}
);
layerId = "A4C065E6-C319-4A8F-B4BD-A6F28D5DCD95";
paths = (
{
closed = 1;
nodes = (
"100 825 LINE SMOOTH",
"32 825 OFFCURVE",
"-11 789 OFFCURVE",
"-11 732 CURVE SMOOTH",
"-11 676 OFFCURVE",
"27 640 OFFCURVE",
"86 640 CURVE SMOOTH",
"558 640 LINE SMOOTH",
"626 640 OFFCURVE",
"668 676 OFFCURVE",
"668 732 CURVE SMOOTH",
"668 789 OFFCURVE",
"626 825 OFFCURVE",
"558 825 CURVE SMOOTH"
);
}
);
width = 1525;
},
{
components = (
{
name = D;
}
);
layerId = "8F6BE840-9356-4940-A488-AC64157678BA";
paths = (
{
closed = 1;
nodes = (
"108 834 LINE SMOOTH",
"34 834 OFFCURVE",
"-12 796 OFFCURVE",
"-12 734 CURVE SMOOTH",
"-12 673 OFFCURVE",
"27 635 OFFCURVE",
"91 635 CURVE SMOOTH",
"563 635 LINE SMOOTH",
"637 635 OFFCURVE",
"683 673 OFFCURVE",
"683 734 CURVE SMOOTH",
"683 796 OFFCURVE",
"637 834 OFFCURVE",
"563 834 CURVE SMOOTH"
);
}
);
width = 1532;
},
{
components = (
{
name = D;
}
);
layerId = "E1B555A7-F4E1-459C-9C1A-AE952106EEF9";
paths = (
{
closed = 1;
nodes = (
"120 853 LINE SMOOTH",
"37 853 OFFCURVE",
"-15 810 OFFCURVE",
"-15 739 CURVE SMOOTH",
"-15 668 OFFCURVE",
"28 625 OFFCURVE",
"97 625 CURVE SMOOTH",
"571 625 LINE SMOOTH",
"653 625 OFFCURVE",
"705 668 OFFCURVE",
"705 739 CURVE SMOOTH",
"705 810 OFFCURVE",
"653 853 OFFCURVE",
"571 853 CURVE SMOOTH"
);
}
);
width = 1543;
}
);
unicode = 0110;
},
{
glyphname = E;
lastChange = "2016-08-02 17:46:46 +0000";
layers = (
{
anchors = (
{
name = bottom;
position = "{631, -1}";
},
{
name = ogonek;
position = "{801, 9}";
},
{
name = top;
position = "{632, 1438}";
},
{
name = topleft;
position = "{20, 1419}";
}
);
layerId = "9E718F8A-2CEA-4931-B05D-987794BD97DA";
paths = (
{
closed = 1;
nodes = (
"306 99 LINE",
"306 684 LINE",
"966 684 LINE SMOOTH",
"1005 684 OFFCURVE",
"1024 705 OFFCURVE",
"1024 733 CURVE SMOOTH",
"1024 760 OFFCURVE",
"1007 781 OFFCURVE",
"966 781 CURVE SMOOTH",
"306 781 LINE",
"306 1320 LINE",
"994 1320 LINE SMOOTH",
"1033 1320 OFFCURVE",
"1052 1341 OFFCURVE",
"1052 1370 CURVE SMOOTH",
"1052 1398 OFFCURVE",
"1033 1419 OFFCURVE",
"994 1419 CURVE SMOOTH",
"238 1419 LINE SMOOTH",
"204 1419 OFFCURVE",
"181 1387 OFFCURVE",
"181 1359 CURVE SMOOTH",
"181 60 LINE SMOOTH",
"181 30 OFFCURVE",
"214 0 OFFCURVE",
"243 0 CURVE SMOOTH",
"1026 0 LINE SMOOTH",
"1064 0 OFFCURVE",
"1083 21 OFFCURVE",
"1083 51 CURVE SMOOTH",
"1083 79 OFFCURVE",
"1064 99 OFFCURVE",
"1026 99 CURVE SMOOTH"
);
}
);
width = 1220;
},
{
anchors = (
{
name = bottom;
position = "{547, 0}";
},
{
name = ogonek;
position = "{810, 9}";
},
{
name = top;
position = "{615, 1424}";
},
{
name = topleft;
position = "{20, 1424}";
}
);
layerId = "5FCC6278-3A1D-4B2B-A133-84AE53360430";
paths = (
{
closed = 1;
nodes = (
"341 128 LINE",
"341 671 LINE",
"972 671 LINE SMOOTH",
"1018 671 OFFCURVE",
"1042 700 OFFCURVE",
"1042 734 CURVE SMOOTH",
"1042 767 OFFCURVE",
"1020 797 OFFCURVE",
"972 797 CURVE SMOOTH",
"341 797 LINE",
"341 1296 LINE",
"1003 1296 LINE SMOOTH",
"1049 1296 OFFCURVE",
"1072 1325 OFFCURVE",
"1072 1360 CURVE SMOOTH",
"1072 1394 OFFCURVE",
"1049 1424 OFFCURVE",
"1003 1424 CURVE SMOOTH",
"254 1424 LINE SMOOTH",
"210 1424 OFFCURVE",
"179 1384 OFFCURVE",
"179 1346 CURVE SMOOTH",
"179 78 LINE SMOOTH",
"179 38 OFFCURVE",
"219 0 OFFCURVE",
"259 0 CURVE SMOOTH",
"1032 0 LINE SMOOTH",
"1078 0 OFFCURVE",
"1101 30 OFFCURVE",
"1101 65 CURVE SMOOTH",
"1101 99 OFFCURVE",
"1078 128 OFFCURVE",
"1032 128 CURVE SMOOTH"
);
}
);
width = 1230;
},
{
anchors = (
{
name = bottom;
position = "{660, 0}";
},
{
name = ogonek;
position = "{820, 9}";
},
{
name = top;
position = "{651, 1438}";
},
{
name = topleft;
position = "{20, 1429}";
}
);
layerId = "334510DF-EE69-4F45-9EE4-32E3392006F4";
paths = (
{
closed = 1;
nodes = (
"379 161 LINE",
"379 656 LINE",
"979 656 LINE SMOOTH",
"1033 656 OFFCURVE",
"1060 695 OFFCURVE",
"1060 735 CURVE SMOOTH",
"1060 774 OFFCURVE",
"1035 813 OFFCURVE",
"979 813 CURVE SMOOTH",
"379 813 LINE",
"379 1268 LINE",
"1013 1268 LINE SMOOTH",
"1067 1268 OFFCURVE",
"1093 1309 OFFCURVE",
"1093 1349 CURVE SMOOTH",
"1093 1389 OFFCURVE",
"1067 1429 OFFCURVE",
"1013 1429 CURVE SMOOTH",
"272 1429 LINE SMOOTH",
"217 1429 OFFCURVE",
"177 1381 OFFCURVE",
"177 1331 CURVE SMOOTH",
"177 98 LINE SMOOTH",
"177 46 OFFCURVE",
"226 0 OFFCURVE",
"277 0 CURVE SMOOTH",
"1039 0 LINE SMOOTH",
"1093 0 OFFCURVE",
"1119 40 OFFCURVE",
"1119 80 CURVE SMOOTH",
"1119 120 OFFCURVE",
"1093 161 OFFCURVE",
"1039 161 CURVE SMOOTH"
);
}
);
width = 1241;
},
{
anchors = (
{
name = bottom;
position = "{669, 1}";
},
{
name = ogonek;
position = "{826, 9}";
},
{
name = top;
position = "{657, 1438}";
},
{
name = topleft;
position = "{20, 1433}";
}
);
layerId = "F812A762-7E77-4DA4-9A10-AD66CDB59C76";
paths = (
{
closed = 1;
nodes = (
"402 180 LINE",
"402 647 LINE",
"983 647 LINE SMOOTH",
"1042 647 OFFCURVE",
"1072 692 OFFCURVE",
"1072 735 CURVE SMOOTH",
"1072 779 OFFCURVE",
"1044 823 OFFCURVE",
"983 823 CURVE SMOOTH",
"402 823 LINE",
"402 1252 LINE",
"1019 1252 LINE SMOOTH",
"1078 1252 OFFCURVE",
"1106 1299 OFFCURVE",
"1106 1343 CURVE SMOOTH",
"1106 1386 OFFCURVE",
"1078 1433 OFFCURVE",
"1019 1433 CURVE SMOOTH",
"283 1433 LINE SMOOTH",
"221 1433 OFFCURVE",
"175 1380 OFFCURVE",
"175 1323 CURVE SMOOTH",
"175 110 LINE SMOOTH",
"175 52 OFFCURVE",
"230 0 OFFCURVE",
"287 0 CURVE SMOOTH",
"1043 0 LINE SMOOTH",
"1102 0 OFFCURVE",
"1131 46 OFFCURVE",
"1131 89 CURVE SMOOTH",
"1131 133 OFFCURVE",
"1102 180 OFFCURVE",
"1043 180 CURVE SMOOTH"
);
}
);
width = 1247;
},
{
anchors = (
{
name = bottom;
position = "{677, 1}";
},
{
name = ogonek;
position = "{831, 9}";
},
{
name = top;
position = "{662, 1438}";
},
{
name = topleft;
position = "{20, 1436}";
}
);
layerId = "04B13600-F055-45EE-B953-7859ECDADD08";
paths = (
{
closed = 1;
nodes = (
"422 197 LINE",
"422 639 LINE",
"987 639 LINE SMOOTH",
"1050 639 OFFCURVE",
"1082 689 OFFCURVE",
"1082 736 CURVE SMOOTH",
"1082 783 OFFCURVE",
"1052 832 OFFCURVE",
"987 832 CURVE SMOOTH",
"422 832 LINE",
"422 1238 LINE",
"1024 1238 LINE SMOOTH",
"1087 1238 OFFCURVE",
"1118 1290 OFFCURVE",
"1118 1337 CURVE SMOOTH",
"1118 1384 OFFCURVE",
"1087 1436 OFFCURVE",
"1024 1436 CURVE SMOOTH",
"292 1436 LINE SMOOTH",
"225 1436 OFFCURVE",
"174 1378 OFFCURVE",
"174 1315 CURVE SMOOTH",
"174 120 LINE SMOOTH",
"174 56 OFFCURVE",
"233 0 OFFCURVE",
"296 0 CURVE SMOOTH",
"1047 0 LINE SMOOTH",
"1110 0 OFFCURVE",
"1141 51 OFFCURVE",
"1141 97 CURVE SMOOTH",
"1141 145 OFFCURVE",
"1110 197 OFFCURVE",
"1047 197 CURVE SMOOTH"
);
}
);
width = 1253;
},
{
anchors = (
{
name = bottom;
position = "{683, 1}";
},
{
name = ogonek;
position = "{835, 9}";
},
{
name = top;
position = "{666, 1438}";
},
{
name = topleft;
position = "{20, 1442}";
}
);
layerId = "A4C065E6-C319-4A8F-B4BD-A6F28D5DCD95";
paths = (
{
closed = 1;
nodes = (
"453 225 LINE",
"453 626 LINE",
"988 626 LINE SMOOTH",
"1056 626 OFFCURVE",
"1096 681 OFFCURVE",
"1096 737 CURVE SMOOTH",
"1096 793 OFFCURVE",
"1058 848 OFFCURVE",
"988 848 CURVE SMOOTH",
"453 848 LINE",
"453 1216 LINE",
"1027 1216 LINE SMOOTH",
"1096 1216 OFFCURVE",
"1134 1273 OFFCURVE",
"1134 1329 CURVE SMOOTH",
"1134 1385 OFFCURVE",
"1096 1442 OFFCURVE",
"1027 1442 CURVE SMOOTH",
"316 1442 LINE SMOOTH",
"217 1442 OFFCURVE",
"168 1366 OFFCURVE",
"168 1273 CURVE SMOOTH",
"168 161 LINE SMOOTH",
"168 79 OFFCURVE",
"228 0 OFFCURVE",
"309 0 CURVE SMOOTH",
"1050 0 LINE SMOOTH",
"1118 0 OFFCURVE",
"1155 56 OFFCURVE",
"1155 112 CURVE SMOOTH",
"1155 168 OFFCURVE",
"1118 225 OFFCURVE",
"1050 225 CURVE SMOOTH"
);
}
);
width = 1256;
},
{
anchors = (
{
name = bottom;
position = "{682, 0}";
},
{
name = ogonek;
position = "{835, 9}";
},
{
name = top;
position = "{666, 1438}";
},
{
name = topleft;
position = "{20, 1446}";
}
);
layerId = "8F6BE840-9356-4940-A488-AC64157678BA";
paths = (
{
closed = 1;
nodes = (
"475 240 LINE",
"475 619 LINE",
"984 619 LINE SMOOTH",
"1056 619 OFFCURVE",
"1105 674 OFFCURVE",
"1105 737 CURVE SMOOTH",
"1105 800 OFFCURVE",
"1057 856 OFFCURVE",
"984 856 CURVE SMOOTH",
"475 856 LINE",
"475 1206 LINE",
"1026 1206 LINE SMOOTH",
"1098 1206 OFFCURVE",
"1146 1263 OFFCURVE",
"1146 1325 CURVE SMOOTH",
"1146 1389 OFFCURVE",
"1098 1446 OFFCURVE",
"1026 1446 CURVE SMOOTH",
"343 1446 LINE SMOOTH",
"200 1446 OFFCURVE",
"161 1355 OFFCURVE",
"161 1236 CURVE SMOOTH",
"161 193 LINE SMOOTH",
"161 98 OFFCURVE",
"214 0 OFFCURVE",
"318 0 CURVE SMOOTH",
"1049 0 LINE SMOOTH",
"1119 0 OFFCURVE",
"1165 56 OFFCURVE",
"1165 119 CURVE SMOOTH",
"1165 182 OFFCURVE",
"1119 240 OFFCURVE",
"1049 240 CURVE SMOOTH"
);
}
);
width = 1253;
},
{
anchors = (
{
name = bottom;
position = "{681, 0}";
},
{
name = ogonek;
position = "{835, 9}";
},
{
name = top;
position = "{666, 1438}";
},
{
name = topleft;
position = "{20, 1456}";
}
);
layerId = "E1B555A7-F4E1-459C-9C1A-AE952106EEF9";
paths = (
{
closed = 1;
nodes = (
"508 269 LINE",
"508 604 LINE",
"979 604 LINE SMOOTH",
"1056 604 OFFCURVE",
"1118 662 OFFCURVE",
"1118 738 CURVE SMOOTH",
"1118 815 OFFCURVE",
"1056 874 OFFCURVE",
"979 874 CURVE SMOOTH",
"508 874 LINE",
"508 1185 LINE",
"1024 1185 LINE SMOOTH",
"1101 1185 OFFCURVE",
"1163 1242 OFFCURVE",
"1163 1319 CURVE SMOOTH",
"1163 1395 OFFCURVE",
"1101 1455 OFFCURVE",
"1024 1455 CURVE SMOOTH",
"380 1455 LINE SMOOTH",
"175 1455 OFFCURVE",
"150 1333 OFFCURVE",
"150 1164 CURVE SMOOTH",
"150 256 LINE SMOOTH",
"150 136 OFFCURVE",
"195 0 OFFCURVE",
"329 0 CURVE SMOOTH",
"1049 0 LINE SMOOTH",
"1121 0 OFFCURVE",
"1178 57 OFFCURVE",
"1178 134 CURVE SMOOTH",
"1178 210 OFFCURVE",
"1121 269 OFFCURVE",
"1049 269 CURVE SMOOTH"
);
}
);
width = 1249;
}
);
unicode = 0045;
userData = {
anchors = (
);
b = {
};
com.typemytype.robofont.layerData = {
b = {
anchors = (
);
components = (
);
contours = (
);
lib = {
};
name = E;
unicodes = (
);
width = 1234;
};
};
components = (
);
contours = (
);
lib = {
};
name = E;
unicodes = (
);
width = 1258;
};
},
{
glyphname = F;
lastChange = "2016-08-02 17:46:46 +0000";
layers = (
{
anchors = (
{
name = bottom;
position = "{561, 0}";
},
{
name = top;
position = "{561, 1419}";
}
);
layerId = "9E718F8A-2CEA-4931-B05D-987794BD97DA";
paths = (
{
closed = 1;
nodes = (
"307 789 LINE",
"307 1320 LINE",
"953 1320 LINE SMOOTH",
"991 1320 OFFCURVE",
"1010 1341 OFFCURVE",
"1010 1370 CURVE SMOOTH",
"1010 1398 OFFCURVE",
"991 1419 OFFCURVE",
"953 1419 CURVE SMOOTH",
"239 1419 LINE SMOOTH",
"208 1419 OFFCURVE",
"182 1398 OFFCURVE",
"182 1362 CURVE SMOOTH",
"182 57 LINE SMOOTH",
"182 19 OFFCURVE",
"214 0 OFFCURVE",
"246 0 CURVE SMOOTH",
"276 0 OFFCURVE",
"307 17 OFFCURVE",
"307 57 CURVE SMOOTH",
"307 690 LINE",
"928 690 LINE SMOOTH",
"966 690 OFFCURVE",
"987 713 OFFCURVE",
"987 742 CURVE SMOOTH",
"987 770 OFFCURVE",
"966 789 OFFCURVE",
"928 789 CURVE SMOOTH"
);
}
);
width = 1122;
},
{
anchors = (
{
name = bottom;
position = "{568, 0}";
},
{
name = top;
position = "{568, 1424}";
}
);
layerId = "5FCC6278-3A1D-4B2B-A133-84AE53360430";
paths = (
{
closed = 1;
nodes = (
"341 803 LINE",
"341 1296 LINE",
"963 1296 LINE SMOOTH",
"1008 1296 OFFCURVE",
"1031 1325 OFFCURVE",
"1031 1360 CURVE SMOOTH",
"1031 1394 OFFCURVE",
"1008 1424 OFFCURVE",
"963 1424 CURVE SMOOTH",
"255 1424 LINE SMOOTH",
"214 1424 OFFCURVE",
"179 1394 OFFCURVE",
"179 1347 CURVE SMOOTH",
"179 76 LINE SMOOTH",
"179 25 OFFCURVE",
"220 0 OFFCURVE",
"261 0 CURVE SMOOTH",
"300 0 OFFCURVE",
"341 24 OFFCURVE",
"341 76 CURVE SMOOTH",
"341 676 LINE",
"937 676 LINE SMOOTH",
"983 676 OFFCURVE",
"1007 707 OFFCURVE",
"1007 741 CURVE SMOOTH",
"1007 775 OFFCURVE",
"983 803 OFFCURVE",
"937 803 CURVE SMOOTH"
);
}
);
width = 1136;
},
{
anchors = (
{
name = bottom;
position = "{576, 0}";
},
{
name = top;
position = "{576, 1429}";
}
);
layerId = "334510DF-EE69-4F45-9EE4-32E3392006F4";
paths = (
{
closed = 1;
nodes = (
"379 819 LINE",
"379 1268 LINE",
"974 1268 LINE SMOOTH",
"1028 1268 OFFCURVE",
"1054 1309 OFFCURVE",
"1054 1349 CURVE SMOOTH",
"1054 1389 OFFCURVE",
"1028 1429 OFFCURVE",
"974 1429 CURVE SMOOTH",
"273 1429 LINE SMOOTH",
"221 1429 OFFCURVE",
"176 1389 OFFCURVE",
"176 1331 CURVE SMOOTH",
"176 97 LINE SMOOTH",
"176 32 OFFCURVE",
"226 0 OFFCURVE",
"277 0 CURVE SMOOTH",
"328 0 OFFCURVE",
"379 31 OFFCURVE",
"379 97 CURVE SMOOTH",
"379 661 LINE",
"947 661 LINE SMOOTH",
"1001 661 OFFCURVE",
"1028 700 OFFCURVE",
"1028 741 CURVE SMOOTH",
"1028 780 OFFCURVE",
"1001 819 OFFCURVE",
"947 819 CURVE SMOOTH"
);
}
);
width = 1151;
},
{
anchors = (
{
name = bottom;
position = "{580, 0}";
},
{
name = top;
position = "{580, 1433}";
}
);
layerId = "F812A762-7E77-4DA4-9A10-AD66CDB59C76";
paths = (
{
closed = 1;
nodes = (
"401 828 LINE",
"401 1252 LINE",
"980 1252 LINE SMOOTH",
"1040 1252 OFFCURVE",
"1068 1299 OFFCURVE",
"1068 1343 CURVE SMOOTH",
"1068 1386 OFFCURVE",
"1040 1433 OFFCURVE",
"980 1433 CURVE SMOOTH",
"284 1433 LINE SMOOTH",
"225 1433 OFFCURVE",
"174 1386 OFFCURVE",
"174 1321 CURVE SMOOTH",
"174 109 LINE SMOOTH",
"174 36 OFFCURVE",
"229 0 OFFCURVE",
"287 0 CURVE SMOOTH",
"344 0 OFFCURVE",
"401 36 OFFCURVE",
"401 109 CURVE SMOOTH",
"401 652 LINE",
"953 652 LINE SMOOTH",
"1012 652 OFFCURVE",
"1041 696 OFFCURVE",
"1041 740 CURVE SMOOTH",
"1041 784 OFFCURVE",
"1012 828 OFFCURVE",
"953 828 CURVE SMOOTH"
);
}
);
width = 1160;
},
{
anchors = (
{
name = bottom;
position = "{584, 0}";
},
{
name = top;
position = "{584, 1436}";
}
);
layerId = "04B13600-F055-45EE-B953-7859ECDADD08";
paths = (
{
closed = 1;
nodes = (
"421 836 LINE",
"421 1238 LINE",
"986 1238 LINE SMOOTH",
"1050 1238 OFFCURVE",
"1080 1290 OFFCURVE",
"1080 1337 CURVE SMOOTH",
"1080 1384 OFFCURVE",
"1050 1436 OFFCURVE",
"986 1436 CURVE SMOOTH",
"293 1436 LINE SMOOTH",
"229 1436 OFFCURVE",
"172 1384 OFFCURVE",
"172 1313 CURVE SMOOTH",
"172 120 LINE SMOOTH",
"172 40 OFFCURVE",
"232 0 OFFCURVE",
"295 0 CURVE SMOOTH",
"358 0 OFFCURVE",
"421 40 OFFCURVE",
"421 120 CURVE SMOOTH",
"421 644 LINE",
"959 644 LINE SMOOTH",
"1022 644 OFFCURVE",
"1053 692 OFFCURVE",
"1053 740 CURVE SMOOTH",
"1053 787 OFFCURVE",
"1022 836 OFFCURVE",
"959 836 CURVE SMOOTH"
);
}
);
width = 1168;
},
{
anchors = (
{
name = bottom;
position = "{587, 0}";
},
{
name = top;
position = "{587, 1442}";
}
);
layerId = "A4C065E6-C319-4A8F-B4BD-A6F28D5DCD95";
paths = (
{
closed = 1;
nodes = (
"454 852 LINE",
"454 1216 LINE",
"994 1216 LINE SMOOTH",
"1062 1216 OFFCURVE",
"1099 1273 OFFCURVE",
"1099 1329 CURVE SMOOTH",
"1099 1385 OFFCURVE",
"1062 1442 OFFCURVE",
"994 1442 CURVE SMOOTH",
"318 1442 LINE SMOOTH",
"237 1442 OFFCURVE",
"167 1386 OFFCURVE",
"167 1294 CURVE SMOOTH",
"167 149 LINE SMOOTH",
"167 56 OFFCURVE",
"234 0 OFFCURVE",
"309 0 CURVE SMOOTH",
"384 0 OFFCURVE",
"454 56 OFFCURVE",
"454 149 CURVE SMOOTH",
"454 630 LINE",
"965 630 LINE SMOOTH",
"1033 630 OFFCURVE",
"1070 683 OFFCURVE",
"1070 741 CURVE SMOOTH",
"1070 797 OFFCURVE",
"1033 852 OFFCURVE",
"965 852 CURVE SMOOTH"
);
}
);
width = 1173;
},
{
anchors = (
{
name = bottom;
position = "{585, 0}";
},
{
name = top;
position = "{585, 1446}";
}
);
layerId = "8F6BE840-9356-4940-A488-AC64157678BA";
paths = (
{
closed = 1;
nodes = (
"481 860 LINE",
"481 1206 LINE",
"998 1206 LINE SMOOTH",
"1068 1206 OFFCURVE",
"1113 1263 OFFCURVE",
"1113 1325 CURVE SMOOTH",
"1113 1389 OFFCURVE",
"1068 1446 OFFCURVE",
"998 1446 CURVE SMOOTH",
"345 1446 LINE SMOOTH",
"246 1446 OFFCURVE",
"160 1390 OFFCURVE",
"160 1283 CURVE SMOOTH",
"160 169 LINE SMOOTH",
"160 69 OFFCURVE",
"233 0 OFFCURVE",
"319 0 CURVE SMOOTH",
"405 0 OFFCURVE",
"481 69 OFFCURVE",
"481 169 CURVE SMOOTH",
"481 623 LINE",
"969 623 LINE SMOOTH",
"1038 623 OFFCURVE",
"1084 678 OFFCURVE",
"1084 741 CURVE SMOOTH",
"1084 804 OFFCURVE",
"1038 860 OFFCURVE",
"969 860 CURVE SMOOTH"
);
}
);
width = 1170;
},
{
anchors = (
{
name = bottom;
position = "{583, 0}";
},
{
name = top;
position = "{583, 1456}";
}
);
layerId = "E1B555A7-F4E1-459C-9C1A-AE952106EEF9";
paths = (
{
closed = 1;
nodes = (
"520 878 LINE",
"520 1185 LINE",
"1005 1185 LINE SMOOTH",
"1077 1185 OFFCURVE",
"1134 1242 OFFCURVE",
"1134 1319 CURVE SMOOTH",
"1134 1395 OFFCURVE",
"1077 1455 OFFCURVE",
"1005 1455 CURVE SMOOTH",
"383 1455 LINE SMOOTH",
"258 1455 OFFCURVE",
"150 1398 OFFCURVE",
"150 1259 CURVE SMOOTH",
"150 208 LINE SMOOTH",
"150 95 OFFCURVE",
"232 0 OFFCURVE",
"334 0 CURVE SMOOTH",
"437 0 OFFCURVE",
"519 95 OFFCURVE",
"519 208 CURVE SMOOTH",
"520 608 LINE",
"974 608 LINE SMOOTH",
"1046 608 OFFCURVE",
"1103 666 OFFCURVE",
"1103 742 CURVE SMOOTH",
"1103 819 OFFCURVE",
"1046 878 OFFCURVE",
"974 878 CURVE SMOOTH"
);
}
);
width = 1166;
}
);
unicode = 0046;
userData = {
anchors = (
);
b = {
};
com.typemytype.robofont.layerData = {
b = {
anchors = (
);
components = (
);
contours = (
{
points = (
{
segmentType = curve;
smooth = 1;
x = 266;
y = 0;
},
{
segmentType = line;
smooth = 1;
x = 1035;
y = 0;
},
{
smooth = 0;
x = 1084;
y = 0;
},
{
smooth = 0;
x = 1108;
y = 34;
},
{
segmentType = curve;
smooth = 1;
x = 1108;
y = 71;
},
{
smooth = 0;
x = 1108;
y = 107;
},
{
smooth = 0;
x = 1084;
y = 141;
},
{
segmentType = curve;
smooth = 1;
x = 1035;
y = 141;
},
{
segmentType = line;
smooth = 0;
x = 353;
y = 141;
},
{
segmentType = line;
smooth = 0;
x = 353;
y = 665;
},
{
segmentType = line;
smooth = 1;
x = 975;
y = 665;
},
{
smooth = 0;
x = 1024;
y = 665;
},
{
smooth = 0;
x = 1049;
y = 698;
},
{
segmentType = curve;
smooth = 1;
x = 1049;
y = 734;
},
{
smooth = 0;
x = 1049;
y = 770;
},
{
smooth = 0;
x = 1026;
y = 803;
},
{
segmentType = curve;
smooth = 1;
x = 975;
y = 803;
},
{
segmentType = line;
smooth = 0;
x = 353;
y = 803;
},
{
segmentType = line;
smooth = 0;
x = 353;
y = 1285;
},
{
segmentType = line;
smooth = 1;
x = 1007;
y = 1285;
},
{
smooth = 0;
x = 1056;
y = 1285;
},
{
smooth = 0;
x = 1080;
y = 1319;
},
{
segmentType = curve;
smooth = 1;
x = 1080;
y = 1356;
},
{
smooth = 0;
x = 1080;
y = 1392;
},
{
smooth = 0;
x = 1056;
y = 1426;
},
{
segmentType = curve;
smooth = 1;
x = 1007;
y = 1426;
},
{
segmentType = line;
smooth = 1;
x = 261;
y = 1426;
},
{
smooth = 0;
x = 213;
y = 1426;
},
{
smooth = 0;
x = 178;
y = 1383;
},
{
segmentType = curve;
smooth = 1;
x = 178;
y = 1340;
},
{
segmentType = line;
smooth = 1;
x = 178;
y = 86;
},
{
smooth = 0;
x = 178;
y = 41;
},
{
smooth = 0;
x = 222;
y = 0;
}
);
}
);
lib = {
};
name = F;
unicodes = (
);
width = 1142;
};
};
components = (
);
contours = (
);
lib = {
};
name = F;
unicodes = (
);
width = 1175;
};
},
{
glyphname = G;
lastChange = "2016-08-02 17:46:46 +0000";
layers = (
{
anchors = (
{
name = bottom;
position = "{838, 0}";
},
{
name = top;
position = "{892, 1419}";
}
);
layerId = "9E718F8A-2CEA-4931-B05D-987794BD97DA";
paths = (
{
closed = 1;
nodes = (
"1170 623 LINE",
"1170 133 LINE",
"1068 103 OFFCURVE",
"914 78 OFFCURVE",
"801 78 CURVE SMOOTH",
"408 78 OFFCURVE",
"271 380 OFFCURVE",
"271 692 CURVE SMOOTH",
"271 1058 OFFCURVE",
"468 1312 OFFCURVE",
"833 1312 CURVE SMOOTH",
"941 1312 OFFCURVE",
"1067 1286 OFFCURVE",
"1183 1247 CURVE",
"1183 1248 OFFCURVE",
"1193 1247 OFFCURVE",
"1193 1247 CURVE",
"1219 1247 OFFCURVE",
"1237 1271 OFFCURVE",
"1237 1298 CURVE SMOOTH",
"1237 1315 OFFCURVE",
"1230 1332 OFFCURVE",
"1212 1340 CURVE SMOOTH",
"1099 1387 OFFCURVE",
"963 1412 OFFCURVE",
"826 1412 CURVE SMOOTH",
"364 1412 OFFCURVE",
"139 1062 OFFCURVE",
"139 702 CURVE SMOOTH",
"139 205 OFFCURVE",
"430 -22 OFFCURVE",
"778 -22 CURVE SMOOTH",
"953 -22 OFFCURVE",
"1132 8 OFFCURVE",
"1252 60 CURVE SMOOTH",
"1270 70 OFFCURVE",
"1292 106 OFFCURVE",
"1292 132 CURVE SMOOTH",
"1292 666 LINE SMOOTH",
"1292 699 OFFCURVE",
"1270 721 OFFCURVE",
"1237 721 CURVE SMOOTH",
"854 721 LINE SMOOTH",
"817 721 OFFCURVE",
"798 694 OFFCURVE",
"798 670 CURVE SMOOTH",
"798 648 OFFCURVE",
"818 623 OFFCURVE",
"854 623 CURVE SMOOTH"
);
}
);
width = 1422;
},
{
anchors = (
{
name = bottom;
position = "{782, -12}";
},
{
name = top;
position = "{720, 1424}";
}
);
layerId = "5FCC6278-3A1D-4B2B-A133-84AE53360430";
paths = (
{
closed = 1;
nodes = (
"1156 611 LINE",
"1156 157 LINE",
"1058 129 OFFCURVE",
"919 107 OFFCURVE",
"812 107 CURVE SMOOTH",
"445 107 OFFCURVE",
"303 379 OFFCURVE",
"303 704 CURVE SMOOTH",
"303 1055 OFFCURVE",
"481 1301 OFFCURVE",
"838 1301 CURVE SMOOTH",
"954 1301 OFFCURVE",
"1070 1246 OFFCURVE",
"1190 1237 CURVE SMOOTH",
"1195 1237 OFFCURVE",
"1199 1236 OFFCURVE",
"1204 1236 CURVE SMOOTH",
"1239 1234 OFFCURVE",
"1261 1270 OFFCURVE",
"1261 1303 CURVE SMOOTH",
"1261 1325 OFFCURVE",
"1252 1347 OFFCURVE",
"1227 1357 CURVE SMOOTH",
"1111 1403 OFFCURVE",
"974 1430 OFFCURVE",
"832 1430 CURVE SMOOTH",
"361 1430 OFFCURVE",
"131 1084 OFFCURVE",
"131 709 CURVE SMOOTH",
"131 216 OFFCURVE",
"421 -22 OFFCURVE",
"792 -22 CURVE SMOOTH",
"963 -22 OFFCURVE",
"1137 10 OFFCURVE",
"1257 56 CURVE SMOOTH",
"1288 68 OFFCURVE",
"1316 105 OFFCURVE",
"1316 147 CURVE SMOOTH",
"1316 665 LINE SMOOTH",
"1316 707 OFFCURVE",
"1290 736 OFFCURVE",
"1248 736 CURVE SMOOTH",
"863 736 LINE SMOOTH",
"820 736 OFFCURVE",
"799 701 OFFCURVE",
"799 672 CURVE SMOOTH",
"799 644 OFFCURVE",
"822 611 OFFCURVE",
"863 611 CURVE SMOOTH"
);
}
);
width = 1440;
},
{
anchors = (
{
name = bottom;
position = "{830, 0}";
},
{
name = top;
position = "{848, 1429}";
}
);
layerId = "334510DF-EE69-4F45-9EE4-32E3392006F4";
paths = (
{
closed = 1;
nodes = (
"1140 598 LINE",
"1140 183 LINE",
"1046 157 OFFCURVE",
"926 140 OFFCURVE",
"825 140 CURVE SMOOTH",
"484 140 OFFCURVE",
"337 378 OFFCURVE",
"337 717 CURVE SMOOTH",
"337 1052 OFFCURVE",
"494 1288 OFFCURVE",
"845 1288 CURVE SMOOTH",
"967 1288 OFFCURVE",
"1085 1258 OFFCURVE",
"1197 1226 CURVE",
"1202 1225 OFFCURVE",
"1214 1224 OFFCURVE",
"1217 1224 CURVE SMOOTH",
"1261 1224 OFFCURVE",
"1289 1268 OFFCURVE",
"1289 1308 CURVE SMOOTH",
"1289 1335 OFFCURVE",
"1275 1363 OFFCURVE",
"1243 1377 CURVE SMOOTH",
"1127 1425 OFFCURVE",
"986 1450 OFFCURVE",
"838 1450 CURVE SMOOTH",
"356 1450 OFFCURVE",
"123 1107 OFFCURVE",
"123 717 CURVE SMOOTH",
"123 228 OFFCURVE",
"411 -22 OFFCURVE",
"807 -22 CURVE SMOOTH",
"974 -22 OFFCURVE",
"1142 12 OFFCURVE",
"1264 53 CURVE SMOOTH",
"1308 67 OFFCURVE",
"1342 103 OFFCURVE",
"1342 163 CURVE SMOOTH",
"1342 663 LINE SMOOTH",
"1342 717 OFFCURVE",
"1313 753 OFFCURVE",
"1259 753 CURVE SMOOTH",
"873 753 LINE SMOOTH",
"825 753 OFFCURVE",
"801 709 OFFCURVE",
"801 674 CURVE SMOOTH",
"801 641 OFFCURVE",
"825 598 OFFCURVE",
"873 598 CURVE SMOOTH"
);
}
);
width = 1460;
},
{
anchors = (
{
name = bottom;
position = "{828, 0}";
},
{
name = top;
position = "{834, 1433}";
}
);
layerId = "F812A762-7E77-4DA4-9A10-AD66CDB59C76";
paths = (
{
closed = 1;
nodes = (
"1131 590 LINE",
"1131 198 LINE",
"1039 175 OFFCURVE",
"930 159 OFFCURVE",
"832 159 CURVE SMOOTH",
"508 159 OFFCURVE",
"358 378 OFFCURVE",
"358 725 CURVE SMOOTH",
"358 1051 OFFCURVE",
"503 1281 OFFCURVE",
"849 1281 CURVE SMOOTH",
"976 1281 OFFCURVE",
"1090 1250 OFFCURVE",
"1202 1220 CURVE",
"1208 1217 OFFCURVE",
"1220 1216 OFFCURVE",
"1224 1216 CURVE SMOOTH",
"1275 1216 OFFCURVE",
"1305 1267 OFFCURVE",
"1305 1311 CURVE SMOOTH",
"1305 1342 OFFCURVE",
"1290 1373 OFFCURVE",
"1253 1389 CURVE SMOOTH",
"1135 1437 OFFCURVE",
"994 1462 OFFCURVE",
"841 1462 CURVE SMOOTH",
"354 1462 OFFCURVE",
"118 1122 OFFCURVE",
"118 722 CURVE SMOOTH",
"118 236 OFFCURVE",
"405 -22 OFFCURVE",
"816 -22 CURVE SMOOTH",
"980 -22 OFFCURVE",
"1145 14 OFFCURVE",
"1268 51 CURVE SMOOTH",
"1321 66 OFFCURVE",
"1357 102 OFFCURVE",
"1357 173 CURVE SMOOTH",
"1357 662 LINE SMOOTH",
"1357 722 OFFCURVE",
"1326 764 OFFCURVE",
"1266 764 CURVE SMOOTH",
"879 764 LINE SMOOTH",
"827 764 OFFCURVE",
"802 714 OFFCURVE",
"802 676 CURVE SMOOTH",
"802 639 OFFCURVE",
"827 590 OFFCURVE",
"879 590 CURVE SMOOTH"
);
}
);
width = 1473;
},
{
anchors = (
{
name = bottom;
position = "{826, 0}";
},
{
name = top;
position = "{822, 1436}";
}
);
layerId = "04B13600-F055-45EE-B953-7859ECDADD08";
paths = (
{
closed = 1;
nodes = (
"1123 584 LINE",
"1123 212 LINE",
"1033 190 OFFCURVE",
"933 176 OFFCURVE",
"839 176 CURVE SMOOTH",
"529 176 OFFCURVE",
"376 377 OFFCURVE",
"376 731 CURVE SMOOTH",
"376 1049 OFFCURVE",
"510 1274 OFFCURVE",
"852 1274 CURVE SMOOTH",
"983 1274 OFFCURVE",
"1095 1242 OFFCURVE",
"1206 1214 CURVE",
"1214 1211 OFFCURVE",
"1224 1210 OFFCURVE",
"1231 1210 CURVE SMOOTH",
"1286 1210 OFFCURVE",
"1319 1266 OFFCURVE",
"1319 1314 CURVE SMOOTH",
"1319 1347 OFFCURVE",
"1302 1381 OFFCURVE",
"1261 1399 CURVE SMOOTH",
"1143 1447 OFFCURVE",
"1000 1472 OFFCURVE",
"844 1472 CURVE SMOOTH",
"352 1472 OFFCURVE",
"114 1134 OFFCURVE",
"114 726 CURVE SMOOTH",
"114 242 OFFCURVE",
"400 -22 OFFCURVE",
"824 -22 CURVE SMOOTH",
"986 -22 OFFCURVE",
"1148 15 OFFCURVE",
"1271 49 CURVE SMOOTH",
"1331 65 OFFCURVE",
"1371 102 OFFCURVE",
"1371 181 CURVE SMOOTH",
"1371 661 LINE SMOOTH",
"1371 727 OFFCURVE",
"1338 773 OFFCURVE",
"1272 773 CURVE SMOOTH",
"884 773 LINE SMOOTH",
"829 773 OFFCURVE",
"802 718 OFFCURVE",
"802 677 CURVE SMOOTH",
"802 637 OFFCURVE",
"829 584 OFFCURVE",
"884 584 CURVE SMOOTH"
);
}
);
width = 1483;
},
{
anchors = (
{
name = bottom;
position = "{834, 0}";
},
{
name = top;
position = "{815, 1438}";
}
);
layerId = "A4C065E6-C319-4A8F-B4BD-A6F28D5DCD95";
paths = (
{
closed = 1;
nodes = (
"1112 576 LINE",
"1112 235 LINE",
"1027 215 OFFCURVE",
"939 204 OFFCURVE",
"852 204 CURVE SMOOTH",
"569 204 OFFCURVE",
"411 369 OFFCURVE",
"411 729 CURVE SMOOTH",
"411 1043 OFFCURVE",
"537 1254 OFFCURVE",
"862 1254 CURVE SMOOTH",
"990 1254 OFFCURVE",
"1107 1222 OFFCURVE",
"1211 1190 CURVE",
"1222 1184 OFFCURVE",
"1235 1182 OFFCURVE",
"1245 1182 CURVE SMOOTH",
"1307 1182 OFFCURVE",
"1345 1242 OFFCURVE",
"1345 1298 CURVE SMOOTH",
"1345 1333 OFFCURVE",
"1326 1373 OFFCURVE",
"1282 1395 CURVE SMOOTH",
"1165 1451 OFFCURVE",
"1011 1483 OFFCURVE",
"851 1483 CURVE SMOOTH",
"348 1483 OFFCURVE",
"108 1144 OFFCURVE",
"108 728 CURVE SMOOTH",
"108 234 OFFCURVE",
"397 -26 OFFCURVE",
"838 -26 CURVE SMOOTH",
"986 -26 OFFCURVE",
"1139 7 OFFCURVE",
"1257 33 CURVE SMOOTH",
"1355 56 OFFCURVE",
"1395 103 OFFCURVE",
"1395 226 CURVE SMOOTH",
"1395 646 LINE SMOOTH",
"1395 729 OFFCURVE",
"1364 781 OFFCURVE",
"1286 781 CURVE SMOOTH",
"899 781 LINE SMOOTH",
"837 781 OFFCURVE",
"806 727 OFFCURVE",
"806 678 CURVE SMOOTH",
"806 624 OFFCURVE",
"841 576 OFFCURVE",
"903 576 CURVE SMOOTH"
);
}
);
width = 1499;
},
{
anchors = (
{
name = bottom;
position = "{851, 0}";
},
{
name = top;
position = "{819, 1438}";
}
);
layerId = "8F6BE840-9356-4940-A488-AC64157678BA";
paths = (
{
closed = 1;
nodes = (
"1107 574 LINE",
"1107 248 LINE",
"1026 228 OFFCURVE",
"944 218 OFFCURVE",
"865 218 CURVE SMOOTH",
"606 218 OFFCURVE",
"442 361 OFFCURVE",
"442 721 CURVE SMOOTH",
"442 1038 OFFCURVE",
"572 1239 OFFCURVE",
"872 1239 CURVE SMOOTH",
"992 1239 OFFCURVE",
"1119 1208 OFFCURVE",
"1214 1171 CURVE",
"1229 1162 OFFCURVE",
"1246 1158 OFFCURVE",
"1260 1158 CURVE SMOOTH",
"1324 1158 OFFCURVE",
"1368 1219 OFFCURVE",
"1368 1279 CURVE SMOOTH",
"1368 1315 OFFCURVE",
"1349 1357 OFFCURVE",
"1304 1384 CURVE",
"1190 1446 OFFCURVE",
"1021 1484 OFFCURVE",
"856 1484 CURVE SMOOTH",
"345 1484 OFFCURVE",
"106 1144 OFFCURVE",
"106 727 CURVE SMOOTH",
"106 221 OFFCURVE",
"398 -30 OFFCURVE",
"850 -30 CURVE SMOOTH",
"977 -30 OFFCURVE",
"1121 -2 OFFCURVE",
"1230 19 CURVE SMOOTH",
"1378 48 OFFCURVE",
"1415 104 OFFCURVE",
"1415 264 CURVE SMOOTH",
"1415 631 LINE SMOOTH",
"1415 727 OFFCURVE",
"1389 781 OFFCURVE",
"1300 781 CURVE SMOOTH",
"917 782 LINE SMOOTH",
"846 782 OFFCURVE",
"812 732 OFFCURVE",
"812 679 CURVE SMOOTH",
"812 613 OFFCURVE",
"858 574 OFFCURVE",
"928 574 CURVE SMOOTH"
);
}
);
width = 1511;
},
{
anchors = (
{
name = bottom;
position = "{874, 0}";
},
{
name = top;
position = "{826, 1438}";
}
);
layerId = "E1B555A7-F4E1-459C-9C1A-AE952106EEF9";
paths = (
{
closed = 1;
nodes = (
"1098 571 LINE",
"1098 272 LINE",
"1024 255 OFFCURVE",
"952 245 OFFCURVE",
"884 245 CURVE SMOOTH",
"659 245 OFFCURVE",
"487 346 OFFCURVE",
"487 705 CURVE SMOOTH",
"487 1028 OFFCURVE",
"621 1209 OFFCURVE",
"887 1209 CURVE SMOOTH",
"994 1209 OFFCURVE",
"1137 1180 OFFCURVE",
"1218 1132 CURVE SMOOTH",
"1240 1119 OFFCURVE",
"1261 1111 OFFCURVE",
"1281 1111 CURVE SMOOTH",
"1349 1111 OFFCURVE",
"1401 1174 OFFCURVE",
"1401 1243 CURVE SMOOTH",
"1401 1278 OFFCURVE",
"1383 1327 OFFCURVE",
"1336 1360 CURVE SMOOTH",
"1226 1437 OFFCURVE",
"1035 1487 OFFCURVE",
"865 1487 CURVE SMOOTH",
"340 1487 OFFCURVE",
"102 1144 OFFCURVE",
"102 724 CURVE SMOOTH",
"102 195 OFFCURVE",
"399 -38 OFFCURVE",
"867 -38 CURVE SMOOTH",
"965 -38 OFFCURVE",
"1095 -20 OFFCURVE",
"1192 -8 CURVE",
"1413 32 OFFCURVE",
"1444 107 OFFCURVE",
"1444 339 CURVE SMOOTH",
"1444 602 LINE SMOOTH",
"1444 724 OFFCURVE",
"1425 782 OFFCURVE",
"1321 782 CURVE",
"943 784 LINE",
"859 784 OFFCURVE",
"820 744 OFFCURVE",
"820 679 CURVE SMOOTH",
"820 592 OFFCURVE",
"881 571 OFFCURVE",
"962 571 CURVE SMOOTH"
);
}
);
width = 1528;
}
);
unicode = 0047;
userData = {
anchors = (
);
b = {
};
com.typemytype.robofont.layerData = {
b = {
anchors = (
);
components = (
);
contours = (
{
points = (
{
segmentType = curve;
smooth = 1;
x = 783;
y = "-22";
},
{
smooth = 0;
x = 965;
y = "-22";
},
{
smooth = 0;
x = 1086;
y = 34;
},
{
segmentType = curve;
smooth = 1;
x = 1166;
y = 86;
},
{
smooth = 0;
x = 1270;
y = 154;
},
{
smooth = 0;
x = 1186;
y = 258;
},
{
segmentType = curve;
smooth = 1;
x = 1112;
y = 214;
},
{
smooth = 0;
x = 1024;
y = 162;
},
{
smooth = 0;
x = 939;
y = 120;
},
{
segmentType = curve;
smooth = 1;
x = 806;
y = 120;
},
{
smooth = 0;
x = 446;
y = 120;
},
{
smooth = 0;
x = 316;
y = 406;
},
{
segmentType = curve;
smooth = 1;
x = 316;
y = 706;
},
{
smooth = 0;
x = 316;
y = 1005;
},
{
smooth = 0;
x = 450;
y = 1296;
},
{
segmentType = curve;
smooth = 1;
x = 801;
y = 1296;
},
{
smooth = 0;
x = 980;
y = 1296;
},
{
smooth = 0;
x = 1053;
y = 1246;
},
{
segmentType = curve;
smooth = 1;
x = 1094;
y = 1225;
},
{
smooth = 0;
x = 1174;
y = 1184;
},
{
smooth = 0;
x = 1231;
y = 1300;
},
{
segmentType = curve;
smooth = 1;
x = 1156;
y = 1343;
},
{
smooth = 0;
x = 1106;
y = 1372;
},
{
smooth = 0;
x = 995;
y = 1438;
},
{
segmentType = curve;
smooth = 1;
x = 797;
y = 1438;
},
{
smooth = 0;
x = 359;
y = 1438;
},
{
smooth = 0;
x = 128;
y = 1093;
},
{
segmentType = curve;
smooth = 1;
x = 128;
y = 704;
},
{
smooth = 0;
x = 128;
y = 307;
},
{
smooth = 0;
x = 350;
y = "-22";
}
);
}
);
lib = {
};
name = G;
unicodes = (
);
width = 1448;
};
};
components = (
);
contours = (
);
lib = {
};
name = G;
unicodes = (
);
width = 1538;
};
},
{
glyphname = H;
lastChange = "2016-08-02 17:46:46 +0000";
layers = (
{
anchors = (
{
name = bottom;
position = "{714, 0}";
},
{
name = center;
position = "{714, 710}";
},
{
name = top;
position = "{757, 1438}";
},
{
name = topleft;
position = "{20, 1419}";
}
);
layerId = "9E718F8A-2CEA-4931-B05D-987794BD97DA";
paths = (
{
closed = 1;
nodes = (
"1122 787 LINE",
"306 787 LINE",
"306 1363 LINE SMOOTH",
"306 1401 OFFCURVE",
"275 1420 OFFCURVE",
"245 1420 CURVE SMOOTH",
"214 1420 OFFCURVE",
"181 1400 OFFCURVE",
"181 1363 CURVE SMOOTH",
"181 56 LINE SMOOTH",
"181 18 OFFCURVE",
"212 -1 OFFCURVE",
"243 -1 CURVE SMOOTH",
"274 -1 OFFCURVE",
"306 16 OFFCURVE",
"306 56 CURVE SMOOTH",
"306 687 LINE",
"1122 687 LINE",
"1122 56 LINE SMOOTH",
"1122 18 OFFCURVE",
"1153 -1 OFFCURVE",
"1183 -1 CURVE SMOOTH",
"1214 -1 OFFCURVE",
"1247 16 OFFCURVE",
"1247 56 CURVE SMOOTH",
"1247 1363 LINE SMOOTH",
"1247 1401 OFFCURVE",
"1216 1420 OFFCURVE",
"1184 1420 CURVE SMOOTH",
"1153 1420 OFFCURVE",
"1122 1400 OFFCURVE",
"1122 1363 CURVE SMOOTH"
);
}
);
width = 1428;
},
{
anchors = (
{
name = bottom;
position = "{727, 0}";
},
{
name = center;
position = "{727, 712}";
},
{
name = top;
position = "{727, 1424}";
},
{
name = topleft;
position = "{20, 1424}";
}
);
layerId = "5FCC6278-3A1D-4B2B-A133-84AE53360430";
paths = (
{
closed = 1;
nodes = (
"1112 804 LINE",
"341 804 LINE",
"341 1348 LINE SMOOTH",
"341 1399 OFFCURVE",
"301 1424 OFFCURVE",
"261 1424 CURVE SMOOTH",
"220 1424 OFFCURVE",
"179 1398 OFFCURVE",
"179 1348 CURVE SMOOTH",
"179 76 LINE SMOOTH",
"179 25 OFFCURVE",
"219 0 OFFCURVE",
"259 0 CURVE SMOOTH",
"300 0 OFFCURVE",
"341 24 OFFCURVE",
"341 76 CURVE SMOOTH",
"341 674 LINE",
"1112 674 LINE",
"1112 76 LINE SMOOTH",
"1112 25 OFFCURVE",
"1152 0 OFFCURVE",
"1192 0 CURVE SMOOTH",
"1233 0 OFFCURVE",
"1274 24 OFFCURVE",
"1274 76 CURVE SMOOTH",
"1274 1348 LINE SMOOTH",
"1274 1399 OFFCURVE",
"1234 1424 OFFCURVE",
"1193 1424 CURVE SMOOTH",
"1152 1424 OFFCURVE",
"1112 1398 OFFCURVE",
"1112 1348 CURVE SMOOTH"
);
}
);
width = 1453;
},
{
anchors = (
{
name = bottom;
position = "{741, 0}";
},
{
name = center;
position = "{741, 715}";
},
{
name = top;
position = "{763, 1438}";
},
{
name = topleft;
position = "{20, 1429}";
}
);
layerId = "334510DF-EE69-4F45-9EE4-32E3392006F4";
paths = (
{
closed = 1;
nodes = (
"1102 822 LINE",
"379 822 LINE",
"379 1332 LINE SMOOTH",
"379 1397 OFFCURVE",
"329 1429 OFFCURVE",
"279 1429 CURVE SMOOTH",
"227 1429 OFFCURVE",
"177 1396 OFFCURVE",
"177 1332 CURVE SMOOTH",
"177 97 LINE SMOOTH",
"177 33 OFFCURVE",
"226 1 OFFCURVE",
"277 1 CURVE SMOOTH",
"328 1 OFFCURVE",
"379 32 OFFCURVE",
"379 97 CURVE SMOOTH",
"379 661 LINE",
"1102 661 LINE",
"1102 97 LINE SMOOTH",
"1102 33 OFFCURVE",
"1152 1 OFFCURVE",
"1202 1 CURVE SMOOTH",
"1254 1 OFFCURVE",
"1304 32 OFFCURVE",
"1304 97 CURVE SMOOTH",
"1304 1332 LINE SMOOTH",
"1304 1397 OFFCURVE",
"1254 1429 OFFCURVE",
"1203 1429 CURVE SMOOTH",
"1152 1429 OFFCURVE",
"1102 1396 OFFCURVE",
"1102 1332 CURVE SMOOTH"
);
}
);
width = 1481;
},
{
anchors = (
{
name = bottom;
position = "{749, 0}";
},
{
name = center;
position = "{749, 717}";
},
{
name = top;
position = "{764, 1438}";
},
{
name = topleft;
position = "{20, 1433}";
}
);
layerId = "F812A762-7E77-4DA4-9A10-AD66CDB59C76";
paths = (
{
closed = 1;
nodes = (
"1095 833 LINE",
"402 833 LINE",
"402 1322 LINE SMOOTH",
"402 1395 OFFCURVE",
"346 1432 OFFCURVE",
"289 1432 CURVE SMOOTH",
"231 1432 OFFCURVE",
"175 1394 OFFCURVE",
"175 1322 CURVE SMOOTH",
"175 110 LINE SMOOTH",
"175 38 OFFCURVE",
"231 1 OFFCURVE",
"288 1 CURVE SMOOTH",
"346 1 OFFCURVE",
"402 37 OFFCURVE",
"402 110 CURVE SMOOTH",
"402 652 LINE",
"1095 652 LINE",
"1095 110 LINE SMOOTH",
"1095 38 OFFCURVE",
"1151 1 OFFCURVE",
"1208 1 CURVE SMOOTH",
"1266 1 OFFCURVE",
"1322 37 OFFCURVE",
"1322 110 CURVE SMOOTH",
"1322 1322 LINE SMOOTH",
"1322 1395 OFFCURVE",
"1267 1432 OFFCURVE",
"1209 1432 CURVE SMOOTH",
"1151 1432 OFFCURVE",
"1095 1394 OFFCURVE",
"1095 1322 CURVE SMOOTH"
);
}
);
width = 1498;
},
{
anchors = (
{
name = bottom;
position = "{756, 0}";
},
{
name = center;
position = "{756, 718}";
},
{
name = top;
position = "{766, 1438}";
},
{
name = topleft;
position = "{20, 1436}";
}
);
layerId = "04B13600-F055-45EE-B953-7859ECDADD08";
paths = (
{
closed = 1;
nodes = (
"1090 843 LINE",
"422 843 LINE",
"422 1314 LINE SMOOTH",
"422 1394 OFFCURVE",
"361 1434 OFFCURVE",
"298 1434 CURVE SMOOTH",
"235 1434 OFFCURVE",
"174 1393 OFFCURVE",
"174 1314 CURVE SMOOTH",
"174 122 LINE SMOOTH",
"174 42 OFFCURVE",
"235 2 OFFCURVE",
"297 2 CURVE SMOOTH",
"361 2 OFFCURVE",
"422 41 OFFCURVE",
"422 122 CURVE SMOOTH",
"422 645 LINE",
"1090 645 LINE",
"1090 122 LINE SMOOTH",
"1090 42 OFFCURVE",
"1151 2 OFFCURVE",
"1214 2 CURVE SMOOTH",
"1277 2 OFFCURVE",
"1338 41 OFFCURVE",
"1338 122 CURVE SMOOTH",
"1338 1314 LINE SMOOTH",
"1338 1394 OFFCURVE",
"1277 1434 OFFCURVE",
"1215 1434 CURVE SMOOTH",
"1151 1434 OFFCURVE",
"1090 1393 OFFCURVE",
"1090 1314 CURVE SMOOTH"
);
}
);
width = 1512;
},
{
anchors = (
{
name = bottom;
position = "{766, 0}";
},
{
name = center;
position = "{766, 721}";
},
{
name = top;
position = "{771, 1438}";
},
{
name = topleft;
position = "{20, 1442}";
}
);
layerId = "A4C065E6-C319-4A8F-B4BD-A6F28D5DCD95";
paths = (
{
closed = 1;
nodes = (
"1075 864 LINE",
"455 864 LINE",
"455 1292 LINE SMOOTH",
"455 1385 OFFCURVE",
"386 1441 OFFCURVE",
"312 1441 CURVE SMOOTH",
"237 1441 OFFCURVE",
"168 1385 OFFCURVE",
"168 1292 CURVE SMOOTH",
"168 150 LINE SMOOTH",
"168 57 OFFCURVE",
"237 1 OFFCURVE",
"311 1 CURVE SMOOTH",
"386 1 OFFCURVE",
"455 57 OFFCURVE",
"455 150 CURVE SMOOTH",
"455 630 LINE",
"1075 630 LINE",
"1075 150 LINE SMOOTH",
"1075 57 OFFCURVE",
"1145 1 OFFCURVE",
"1219 1 CURVE SMOOTH",
"1294 1 OFFCURVE",
"1362 57 OFFCURVE",
"1362 150 CURVE SMOOTH",
"1362 1292 LINE SMOOTH",
"1362 1385 OFFCURVE",
"1294 1441 OFFCURVE",
"1220 1441 CURVE SMOOTH",
"1145 1441 OFFCURVE",
"1075 1385 OFFCURVE",
"1075 1292 CURVE SMOOTH"
);
}
);
width = 1531;
},
{
anchors = (
{
name = bottom;
position = "{771, 0}";
},
{
name = center;
position = "{771, 723}";
},
{
name = top;
position = "{777, 1438}";
},
{
name = topleft;
position = "{20, 1446}";
}
);
layerId = "8F6BE840-9356-4940-A488-AC64157678BA";
paths = (
{
closed = 1;
nodes = (
"1060 876 LINE",
"482 876 LINE",
"482 1278 LINE SMOOTH",
"482 1377 OFFCURVE",
"407 1446 OFFCURVE",
"321 1446 CURVE SMOOTH",
"235 1446 OFFCURVE",
"161 1377 OFFCURVE",
"161 1278 CURVE SMOOTH",
"161 169 LINE SMOOTH",
"161 70 OFFCURVE",
"235 1 OFFCURVE",
"321 1 CURVE SMOOTH",
"407 1 OFFCURVE",
"482 70 OFFCURVE",
"482 169 CURVE SMOOTH",
"482 620 LINE",
"1060 620 LINE",
"1060 169 LINE SMOOTH",
"1060 70 OFFCURVE",
"1134 1 OFFCURVE",
"1220 1 CURVE SMOOTH",
"1306 1 OFFCURVE",
"1381 70 OFFCURVE",
"1381 169 CURVE SMOOTH",
"1381 1278 LINE SMOOTH",
"1381 1377 OFFCURVE",
"1306 1446 OFFCURVE",
"1221 1446 CURVE SMOOTH",
"1135 1446 OFFCURVE",
"1060 1377 OFFCURVE",
"1060 1278 CURVE SMOOTH"
);
}
);
width = 1542;
},
{
anchors = (
{
name = bottom;
position = "{779, 0}";
},
{
name = center;
position = "{779, 728}";
},
{
name = top;
position = "{786, 1438}";
},
{
name = topleft;
position = "{20, 1456}";
}
);
layerId = "E1B555A7-F4E1-459C-9C1A-AE952106EEF9";
paths = (
{
closed = 1;
nodes = (
"1037 901 LINE",
"519 901 LINE",
"519 1248 LINE SMOOTH",
"519 1362 OFFCURVE",
"437 1456 OFFCURVE",
"334 1456 CURVE SMOOTH",
"232 1456 OFFCURVE",
"150 1362 OFFCURVE",
"150 1248 CURVE SMOOTH",
"150 208 LINE SMOOTH",
"150 94 OFFCURVE",
"232 0 OFFCURVE",
"334 0 CURVE SMOOTH",
"437 0 OFFCURVE",
"519 94 OFFCURVE",
"519 208 CURVE SMOOTH",
"519 602 LINE",
"1037 602 LINE",
"1038 208 LINE SMOOTH",
"1038 94 OFFCURVE",
"1120 0 OFFCURVE",
"1222 0 CURVE SMOOTH",
"1324 0 OFFCURVE",
"1407 94 OFFCURVE",
"1407 208 CURVE SMOOTH",
"1407 1248 LINE SMOOTH",
"1407 1362 OFFCURVE",
"1324 1456 OFFCURVE",
"1222 1456 CURVE SMOOTH",
"1121 1456 OFFCURVE",
"1037 1362 OFFCURVE",
"1037 1248 CURVE SMOOTH"
);
}
);
width = 1557;
}
);
unicode = 0048;
userData = {
anchors = (
);
b = {
};
com.typemytype.robofont.layerData = {
b = {
anchors = (
);
components = (
);
contours = (
);
lib = {
};
name = H;
unicodes = (
);
width = 1464;
};
};
components = (
);
contours = (
);
lib = {
};
name = H;
unicodes = (
);
width = 1524;
};
},
{
glyphname = Hbar;
lastChange = "2016-08-02 17:46:46 +0000";
layers = (
{
components = (
{
name = H;
}
);
layerId = "9E718F8A-2CEA-4931-B05D-987794BD97DA";
paths = (
{
closed = 1;
nodes = (
"127 1121 LINE SMOOTH",
"91 1121 OFFCURVE",
"66 1106 OFFCURVE",
"66 1076 CURVE SMOOTH",
"66 1047 OFFCURVE",
"91 1032 OFFCURVE",
"127 1032 CURVE SMOOTH",
"1313 1032 LINE SMOOTH",
"1350 1032 OFFCURVE",
"1375 1047 OFFCURVE",
"1375 1076 CURVE SMOOTH",
"1375 1106 OFFCURVE",
"1350 1121 OFFCURVE",
"1313 1121 CURVE SMOOTH"
);
}
);
width = 1436;
},
{
components = (
{
name = H;
}
);
layerId = "5FCC6278-3A1D-4B2B-A133-84AE53360430";
paths = (
{
closed = 1;
nodes = (
"123 1125 LINE SMOOTH",
"85 1125 OFFCURVE",
"60 1107 OFFCURVE",
"60 1076 CURVE SMOOTH",
"60 1046 OFFCURVE",
"85 1028 OFFCURVE",
"123 1028 CURVE SMOOTH",
"1336 1028 LINE SMOOTH",
"1375 1028 OFFCURVE",
"1400 1046 OFFCURVE",
"1400 1076 CURVE SMOOTH",
"1400 1107 OFFCURVE",
"1375 1125 OFFCURVE",
"1336 1125 CURVE SMOOTH"
);
}
);
width = 1456;
},
{
components = (
{
name = H;
}
);
layerId = "334510DF-EE69-4F45-9EE4-32E3392006F4";
paths = (
{
closed = 1;
nodes = (
"118 1130 LINE SMOOTH",
"78 1130 OFFCURVE",
"53 1108 OFFCURVE",
"53 1076 CURVE SMOOTH",
"53 1044 OFFCURVE",
"78 1023 OFFCURVE",
"118 1023 CURVE SMOOTH",
"1361 1023 LINE SMOOTH",
"1403 1023 OFFCURVE",
"1428 1044 OFFCURVE",
"1428 1076 CURVE SMOOTH",
"1428 1108 OFFCURVE",
"1403 1130 OFFCURVE",
"1361 1130 CURVE SMOOTH"
);
}
);
width = 1477;
},
{
components = (
{
name = H;
}
);
layerId = "F812A762-7E77-4DA4-9A10-AD66CDB59C76";
paths = (
{
closed = 1;
nodes = (
"115 1132 LINE SMOOTH",
"74 1132 OFFCURVE",
"49 1108 OFFCURVE",
"49 1076 CURVE SMOOTH",
"49 1043 OFFCURVE",
"74 1020 OFFCURVE",
"115 1020 CURVE SMOOTH",
"1377 1020 LINE SMOOTH",
"1419 1020 OFFCURVE",
"1445 1043 OFFCURVE",
"1445 1076 CURVE SMOOTH",
"1445 1108 OFFCURVE",
"1420 1132 OFFCURVE",
"1377 1132 CURVE SMOOTH"
);
}
);
width = 1490;
},
{
components = (
{
name = H;
}
);
layerId = "04B13600-F055-45EE-B953-7859ECDADD08";
paths = (
{
closed = 1;
nodes = (
"113 1135 LINE SMOOTH",
"70 1135 OFFCURVE",
"45 1109 OFFCURVE",
"45 1076 CURVE SMOOTH",
"45 1043 OFFCURVE",
"70 1018 OFFCURVE",
"113 1018 CURVE SMOOTH",
"1390 1018 LINE SMOOTH",
"1434 1018 OFFCURVE",
"1459 1043 OFFCURVE",
"1459 1076 CURVE SMOOTH",
"1459 1109 OFFCURVE",
"1434 1135 OFFCURVE",
"1390 1135 CURVE SMOOTH"
);
}
);
width = 1502;
},
{
components = (
{
name = H;
}
);
layerId = "A4C065E6-C319-4A8F-B4BD-A6F28D5DCD95";
paths = (
{
closed = 1;
nodes = (
"109 1139 LINE SMOOTH",
"64 1139 OFFCURVE",
"39 1110 OFFCURVE",
"39 1075 CURVE SMOOTH",
"39 1041 OFFCURVE",
"64 1012 OFFCURVE",
"109 1012 CURVE SMOOTH",
"1412 1012 LINE SMOOTH",
"1457 1012 OFFCURVE",
"1483 1041 OFFCURVE",
"1483 1075 CURVE SMOOTH",
"1483 1110 OFFCURVE",
"1459 1139 OFFCURVE",
"1412 1139 CURVE SMOOTH"
);
}
);
width = 1520;
},
{
components = (
{
name = H;
}
);
layerId = "8F6BE840-9356-4940-A488-AC64157678BA";
paths = (
{
closed = 1;
nodes = (
"106 1142 LINE SMOOTH",
"59 1142 OFFCURVE",
"34 1111 OFFCURVE",
"34 1075 CURVE SMOOTH",
"34 1040 OFFCURVE",
"59 1009 OFFCURVE",
"106 1009 CURVE SMOOTH",
"1430 1009 LINE SMOOTH",
"1476 1009 OFFCURVE",
"1502 1040 OFFCURVE",
"1502 1075 CURVE SMOOTH",
"1502 1111 OFFCURVE",
"1478 1142 OFFCURVE",
"1430 1142 CURVE SMOOTH"
);
}
);
width = 1535;
},
{
components = (
{
name = H;
}
);
layerId = "E1B555A7-F4E1-459C-9C1A-AE952106EEF9";
paths = (
{
closed = 1;
nodes = (
"101 1148 LINE SMOOTH",
"52 1148 OFFCURVE",
"27 1113 OFFCURVE",
"27 1075 CURVE SMOOTH",
"27 1038 OFFCURVE",
"52 1003 OFFCURVE",
"101 1003 CURVE SMOOTH",
"1455 1003 LINE SMOOTH",
"1504 1003 OFFCURVE",
"1530 1038 OFFCURVE",
"1530 1075 CURVE SMOOTH",
"1530 1113 OFFCURVE",
"1506 1148 OFFCURVE",
"1455 1148 CURVE SMOOTH"
);
}
);
width = 1557;
}
);
unicode = 0126;
userData = {
com.typemytype.robofont.layerData = {
b = {
anchors = (
);
components = (
);
contours = (
);
lib = {
};
name = Hbar;
unicodes = (
);
width = 1464;
};
};
};
},
{
glyphname = I;
lastChange = "2016-08-02 17:46:46 +0000";
layers = (
{
anchors = (
{
name = bottom;
position = "{283, 0}";
},
{
name = ogonek;
position = "{273, 24}";
},
{
name = top;
position = "{296, 1438}";
},
{
name = topleft;
position = "{20, 1419}";
}
);
layerId = "9E718F8A-2CEA-4931-B05D-987794BD97DA";
paths = (
{
closed = 1;
nodes = (
"221 56 LINE SMOOTH",
"221 18 OFFCURVE",
"253 -1 OFFCURVE",
"283 -1 CURVE SMOOTH",
"314 -1 OFFCURVE",
"346 16 OFFCURVE",
"346 56 CURVE SMOOTH",
"346 1359 LINE SMOOTH",
"346 1399 OFFCURVE",
"316 1418 OFFCURVE",
"285 1418 CURVE SMOOTH",
"254 1418 OFFCURVE",
"221 1397 OFFCURVE",
"221 1359 CURVE SMOOTH"
);
}
);
width = 565;
},
{
anchors = (
{
name = bottom;
position = "{292, 0}";
},
{
name = ogonek;
position = "{288, 23}";
},
{
name = top;
position = "{292, 1424}";
},
{
name = topleft;
position = "{20, 1424}";
}
);
layerId = "5FCC6278-3A1D-4B2B-A133-84AE53360430";
paths = (
{
closed = 1;
nodes = (
"212 76 LINE SMOOTH",
"212 25 OFFCURVE",
"252 0 OFFCURVE",
"292 0 CURVE SMOOTH",
"333 0 OFFCURVE",
"374 24 OFFCURVE",
"374 76 CURVE SMOOTH",
"374 1346 LINE SMOOTH",
"374 1398 OFFCURVE",
"334 1423 OFFCURVE",
"294 1423 CURVE SMOOTH",
"253 1423 OFFCURVE",
"212 1397 OFFCURVE",
"212 1346 CURVE SMOOTH"
);
}
);
width = 584;
},
{
anchors = (
{
name = bottom;
position = "{303, 0}";
},
{
name = ogonek;
position = "{304, 23}";
},
{
name = top;
position = "{308, 1438}";
},
{
name = topleft;
position = "{20, 1429}";
}
);
layerId = "334510DF-EE69-4F45-9EE4-32E3392006F4";
paths = (
{
closed = 1;
nodes = (
"202 97 LINE SMOOTH",
"202 33 OFFCURVE",
"252 1 OFFCURVE",
"302 1 CURVE SMOOTH",
"354 1 OFFCURVE",
"404 32 OFFCURVE",
"404 97 CURVE SMOOTH",
"404 1333 LINE SMOOTH",
"404 1398 OFFCURVE",
"354 1430 OFFCURVE",
"304 1430 CURVE SMOOTH",
"253 1430 OFFCURVE",
"202 1397 OFFCURVE",
"202 1333 CURVE SMOOTH"
);
}
);
width = 605;
},
{
anchors = (
{
name = bottom;
position = "{309, 0}";
},
{
name = ogonek;
position = "{314, 22}";
},
{
name = top;
position = "{311, 1438}";
},
{
name = topleft;
position = "{20, 1433}";
}
);
layerId = "F812A762-7E77-4DA4-9A10-AD66CDB59C76";
paths = (
{
closed = 1;
nodes = (
"196 110 LINE SMOOTH",
"196 38 OFFCURVE",
"251 1 OFFCURVE",
"308 1 CURVE SMOOTH",
"366 1 OFFCURVE",
"423 37 OFFCURVE",
"423 110 CURVE SMOOTH",
"423 1324 LINE SMOOTH",
"423 1397 OFFCURVE",
"367 1434 OFFCURVE",
"310 1434 CURVE SMOOTH",
"252 1434 OFFCURVE",
"196 1397 OFFCURVE",
"196 1324 CURVE SMOOTH"
);
}
);
width = 617;
},
{
anchors = (
{
name = bottom;
position = "{314, 0}";
},
{
name = ogonek;
position = "{322, 22}";
},
{
name = top;
position = "{314, 1438}";
},
{
name = topleft;
position = "{20, 1436}";
}
);
layerId = "04B13600-F055-45EE-B953-7859ECDADD08";
paths = (
{
closed = 1;
nodes = (
"190 121 LINE SMOOTH",
"190 42 OFFCURVE",
"251 2 OFFCURVE",
"314 2 CURVE SMOOTH",
"377 2 OFFCURVE",
"439 41 OFFCURVE",
"439 121 CURVE SMOOTH",
"439 1317 LINE SMOOTH",
"439 1397 OFFCURVE",
"377 1437 OFFCURVE",
"315 1437 CURVE SMOOTH",
"252 1437 OFFCURVE",
"190 1397 OFFCURVE",
"190 1317 CURVE SMOOTH"
);
}
);
width = 628;
},
{
anchors = (
{
name = bottom;
position = "{324, 0}";
},
{
name = ogonek;
position = "{332, 22}";
},
{
name = top;
position = "{323, 1438}";
},
{
name = topleft;
position = "{20, 1442}";
}
);
layerId = "A4C065E6-C319-4A8F-B4BD-A6F28D5DCD95";
paths = (
{
closed = 1;
nodes = (
"181 150 LINE SMOOTH",
"181 57 OFFCURVE",
"249 1 OFFCURVE",
"323 1 CURVE SMOOTH",
"398 1 OFFCURVE",
"468 57 OFFCURVE",
"468 150 CURVE SMOOTH",
"468 1295 LINE SMOOTH",
"468 1388 OFFCURVE",
"398 1444 OFFCURVE",
"324 1444 CURVE SMOOTH",
"250 1444 OFFCURVE",
"181 1388 OFFCURVE",
"181 1295 CURVE SMOOTH"
);
}
);
width = 647;
},
{
anchors = (
{
name = bottom;
position = "{332, 0}";
},
{
name = ogonek;
position = "{337, 23}";
},
{
name = top;
position = "{332, 1438}";
},
{
name = topleft;
position = "{20, 1446}";
}
);
layerId = "8F6BE840-9356-4940-A488-AC64157678BA";
paths = (
{
closed = 1;
nodes = (
"172 169 LINE SMOOTH",
"172 70 OFFCURVE",
"246 1 OFFCURVE",
"332 1 CURVE SMOOTH",
"418 1 OFFCURVE",
"493 70 OFFCURVE",
"493 169 CURVE SMOOTH",
"493 1279 LINE SMOOTH",
"493 1379 OFFCURVE",
"418 1448 OFFCURVE",
"332 1448 CURVE SMOOTH",
"246 1448 OFFCURVE",
"172 1379 OFFCURVE",
"172 1279 CURVE SMOOTH"
);
}
);
width = 664;
},
{
anchors = (
{
name = bottom;
position = "{344, 0}";
},
{
name = ogonek;
position = "{344, 23}";
},
{
name = top;
position = "{345, 1438}";
},
{
name = topleft;
position = "{20, 1456}";
}
);
layerId = "E1B555A7-F4E1-459C-9C1A-AE952106EEF9";
paths = (
{
closed = 1;
nodes = (
"160 208 LINE SMOOTH",
"160 94 OFFCURVE",
"241 0 OFFCURVE",
"343 0 CURVE SMOOTH",
"446 0 OFFCURVE",
"528 94 OFFCURVE",
"528 208 CURVE SMOOTH",
"528 1247 LINE SMOOTH",
"528 1361 OFFCURVE",
"446 1456 OFFCURVE",
"344 1456 CURVE SMOOTH",
"241 1456 OFFCURVE",
"160 1361 OFFCURVE",
"160 1247 CURVE SMOOTH"
);
}
);
width = 688;
}
);
unicode = 0049;
userData = {
anchors = (
);
b = {
};
com.typemytype.robofont.layerData = {
b = {
anchors = (
);
components = (
);
contours = (
);
lib = {
};
name = I;
unicodes = (
);
width = 592;
};
};
components = (
);
contours = (
);
lib = {
};
name = I;
unicodes = (
);
width = 637;
};
},
{
glyphname = J;
lastChange = "2016-08-02 17:50:15 +0000";
layers = (
{
anchors = (
{
name = bottom;
position = "{485, 0}";
},
{
name = top;
position = "{769, 1438}";
}
);
layerId = "9E718F8A-2CEA-4931-B05D-987794BD97DA";
paths = (
{
closed = 1;
nodes = (
"832 1363 LINE SMOOTH",
"832 1401 OFFCURVE",
"801 1419 OFFCURVE",
"769 1419 CURVE SMOOTH",
"738 1419 OFFCURVE",
"705 1401 OFFCURVE",
"705 1363 CURVE SMOOTH",
"705 453 LINE SMOOTH",
"705 203 OFFCURVE",
"600 88 OFFCURVE",
"421 88 CURVE SMOOTH",
"313 88 OFFCURVE",
"242 135 OFFCURVE",
"215 170 CURVE",
"182 199 OFFCURVE",
"154 210 OFFCURVE",
"132 210 CURVE SMOOTH",
"99 210 OFFCURVE",
"85 184 OFFCURVE",
"85 157 CURVE SMOOTH",
"85 142 OFFCURVE",
"91 140 OFFCURVE",
"80 130 CURVE",
"101 82 OFFCURVE",
"243 -17 OFFCURVE",
"406 -17 CURVE SMOOTH",
"609 -17 OFFCURVE",
"832 104 OFFCURVE",
"832 440 CURVE SMOOTH"
);
}
);
width = 970;
},
{
anchors = (
{
name = bottom;
position = "{497, 0}";
},
{
name = top;
position = "{771, 1446}";
}
);
layerId = "5FCC6278-3A1D-4B2B-A133-84AE53360430";
paths = (
{
closed = 1;
nodes = (
"852 1349 LINE SMOOTH",
"852 1400 OFFCURVE",
"812 1424 OFFCURVE",
"771 1424 CURVE SMOOTH",
"730 1424 OFFCURVE",
"689 1400 OFFCURVE",
"689 1349 CURVE SMOOTH",
"689 455 LINE SMOOTH",
"689 217 OFFCURVE",
"593 114 OFFCURVE",
"422 114 CURVE SMOOTH",
"323 114 OFFCURVE",
"250 157 OFFCURVE",
"213 190 CURVE",
"185 213 OFFCURVE",
"161 222 OFFCURVE",
"141 222 CURVE SMOOTH",
"102 222 OFFCURVE",
"81 187 OFFCURVE",
"81 151 CURVE SMOOTH",
"81 132 OFFCURVE",
"86 117 OFFCURVE",
"94 105 CURVE",
"132 60 OFFCURVE",
"253 -20 OFFCURVE",
"416 -20 CURVE SMOOTH",
"633 -20 OFFCURVE",
"852 103 OFFCURVE",
"852 441 CURVE SMOOTH"
);
}
);
width = 993;
},
{
anchors = (
{
name = bottom;
position = "{509, 0}";
},
{
name = top;
position = "{772, 1438}";
}
);
layerId = "334510DF-EE69-4F45-9EE4-32E3392006F4";
paths = (
{
closed = 1;
nodes = (
"874 1334 LINE SMOOTH",
"874 1398 OFFCURVE",
"825 1429 OFFCURVE",
"773 1429 CURVE SMOOTH",
"722 1429 OFFCURVE",
"671 1398 OFFCURVE",
"671 1334 CURVE SMOOTH",
"671 457 LINE SMOOTH",
"671 233 OFFCURVE",
"586 144 OFFCURVE",
"424 144 CURVE SMOOTH",
"333 144 OFFCURVE",
"260 181 OFFCURVE",
"211 212 CURVE",
"188 229 OFFCURVE",
"168 235 OFFCURVE",
"151 235 CURVE SMOOTH",
"105 235 OFFCURVE",
"76 190 OFFCURVE",
"76 145 CURVE SMOOTH",
"76 115 OFFCURVE",
"87 92 OFFCURVE",
"109 77 CURVE",
"165 35 OFFCURVE",
"263 -25 OFFCURVE",
"427 -25 CURVE SMOOTH",
"661 -25 OFFCURVE",
"874 103 OFFCURVE",
"874 442 CURVE SMOOTH"
);
}
);
width = 1018;
},
{
anchors = (
{
name = bottom;
position = "{517, 0}";
},
{
name = top;
position = "{773, 1438}";
}
);
layerId = "F812A762-7E77-4DA4-9A10-AD66CDB59C76";
paths = (
{
closed = 1;
nodes = (
"888 1325 LINE SMOOTH",
"888 1397 OFFCURVE",
"832 1433 OFFCURVE",
"775 1433 CURVE SMOOTH",
"717 1433 OFFCURVE",
"660 1397 OFFCURVE",
"660 1325 CURVE SMOOTH",
"660 459 LINE SMOOTH",
"660 242 OFFCURVE",
"581 162 OFFCURVE",
"425 162 CURVE SMOOTH",
"340 162 OFFCURVE",
"265 195 OFFCURVE",
"209 226 CURVE",
"190 238 OFFCURVE",
"173 243 OFFCURVE",
"157 243 CURVE SMOOTH",
"106 243 OFFCURVE",
"73 192 OFFCURVE",
"73 142 CURVE SMOOTH",
"73 105.834 OFFCURVE",
"88.115 77.71 OFFCURVE",
"118 60 CURVE SMOOTH",
"186 20 OFFCURVE",
"270 -27 OFFCURVE",
"433 -27 CURVE SMOOTH",
"677 -27 OFFCURVE",
"888 102 OFFCURVE",
"888 442 CURVE SMOOTH"
);
}
);
width = 1034;
},
{
anchors = (
{
name = bottom;
position = "{524, 0}";
},
{
name = top;
position = "{774, 1438}";
}
);
layerId = "04B13600-F055-45EE-B953-7859ECDADD08";
paths = (
{
closed = 1;
nodes = (
"899 1317 LINE SMOOTH",
"899 1396 OFFCURVE",
"839 1436 OFFCURVE",
"776 1436 CURVE SMOOTH",
"713 1436 OFFCURVE",
"651 1396 OFFCURVE",
"651 1317 CURVE SMOOTH",
"651 460 LINE SMOOTH",
"651 250 OFFCURVE",
"577 177 OFFCURVE",
"425 177 CURVE SMOOTH",
"345 177 OFFCURVE",
"270 208 OFFCURVE",
"208 237 CURVE",
"192 246 OFFCURVE",
"177 250 OFFCURVE",
"163 250 CURVE SMOOTH",
"108 250 OFFCURVE",
"71 194 OFFCURVE",
"71 139 CURVE SMOOTH",
"71 97.747 OFFCURVE",
"88.927 64.536 OFFCURVE",
"126 46 CURVE SMOOTH",
"203 7 OFFCURVE",
"275 -29 OFFCURVE",
"439 -29 CURVE SMOOTH",
"691 -29 OFFCURVE",
"899 102 OFFCURVE",
"899 443 CURVE SMOOTH"
);
}
);
width = 1047;
},
{
anchors = (
{
name = bottom;
position = "{541, 0}";
},
{
name = top;
position = "{791, 1438}";
}
);
layerId = "A4C065E6-C319-4A8F-B4BD-A6F28D5DCD95";
paths = (
{
closed = 1;
nodes = (
"935 1294 LINE SMOOTH",
"935 1387 OFFCURVE",
"866 1443 OFFCURVE",
"792 1443 CURVE SMOOTH",
"717 1443 OFFCURVE",
"648 1387 OFFCURVE",
"648 1294 CURVE SMOOTH",
"648 474 LINE SMOOTH",
"648 280 OFFCURVE",
"581 216 OFFCURVE",
"437 216 CURVE SMOOTH",
"363 216 OFFCURVE",
"290 246 OFFCURVE",
"229 275 CURVE",
"211 287 OFFCURVE",
"193 292 OFFCURVE",
"177 292 CURVE SMOOTH",
"114 292 OFFCURVE",
"69 228 OFFCURVE",
"69 162 CURVE SMOOTH",
"69 114 OFFCURVE",
"90 76 OFFCURVE",
"132 52 CURVE SMOOTH",
"219 -1 OFFCURVE",
"297 -32 OFFCURVE",
"458 -32 CURVE SMOOTH",
"731 -32 OFFCURVE",
"935 113 OFFCURVE",
"935 452 CURVE SMOOTH"
);
}
);
width = 1081;
},
{
anchors = (
{
name = bottom;
position = "{559, 0}";
},
{
name = top;
position = "{817, 1438}";
}
);
layerId = "8F6BE840-9356-4940-A488-AC64157678BA";
paths = (
{
closed = 1;
nodes = (
"977 1279 LINE SMOOTH",
"977 1378 OFFCURVE",
"902 1447 OFFCURVE",
"817 1447 CURVE SMOOTH",
"730 1447 OFFCURVE",
"656 1378 OFFCURVE",
"656 1279 CURVE SMOOTH",
"656 486 LINE SMOOTH",
"656 302 OFFCURVE",
"593 242 OFFCURVE",
"454 242 CURVE SMOOTH",
"383 242 OFFCURVE",
"315 273 OFFCURVE",
"263 302 CURVE",
"239 320 OFFCURVE",
"214 328 OFFCURVE",
"192 328 CURVE SMOOTH",
"122 328 OFFCURVE",
"70 260 OFFCURVE",
"70 187 CURVE SMOOTH",
"70 136.738 OFFCURVE",
"89.918 99.811 OFFCURVE",
"131 69 CURVE SMOOTH",
"220 3 OFFCURVE",
"324 -33 OFFCURVE",
"480 -33 CURVE SMOOTH",
"777 -33 OFFCURVE",
"976 124 OFFCURVE",
"976 462 CURVE SMOOTH"
);
}
);
width = 1118;
},
{
anchors = (
{
name = bottom;
position = "{586, 0}";
},
{
name = top;
position = "{854, 1438}";
}
);
layerId = "E1B555A7-F4E1-459C-9C1A-AE952106EEF9";
paths = (
{
closed = 1;
nodes = (
"1036 1248 LINE SMOOTH",
"1036 1361 OFFCURVE",
"954 1456 OFFCURVE",
"851 1456 CURVE SMOOTH",
"749 1456 OFFCURVE",
"668 1361 OFFCURVE",
"668 1248 CURVE SMOOTH",
"668 511 LINE SMOOTH",
"668 347 OFFCURVE",
"609 294 OFFCURVE",
"478 294 CURVE SMOOTH",
"413 294 OFFCURVE",
"351 328 OFFCURVE",
"313 357 CURVE",
"279 387 OFFCURVE",
"245 400 OFFCURVE",
"214 400 CURVE SMOOTH",
"134 400 OFFCURVE",
"71 326 OFFCURVE",
"71 238 CURVE SMOOTH",
"71 187 OFFCURVE",
"92 143 OFFCURVE",
"130 105 CURVE SMOOTH",
"221 9 OFFCURVE",
"363 -35 OFFCURVE",
"512 -35 CURVE SMOOTH",
"842 -35 OFFCURVE",
"1034 146 OFFCURVE",
"1035 480 CURVE SMOOTH"
);
}
);
width = 1171;
}
);
unicode = 004A;
userData = {
anchors = (
);
b = {
};
com.typemytype.robofont.layerData = {
b = {
anchors = (
);
components = (
);
contours = (
);
lib = {
};
name = J;
unicodes = (
);
width = 1003;
};
};
components = (
);
contours = (
);
lib = {
};
name = J;
unicodes = (
);
width = 1126;
};
},
{
glyphname = K;
lastChange = "2016-08-02 18:04:18 +0000";
layers = (
{
anchors = (
{
name = bottom;
position = "{629, 0}";
},
{
name = top;
position = "{633, 1438}";
}
);
layerId = "9E718F8A-2CEA-4931-B05D-987794BD97DA";
paths = (
{
closed = 1;
nodes = (
"300 740 LINE",
"300 1361 LINE SMOOTH",
"300 1398 OFFCURVE",
"270 1419 OFFCURVE",
"241 1419 CURVE SMOOTH",
"210 1419 OFFCURVE",
"180 1399 OFFCURVE",
"180 1361 CURVE SMOOTH",
"180 57 LINE SMOOTH",
"180 18 OFFCURVE",
"210 0 OFFCURVE",
"238 0 CURVE SMOOTH",
"269 0 OFFCURVE",
"300 17 OFFCURVE",
"300 57 CURVE SMOOTH",
"300 708 LINE",
"1028 20 LINE",
"1044 8 OFFCURVE",
"1061 -1 OFFCURVE",
"1076 -1 CURVE SMOOTH",
"1111 -1 OFFCURVE",
"1131 20 OFFCURVE",
"1131 52 CURVE SMOOTH",
"1131 67 OFFCURVE",
"1126 83 OFFCURVE",
"1111 96 CURVE SMOOTH",
"428 729 LINE",
"1057 1331 LINE SMOOTH",
"1070 1343 OFFCURVE",
"1075 1358 OFFCURVE",
"1075 1372 CURVE SMOOTH",
"1075 1399 OFFCURVE",
"1058 1420 OFFCURVE",
"1027 1420 CURVE SMOOTH",
"1013 1420 OFFCURVE",
"998 1416 OFFCURVE",
"984 1404 CURVE"
);
}
);
width = 1185;
},
{
anchors = (
{
name = bottom;
position = "{613, 0}";
},
{
name = top;
position = "{613, 1424}";
}
);
layerId = "5FCC6278-3A1D-4B2B-A133-84AE53360430";
paths = (
{
closed = 1;
nodes = (
"337 752 LINE",
"337 1348 LINE SMOOTH",
"337 1397 OFFCURVE",
"297 1424 OFFCURVE",
"258 1424 CURVE SMOOTH",
"218 1424 OFFCURVE",
"179 1398 OFFCURVE",
"179 1348 CURVE SMOOTH",
"179 75 LINE SMOOTH",
"179 24 OFFCURVE",
"218 0 OFFCURVE",
"256 0 CURVE SMOOTH",
"296 0 OFFCURVE",
"337 24 OFFCURVE",
"337 75 CURVE SMOOTH",
"337 709 LINE",
"1021 31 LINE SMOOTH",
"1041 12 OFFCURVE",
"1062 0 OFFCURVE",
"1084 0 CURVE SMOOTH",
"1127 0 OFFCURVE",
"1160 29 OFFCURVE",
"1160 71 CURVE SMOOTH",
"1160 88 OFFCURVE",
"1155 107 OFFCURVE",
"1138 123 CURVE SMOOTH",
"503 738 LINE",
"1085 1311 LINE SMOOTH",
"1099 1325 OFFCURVE",
"1104 1343 OFFCURVE",
"1104 1359 CURVE SMOOTH",
"1104 1396 OFFCURVE",
"1076 1424 OFFCURVE",
"1036 1424 CURVE SMOOTH",
"1016 1424 OFFCURVE",
"997 1416 OFFCURVE",
"978 1398 CURVE SMOOTH"
);
}
);
width = 1226;
},
{
anchors = (
{
name = bottom;
position = "{654, 0}";
},
{
name = top;
position = "{640, 1438}";
}
);
layerId = "334510DF-EE69-4F45-9EE4-32E3392006F4";
paths = (
{
closed = 1;
nodes = (
"378 765 LINE",
"378 1333 LINE SMOOTH",
"378 1397 OFFCURVE",
"327 1429 OFFCURVE",
"278 1429 CURVE SMOOTH",
"228 1429 OFFCURVE",
"177 1397 OFFCURVE",
"177 1333 CURVE SMOOTH",
"177 95 LINE SMOOTH",
"177 31 OFFCURVE",
"226 0 OFFCURVE",
"276 0 CURVE SMOOTH",
"326 0 OFFCURVE",
"378 31 OFFCURVE",
"378 95 CURVE SMOOTH",
"378 709 LINE",
"1013 42 LINE SMOOTH",
"1038 15 OFFCURVE",
"1064 0 OFFCURVE",
"1092 0 CURVE SMOOTH",
"1145 0 OFFCURVE",
"1191 39 OFFCURVE",
"1191 92 CURVE SMOOTH",
"1191 111 OFFCURVE",
"1186 133 OFFCURVE",
"1168 152 CURVE SMOOTH",
"585 748 LINE",
"1115 1290 LINE SMOOTH",
"1132 1307 OFFCURVE",
"1137 1327 OFFCURVE",
"1137 1346 CURVE SMOOTH",
"1137 1393 OFFCURVE",
"1094 1429 OFFCURVE",
"1046 1429 CURVE SMOOTH",
"1019 1429 OFFCURVE",
"995 1416 OFFCURVE",
"971 1391 CURVE SMOOTH"
);
}
);
width = 1271;
},
{
anchors = (
{
name = bottom;
position = "{662, 0}";
},
{
name = top;
position = "{642, 1438}";
}
);
layerId = "F812A762-7E77-4DA4-9A10-AD66CDB59C76";
paths = (
{
closed = 1;
nodes = (
"402 773 LINE",
"402 1325 LINE SMOOTH",
"402 1396 OFFCURVE",
"345 1433 OFFCURVE",
"290 1433 CURVE SMOOTH",
"233 1433 OFFCURVE",
"176 1397 OFFCURVE",
"176 1325 CURVE SMOOTH",
"176 108 LINE SMOOTH",
"176 35 OFFCURVE",
"232 0 OFFCURVE",
"288 0 CURVE SMOOTH",
"344 0 OFFCURVE",
"402 36 OFFCURVE",
"402 108 CURVE SMOOTH",
"402 710 LINE",
"1008 49 LINE SMOOTH",
"1037 17 OFFCURVE",
"1065 1 OFFCURVE",
"1097 1 CURVE SMOOTH",
"1156 1 OFFCURVE",
"1210 45 OFFCURVE",
"1210 104 CURVE SMOOTH",
"1210 125 OFFCURVE",
"1206 148 OFFCURVE",
"1186 169 CURVE SMOOTH",
"635 754 LINE",
"1134 1277 LINE SMOOTH",
"1151 1295 OFFCURVE",
"1156 1317 OFFCURVE",
"1156 1337 CURVE SMOOTH",
"1156 1391 OFFCURVE",
"1106 1432 OFFCURVE",
"1052 1432 CURVE SMOOTH",
"1021 1432 OFFCURVE",
"994 1416 OFFCURVE",
"967 1387 CURVE SMOOTH"
);
}
);
width = 1299;
},
{
anchors = (
{
name = bottom;
position = "{668, 0}";
},
{
name = top;
position = "{644, 1438}";
}
);
layerId = "04B13600-F055-45EE-B953-7859ECDADD08";
paths = (
{
closed = 1;
nodes = (
"423 779 LINE",
"423 1317 LINE SMOOTH",
"423 1396 OFFCURVE",
"361 1436 OFFCURVE",
"300 1436 CURVE SMOOTH",
"238 1436 OFFCURVE",
"176 1396 OFFCURVE",
"176 1317 CURVE SMOOTH",
"176 118 LINE SMOOTH",
"176 39 OFFCURVE",
"236 0 OFFCURVE",
"298 0 CURVE SMOOTH",
"360 0 OFFCURVE",
"423 40 OFFCURVE",
"423 118 CURVE SMOOTH",
"423 710 LINE",
"1004 55 LINE SMOOTH",
"1035 19 OFFCURVE",
"1065 1 OFFCURVE",
"1101 1 CURVE SMOOTH",
"1165 1 OFFCURVE",
"1226 51 OFFCURVE",
"1226 115 CURVE SMOOTH",
"1226 137 OFFCURVE",
"1222 162 OFFCURVE",
"1202 184 CURVE SMOOTH",
"678 759 LINE",
"1150 1266 LINE SMOOTH",
"1168 1285 OFFCURVE",
"1173 1309 OFFCURVE",
"1173 1330 CURVE SMOOTH",
"1173 1389 OFFCURVE",
"1116 1434 OFFCURVE",
"1057 1434 CURVE SMOOTH",
"1023 1434 OFFCURVE",
"993 1416 OFFCURVE",
"963 1383 CURVE SMOOTH"
);
}
);
width = 1322;
},
{
anchors = (
{
name = bottom;
position = "{682, 0}";
},
{
name = top;
position = "{658, 1438}";
}
);
layerId = "A4C065E6-C319-4A8F-B4BD-A6F28D5DCD95";
paths = (
{
closed = 1;
nodes = (
"457 788 LINE",
"457 1295 LINE SMOOTH",
"457 1387 OFFCURVE",
"386 1443 OFFCURVE",
"313 1443 CURVE SMOOTH",
"240 1443 OFFCURVE",
"170 1387 OFFCURVE",
"170 1295 CURVE SMOOTH",
"170 147 LINE SMOOTH",
"170 55 OFFCURVE",
"238 0 OFFCURVE",
"313 0 CURVE SMOOTH",
"386 0 OFFCURVE",
"457 56 OFFCURVE",
"457 147 CURVE SMOOTH",
"457 711 LINE",
"991 93 LINE SMOOTH",
"1050 24 OFFCURVE",
"1065 1 OFFCURVE",
"1119 1 CURVE SMOOTH",
"1190 1 OFFCURVE",
"1261 59 OFFCURVE",
"1261 133 CURVE SMOOTH",
"1261 166 OFFCURVE",
"1247 205 OFFCURVE",
"1222 239 CURVE",
"753 762 LINE",
"1175 1219 LINE",
"1200 1249 OFFCURVE",
"1214 1285 OFFCURVE",
"1214 1316 CURVE SMOOTH",
"1214 1387 OFFCURVE",
"1147 1441 OFFCURVE",
"1080 1441 CURVE SMOOTH",
"1036 1441 OFFCURVE",
"1001 1410 OFFCURVE",
"963 1363 CURVE"
);
}
);
width = 1358;
},
{
anchors = (
{
name = bottom;
position = "{694, 0}";
},
{
name = top;
position = "{677, 1438}";
}
);
layerId = "8F6BE840-9356-4940-A488-AC64157678BA";
paths = (
{
closed = 1;
nodes = (
"482 790 LINE",
"483 1279 LINE SMOOTH",
"483 1379 OFFCURVE",
"405 1447 OFFCURVE",
"322 1447 CURVE SMOOTH",
"237 1447 OFFCURVE",
"162 1379 OFFCURVE",
"162 1279 CURVE SMOOTH",
"162 168 LINE SMOOTH",
"162 68 OFFCURVE",
"236 0 OFFCURVE",
"322 0 CURVE SMOOTH",
"407 0 OFFCURVE",
"483 69 OFFCURVE",
"483 168 CURVE",
"482 712 LINE",
"976 127 LINE",
"1023 67 OFFCURVE",
"1072 0 OFFCURVE",
"1141 0 CURVE SMOOTH",
"1217 0 OFFCURVE",
"1295 62 OFFCURVE",
"1295 143 CURVE SMOOTH",
"1295 184 OFFCURVE",
"1266 237 OFFCURVE",
"1232 280 CURVE",
"815 762 LINE",
"1195 1181 LINE SMOOTH",
"1228 1220 OFFCURVE",
"1257 1268 OFFCURVE",
"1257 1308 CURVE SMOOTH",
"1257 1387 OFFCURVE",
"1184 1446 OFFCURVE",
"1111 1446 CURVE SMOOTH",
"1055 1446 OFFCURVE",
"1016 1405 OFFCURVE",
"967 1345 CURVE SMOOTH"
);
}
);
width = 1383;
},
{
anchors = (
{
name = bottom;
position = "{712, 0}";
},
{
name = top;
position = "{705, 1438}";
}
);
layerId = "E1B555A7-F4E1-459C-9C1A-AE952106EEF9";
paths = (
{
closed = 1;
nodes = (
"517 796 LINE",
"519 1247 LINE SMOOTH",
"519 1361 OFFCURVE",
"433 1456 OFFCURVE",
"334 1456 CURVE SMOOTH",
"232 1456 OFFCURVE",
"151 1361 OFFCURVE",
"151 1247 CURVE SMOOTH",
"151 209 LINE SMOOTH",
"151 95 OFFCURVE",
"232 0 OFFCURVE",
"334 0 CURVE SMOOTH",
"437 0 OFFCURVE",
"519 95 OFFCURVE",
"519 209 CURVE",
"517 715 LINE",
"954 193 LINE",
"1012 112 OFFCURVE",
"1077 0 OFFCURVE",
"1172 0 CURVE SMOOTH",
"1255 0 OFFCURVE",
"1343 68 OFFCURVE",
"1343 161 CURVE SMOOTH",
"1343 221 OFFCURVE",
"1292 301 OFFCURVE",
"1247 364 CURVE",
"904 761 LINE",
"1224 1105 LINE",
"1268 1163 OFFCURVE",
"1318 1234 OFFCURVE",
"1318 1293 CURVE SMOOTH",
"1318 1386 OFFCURVE",
"1237 1455 OFFCURVE",
"1155 1455 CURVE SMOOTH",
"1083 1455 OFFCURVE",
"1037 1393 OFFCURVE",
"974 1310 CURVE"
);
}
);
width = 1419;
}
);
unicode = 004B;
userData = {
anchors = (
);
b = {
};
com.typemytype.robofont.layerData = {
b = {
anchors = (
);
components = (
);
contours = (
);
lib = {
};
name = K;
unicodes = (
);
width = 1210;
};
};
components = (
);
contours = (
);
lib = {
};
name = K;
unicodes = (
);
width = 1329;
};
},
{
glyphname = L;
lastChange = "2016-08-02 18:09:11 +0000";
layers = (
{
anchors = (
{
name = bottom;
position = "{647, 0}";
},
{
name = caron.alt;
position = "{808, 764}";
},
{
name = center;
position = "{538, 710}";
},
{
name = mid;
position = "{243, 672}";
},
{
name = top;
position = "{234, 1462}";
},
{
name = topright;
position = "{1055, 1419}";
}
);
layerId = "9E718F8A-2CEA-4931-B05D-987794BD97DA";
paths = (
{
closed = 1;
nodes = (
"306 99 LINE",
"306 1363 LINE SMOOTH",
"306 1401 OFFCURVE",
"275 1420 OFFCURVE",
"245 1420 CURVE SMOOTH",
"213 1420 OFFCURVE",
"181 1399 OFFCURVE",
"181 1363 CURVE SMOOTH",
"181 59 LINE SMOOTH",
"181 25 OFFCURVE",
"210 0 OFFCURVE",
"244 0 CURVE SMOOTH",
"993 0 LINE SMOOTH",
"1031 0 OFFCURVE",
"1051 22 OFFCURVE",
"1051 49 CURVE SMOOTH",
"1051 78 OFFCURVE",
"1034 99 OFFCURVE",
"993 99 CURVE SMOOTH"
);
}
);
width = 1075;
},
{
anchors = (
{
name = bottom;
position = "{545, 0}";
},
{
name = caron.alt;
position = "{656, 846}";
},
{
name = center;
position = "{545, 712}";
},
{
name = mid;
position = "{259, 691}";
},
{
name = top;
position = "{545, 1424}";
},
{
name = topright;
position = "{1069, 1424}";
}
);
layerId = "5FCC6278-3A1D-4B2B-A133-84AE53360430";
paths = (
{
closed = 1;
nodes = (
"341 128 LINE",
"341 1348 LINE SMOOTH",
"341 1399 OFFCURVE",
"301 1424 OFFCURVE",
"261 1424 CURVE SMOOTH",
"220 1424 OFFCURVE",
"179 1398 OFFCURVE",
"179 1348 CURVE SMOOTH",
"179 79 LINE SMOOTH",
"179 34 OFFCURVE",
"217 0 OFFCURVE",
"261 0 CURVE SMOOTH",
"1000 0 LINE SMOOTH",
"1046 0 OFFCURVE",
"1069 30 OFFCURVE",
"1069 64 CURVE SMOOTH",
"1069 98 OFFCURVE",
"1048 128 OFFCURVE",
"1000 128 CURVE SMOOTH"
);
}
);
width = 1089;
},
{
anchors = (
{
name = bottom;
position = "{662, 0}";
},
{
name = caron.alt;
position = "{417, 1005}";
},
{
name = center;
position = "{553, 715}";
},
{
name = mid;
position = "{277, 712}";
},
{
name = top;
position = "{428, 1449}";
},
{
name = topright;
position = "{1085, 1429}";
}
);
layerId = "334510DF-EE69-4F45-9EE4-32E3392006F4";
paths = (
{
closed = 1;
nodes = (
"379 161 LINE",
"379 1332 LINE SMOOTH",
"379 1397 OFFCURVE",
"329 1429 OFFCURVE",
"279 1429 CURVE SMOOTH",
"227 1429 OFFCURVE",
"177 1396 OFFCURVE",
"177 1332 CURVE SMOOTH",
"177 100 LINE SMOOTH",
"177 44 OFFCURVE",
"224 0 OFFCURVE",
"279 0 CURVE SMOOTH",
"1008 0 LINE SMOOTH",
"1062 0 OFFCURVE",
"1089 40 OFFCURVE",
"1089 80 CURVE SMOOTH",
"1089 120 OFFCURVE",
"1063 161 OFFCURVE",
"1008 161 CURVE SMOOTH"
);
}
);
width = 1105;
},
{
anchors = (
{
name = bottom;
position = "{667, 0}";
},
{
name = caron.alt;
position = "{373, 1018}";
},
{
name = center;
position = "{557, 717}";
},
{
name = mid;
position = "{287, 724}";
},
{
name = top;
position = "{489, 1445}";
},
{
name = topright;
position = "{1094, 1433}";
}
);
layerId = "F812A762-7E77-4DA4-9A10-AD66CDB59C76";
paths = (
{
closed = 1;
nodes = (
"402 180 LINE",
"402 1322 LINE SMOOTH",
"402 1395 OFFCURVE",
"347 1432 OFFCURVE",
"290 1432 CURVE SMOOTH",
"232 1432 OFFCURVE",
"175 1395 OFFCURVE",
"175 1322 CURVE SMOOTH",
"175 113 LINE SMOOTH",
"175 50 OFFCURVE",
"229 0 OFFCURVE",
"290 0 CURVE SMOOTH",
"1013 0 LINE SMOOTH",
"1072 0 OFFCURVE",
"1102 45 OFFCURVE",
"1102 90 CURVE SMOOTH",
"1102 134 OFFCURVE",
"1072 180 OFFCURVE",
"1013 180 CURVE SMOOTH"
);
}
);
width = 1114;
},
{
anchors = (
{
name = bottom;
position = "{671, 0}";
},
{
name = caron.alt;
position = "{335, 1030}";
},
{
name = center;
position = "{561, 718}";
},
{
name = mid;
position = "{296, 735}";
},
{
name = top;
position = "{542, 1441}";
},
{
name = topright;
position = "{1102, 1436}";
}
);
layerId = "04B13600-F055-45EE-B953-7859ECDADD08";
paths = (
{
closed = 1;
nodes = (
"422 197 LINE",
"422 1314 LINE SMOOTH",
"422 1394 OFFCURVE",
"362 1434 OFFCURVE",
"299 1434 CURVE SMOOTH",
"236 1434 OFFCURVE",
"174 1394 OFFCURVE",
"174 1314 CURVE SMOOTH",
"174 124 LINE SMOOTH",
"174 55 OFFCURVE",
"233 0 OFFCURVE",
"300 0 CURVE SMOOTH",
"1017 0 LINE SMOOTH",
"1080 0 OFFCURVE",
"1112 50 OFFCURVE",
"1112 98 CURVE SMOOTH",
"1112 145 OFFCURVE",
"1080 197 OFFCURVE",
"1017 197 CURVE SMOOTH"
);
}
);
width = 1122;
},
{
anchors = (
{
name = bottom;
position = "{674, 0}";
},
{
name = caron.alt;
position = "{330, 1030}";
},
{
name = center;
position = "{571, 721}";
},
{
name = mid;
position = "{311, 744}";
},
{
name = top;
position = "{558, 1441}";
},
{
name = topright;
position = "{1121, 1442}";
}
);
layerId = "A4C065E6-C319-4A8F-B4BD-A6F28D5DCD95";
paths = (
{
closed = 1;
nodes = (
"456 228 LINE",
"455 1292 LINE",
"455 1385 OFFCURVE",
"387 1441 OFFCURVE",
"313 1441 CURVE SMOOTH",
"238 1441 OFFCURVE",
"168 1385 OFFCURVE",
"168 1292 CURVE SMOOTH",
"168 175 LINE SMOOTH",
"168 82 OFFCURVE",
"227 0 OFFCURVE",
"314 0 CURVE SMOOTH",
"1020 0 LINE SMOOTH",
"1088 0 OFFCURVE",
"1128 56 OFFCURVE",
"1128 113 CURVE SMOOTH",
"1128 170 OFFCURVE",
"1088 228 OFFCURVE",
"1020 228 CURVE SMOOTH"
);
}
);
width = 1141;
},
{
anchors = (
{
name = bottom;
position = "{674, 0}";
},
{
name = caron.alt;
position = "{373, 1015}";
},
{
name = center;
position = "{581, 723}";
},
{
name = mid;
position = "{322, 743}";
},
{
name = top;
position = "{513, 1446}";
},
{
name = topright;
position = "{1141, 1446}";
}
);
layerId = "8F6BE840-9356-4940-A488-AC64157678BA";
paths = (
{
closed = 1;
nodes = (
"482 244 LINE",
"482 1278 LINE SMOOTH",
"482 1377 OFFCURVE",
"407 1446 OFFCURVE",
"322 1446 CURVE SMOOTH",
"235 1446 OFFCURVE",
"161 1377 OFFCURVE",
"161 1278 CURVE SMOOTH",
"161 217 LINE SMOOTH",
"161 106 OFFCURVE",
"213 0 OFFCURVE",
"323 0 CURVE SMOOTH",
"1021 0 LINE SMOOTH",
"1091 0 OFFCURVE",
"1138 58 OFFCURVE",
"1138 122 CURVE SMOOTH",
"1138 186 OFFCURVE",
"1091 244 OFFCURVE",
"1021 244 CURVE SMOOTH"
);
}
);
width = 1161;
},
{
anchors = (
{
name = bottom;
position = "{674, 0}";
},
{
name = caron.alt;
position = "{435, 992}";
},
{
name = center;
position = "{595, 728}";
},
{
name = mid;
position = "{338, 743}";
},
{
name = top;
position = "{449, 1453}";
},
{
name = topright;
position = "{1169, 1456}";
}
);
layerId = "E1B555A7-F4E1-459C-9C1A-AE952106EEF9";
paths = (
{
closed = 1;
nodes = (
"520 277 LINE",
"519 1248 LINE",
"519 1362 OFFCURVE",
"437 1456 OFFCURVE",
"334 1456 CURVE SMOOTH",
"232 1456 OFFCURVE",
"150 1362 OFFCURVE",
"150 1248 CURVE SMOOTH",
"150 301 LINE SMOOTH",
"150 153 OFFCURVE",
"192 0 OFFCURVE",
"335 0 CURVE SMOOTH",
"1021 0 LINE SMOOTH",
"1094 0 OFFCURVE",
"1153 61 OFFCURVE",
"1153 139 CURVE SMOOTH",
"1153 216 OFFCURVE",
"1094 277 OFFCURVE",
"1021 277 CURVE SMOOTH"
);
}
);
width = 1189;
}
);
unicode = 004C;
userData = {
anchors = (
);
b = {
};
com.typemytype.robofont.layerData = {
b = {
anchors = (
);
components = (
);
contours = (
{
points = (
{
segmentType = curve;
smooth = 1;
x = 266;
y = 0;
},
{
segmentType = line;
smooth = 1;
x = 1035;
y = 0;
},
{
smooth = 0;
x = 1084;
y = 0;
},
{
smooth = 0;
x = 1108;
y = 34;
},
{
segmentType = curve;
smooth = 1;
x = 1108;
y = 71;
},
{
smooth = 0;
x = 1108;
y = 107;
},
{
smooth = 0;
x = 1084;
y = 141;
},
{
segmentType = curve;
smooth = 1;
x = 1035;
y = 141;
},
{
segmentType = line;
smooth = 0;
x = 356;
y = 141;
},
{
segmentType = line;
smooth = 0;
x = 356;
y = 665;
},
{
segmentType = line;
smooth = 1;
x = 975;
y = 665;
},
{
smooth = 0;
x = 1024;
y = 665;
},
{
smooth = 0;
x = 1049;
y = 698;
},
{
segmentType = curve;
smooth = 1;
x = 1049;
y = 734;
},
{
smooth = 0;
x = 1049;
y = 770;
},
{
smooth = 0;
x = 1026;
y = 803;
},
{
segmentType = curve;
smooth = 1;
x = 975;
y = 803;
},
{
segmentType = line;
smooth = 0;
x = 356;
y = 803;
},
{
segmentType = line;
smooth = 0;
x = 356;
y = 1285;
},
{
segmentType = line;
smooth = 1;
x = 1007;
y = 1285;
},
{
smooth = 0;
x = 1056;
y = 1285;
},
{
smooth = 0;
x = 1080;
y = 1319;
},
{
segmentType = curve;
smooth = 1;
x = 1080;
y = 1356;
},
{
smooth = 0;
x = 1080;
y = 1392;
},
{
smooth = 0;
x = 1056;
y = 1426;
},
{
segmentType = curve;
smooth = 1;
x = 1007;
y = 1426;
},
{
segmentType = line;
smooth = 1;
x = 261;
y = 1426;
},
{
smooth = 0;
x = 213;
y = 1426;
},
{
smooth = 0;
x = 178;
y = 1383;
},
{
segmentType = curve;
smooth = 1;
x = 178;
y = 1340;
},
{
segmentType = line;
smooth = 1;
x = 178;
y = 86;
},
{
smooth = 0;
x = 178;
y = 41;
},
{
smooth = 0;
x = 222;
y = 0;
}
);
}
);
lib = {
};
name = L;
unicodes = (
);
width = 1095;
};
};
components = (
);
contours = (
);
lib = {
};
name = L;
unicodes = (
);
width = 1169;
};
},
{
glyphname = Lslash;
lastChange = "2016-08-02 16:24:47 +0000";
layers = (
{
layerId = "9E718F8A-2CEA-4931-B05D-987794BD97DA";
paths = (
{
closed = 1;
nodes = (
"306 99 LINE",
"306 755.312 LINE",
"468 863 LINE",
"480.639 870.583 OFFCURVE",
"485.899 882.744 OFFCURVE",
"485.899 895.67 CURVE SMOOTH",
"485.899 922.204 OFFCURVE",
"463.734 951.962 OFFCURVE",
"437.727 951.962 CURVE SMOOTH",
"431.294 951.962 OFFCURVE",
"424.626 950.141 OFFCURVE",
"418 946 CURVE SMOOTH",
"306 871.224 LINE",
"306 1363 LINE SMOOTH",
"306 1401 OFFCURVE",
"275 1420 OFFCURVE",
"245 1420 CURVE SMOOTH",
"213 1420 OFFCURVE",
"181 1399 OFFCURVE",
"181 1363 CURVE SMOOTH",
"181 787.77 LINE",
"75 717 LINE SMOOTH",
"59.638 707.06 OFFCURVE",
"53.261 692.511 OFFCURVE",
"53.261 677.956 CURVE SMOOTH",
"53.261 652.06 OFFCURVE",
"73.448 626.148 OFFCURVE",
"99.137 626.148 CURVE SMOOTH",
"106.427 626.148 OFFCURVE",
"114.159 628.234 OFFCURVE",
"122 633 CURVE",
"181 672.22 LINE",
"181 59 LINE SMOOTH",
"181 25 OFFCURVE",
"210 0 OFFCURVE",
"244 0 CURVE SMOOTH",
"993 0 LINE SMOOTH",
"1031 0 OFFCURVE",
"1051 22 OFFCURVE",
"1051 49 CURVE SMOOTH",
"1051 78 OFFCURVE",
"1034 99 OFFCURVE",
"993 99 CURVE SMOOTH"
);
}
);
width = 1136;
},
{
layerId = "5FCC6278-3A1D-4B2B-A133-84AE53360430";
paths = (
{
closed = 1;
nodes = (
"341 128 LINE",
"341 748.27 LINE",
"544 882 LINE SMOOTH",
"557.804 891.026 OFFCURVE",
"563.549 904.835 OFFCURVE",
"563.549 919.376 CURVE SMOOTH",
"563.549 949.682 OFFCURVE",
"538.595 983.169 OFFCURVE",
"509.633 983.169 CURVE SMOOTH",
"502.234 983.169 OFFCURVE",
"494.573 980.983 OFFCURVE",
"487 976 CURVE SMOOTH",
"341 879.249 LINE",
"341 1348 LINE SMOOTH",
"341 1399 OFFCURVE",
"301 1424 OFFCURVE",
"261 1424 CURVE SMOOTH",
"220 1424 OFFCURVE",
"179 1398 OFFCURVE",
"179 1348 CURVE SMOOTH",
"179 771.895 LINE",
"69 699 LINE SMOOTH",
"52.186 687.858 OFFCURVE",
"45.222 671.51 OFFCURVE",
"45.222 655.09 CURVE SMOOTH",
"45.222 625.495 OFFCURVE",
"67.846 595.666 OFFCURVE",
"96.193 595.666 CURVE SMOOTH",
"104.449 595.666 OFFCURVE",
"113.191 598.197 OFFCURVE",
"122 604 CURVE SMOOTH",
"179 641.55 LINE",
"179 79 LINE SMOOTH",
"179 34 OFFCURVE",
"217 0 OFFCURVE",
"261 0 CURVE SMOOTH",
"1000 0 LINE SMOOTH",
"1046 0 OFFCURVE",
"1069 30 OFFCURVE",
"1069 64 CURVE SMOOTH",
"1069 98 OFFCURVE",
"1048 128 OFFCURVE",
"1000 128 CURVE SMOOTH"
);
}
);
width = 1146;
},
{
layerId = "334510DF-EE69-4F45-9EE4-32E3392006F4";
paths = (
{
closed = 1;
nodes = (
"379 161 LINE",
"379 752.188 LINE",
"534 850 LINE SMOOTH",
"554.418 863.549 OFFCURVE",
"562.906 883.104 OFFCURVE",
"562.906 902.705 CURVE SMOOTH",
"562.906 938.392 OFFCURVE",
"534.768 974.228 OFFCURVE",
"499.263 974.228 CURVE SMOOTH",
"488.338 974.228 OFFCURVE",
"476.715 970.835 OFFCURVE",
"465 963 CURVE SMOOTH",
"379 908.393 LINE",
"379 1332 LINE SMOOTH",
"379 1397 OFFCURVE",
"329 1429 OFFCURVE",
"279 1429 CURVE SMOOTH",
"227 1429 OFFCURVE",
"177 1396 OFFCURVE",
"177 1332 CURVE SMOOTH",
"177 780.131 LINE",
"76 716 LINE SMOOTH",
"53.625 701.036 OFFCURVE",
"44.246 679.304 OFFCURVE",
"44.246 658.073 CURVE SMOOTH",
"44.246 623.217 OFFCURVE",
"69.524 589.708 OFFCURVE",
"104.066 589.708 CURVE SMOOTH",
"115.55 589.708 OFFCURVE",
"128.057 593.412 OFFCURVE",
"141 602 CURVE SMOOTH",
"177 624.718 LINE",
"177 100 LINE SMOOTH",
"177 44 OFFCURVE",
"224 0 OFFCURVE",
"279 0 CURVE SMOOTH",
"1008 0 LINE SMOOTH",
"1062 0 OFFCURVE",
"1089 40 OFFCURVE",
"1089 80 CURVE SMOOTH",
"1089 120 OFFCURVE",
"1063 161 OFFCURVE",
"1008 161 CURVE SMOOTH"
);
}
);
width = 1157;
},
{
layerId = "F812A762-7E77-4DA4-9A10-AD66CDB59C76";
paths = (
{
closed = 1;
nodes = (
"402 180 LINE",
"402 740.605 LINE",
"569 856 LINE SMOOTH",
"588.744 869.265 OFFCURVE",
"596.886 888.791 OFFCURVE",
"596.886 909.202 CURVE SMOOTH",
"596.886 949.432 OFFCURVE",
"565.083 992.348 OFFCURVE",
"526.909 992.348 CURVE SMOOTH",
"516.572 992.348 OFFCURVE",
"505.798 989.26 OFFCURVE",
"495 982 CURVE SMOOTH",
"402 917.549 LINE",
"402 1322 LINE SMOOTH",
"402 1395 OFFCURVE",
"347 1432 OFFCURVE",
"290 1432 CURVE SMOOTH",
"232 1432 OFFCURVE",
"175 1395 OFFCURVE",
"175 1322 CURVE SMOOTH",
"175 759.148 LINE",
"71 686 LINE SMOOTH",
"50.089 671.895 OFFCURVE",
"40.378 649.629 OFFCURVE",
"40.378 627.455 CURVE SMOOTH",
"40.378 587.935 OFFCURVE",
"69.068 547.646 OFFCURVE",
"106.468 547.646 CURVE SMOOTH",
"117.4 547.646 OFFCURVE",
"129.007 551.03 OFFCURVE",
"141 559 CURVE SMOOTH",
"175 582.713 LINE",
"175 113 LINE SMOOTH",
"175 50 OFFCURVE",
"229 0 OFFCURVE",
"290 0 CURVE SMOOTH",
"1013 0 LINE SMOOTH",
"1072 0 OFFCURVE",
"1102 45 OFFCURVE",
"1102 90 CURVE SMOOTH",
"1102 134 OFFCURVE",
"1072 180 OFFCURVE",
"1013 180 CURVE SMOOTH"
);
}
);
width = 1163;
},
{
layerId = "04B13600-F055-45EE-B953-7859ECDADD08";
paths = (
{
closed = 1;
nodes = (
"422 197 LINE",
"422 735.555 LINE",
"605 853 LINE SMOOTH",
"627.103 867.848 OFFCURVE",
"637 889 OFFCURVE",
"637 912 CURVE SMOOTH",
"637 957 OFFCURVE",
"601 1005 OFFCURVE",
"558 1005 CURVE SMOOTH",
"546 1005 OFFCURVE",
"533.971 1002.04 OFFCURVE",
"522 994 CURVE SMOOTH",
"422 930.583 LINE",
"422 1314 LINE SMOOTH",
"422 1394 OFFCURVE",
"362 1434 OFFCURVE",
"299 1434 CURVE SMOOTH",
"236 1434 OFFCURVE",
"174 1394 OFFCURVE",
"174 1314 CURVE SMOOTH",
"174 772.636 LINE",
"63 699 LINE SMOOTH",
"39.158 682.768 OFFCURVE",
"29 658 OFFCURVE",
"29 633 CURVE SMOOTH",
"29 589 OFFCURVE",
"61 544 OFFCURVE",
"103 544 CURVE SMOOTH",
"115 544 OFFCURVE",
"127.813 547.282 OFFCURVE",
"141 556 CURVE SMOOTH",
"174 576.717 LINE",
"174 124 LINE SMOOTH",
"174 55 OFFCURVE",
"233 0 OFFCURVE",
"300 0 CURVE SMOOTH",
"1017 0 LINE SMOOTH",
"1080 0 OFFCURVE",
"1112 50 OFFCURVE",
"1112 98 CURVE SMOOTH",
"1112 145 OFFCURVE",
"1080 197 OFFCURVE",
"1017 197 CURVE SMOOTH"
);
}
);
width = 1169;
},
{
layerId = "A4C065E6-C319-4A8F-B4BD-A6F28D5DCD95";
paths = (
{
closed = 1;
nodes = (
"456 228 LINE",
"455.548 708.973 LINE",
"658 840 LINE SMOOTH",
"682.918 856.127 OFFCURVE",
"693 880 OFFCURVE",
"693 906 CURVE SMOOTH",
"693 956 OFFCURVE",
"653 1011 OFFCURVE",
"605 1011 CURVE SMOOTH",
"592 1011 OFFCURVE",
"579 1007 OFFCURVE",
"565 998 CURVE SMOOTH",
"455.343 927.506 LINE",
"455 1292 LINE",
"455 1385 OFFCURVE",
"387 1441 OFFCURVE",
"313 1441 CURVE SMOOTH",
"238 1441 OFFCURVE",
"168 1385 OFFCURVE",
"168 1292 CURVE SMOOTH",
"168 742.154 LINE",
"48 664 LINE SMOOTH",
"21.14 646.782 OFFCURVE",
"10 618 OFFCURVE",
"10 590 CURVE SMOOTH",
"10 541 OFFCURVE",
"45 490 OFFCURVE",
"92 490 CURVE SMOOTH",
"105 490 OFFCURVE",
"119.089 495.826 OFFCURVE",
"135 504 CURVE",
"168 524.598 LINE",
"168 175 LINE SMOOTH",
"168 82 OFFCURVE",
"227 0 OFFCURVE",
"314 0 CURVE SMOOTH",
"1020 0 LINE SMOOTH",
"1088 0 OFFCURVE",
"1128 56 OFFCURVE",
"1128 113 CURVE SMOOTH",
"1128 170 OFFCURVE",
"1088 228 OFFCURVE",
"1020 228 CURVE SMOOTH"
);
}
);
width = 1178;
},
{
layerId = "8F6BE840-9356-4940-A488-AC64157678BA";
paths = (
{
closed = 1;
nodes = (
"482 244 LINE",
"482 739.755 LINE",
"653 852 LINE SMOOTH",
"677.921 868.112 OFFCURVE",
"688 892 OFFCURVE",
"688 918 CURVE SMOOTH",
"688 968 OFFCURVE",
"648 1023 OFFCURVE",
"600 1023 CURVE SMOOTH",
"587 1023 OFFCURVE",
"574.008 1018.98 OFFCURVE",
"560 1010 CURVE SMOOTH",
"482 958.956 LINE",
"482 1278 LINE SMOOTH",
"482 1377 OFFCURVE",
"407 1446 OFFCURVE",
"322 1446 CURVE SMOOTH",
"235 1446 OFFCURVE",
"161 1377 OFFCURVE",
"161 1278 CURVE SMOOTH",
"161 746.791 LINE",
"54 675 LINE SMOOTH",
"27.14 657.782 OFFCURVE",
"16 629 OFFCURVE",
"16 601 CURVE SMOOTH",
"16 552 OFFCURVE",
"51 501 OFFCURVE",
"98 501 CURVE SMOOTH",
"111 501 OFFCURVE",
"125.089 506.826 OFFCURVE",
"141 515 CURVE",
"161 528.253 LINE",
"161 217 LINE SMOOTH",
"161 106 OFFCURVE",
"213 0 OFFCURVE",
"323 0 CURVE SMOOTH",
"1021 0 LINE SMOOTH",
"1091 0 OFFCURVE",
"1138 58 OFFCURVE",
"1138 122 CURVE SMOOTH",
"1138 186 OFFCURVE",
"1091 244 OFFCURVE",
"1021 244 CURVE SMOOTH"
);
}
);
width = 1186;
},
{
layerId = "E1B555A7-F4E1-459C-9C1A-AE952106EEF9";
paths = (
{
closed = 1;
nodes = (
"520 277 LINE",
"519.546 717.436 LINE",
"724 849 LINE SMOOTH",
"751.992 867.013 OFFCURVE",
"764 893 OFFCURVE",
"764 922 CURVE SMOOTH",
"764 978 OFFCURVE",
"719 1040 OFFCURVE",
"665 1040 CURVE SMOOTH",
"650 1040 OFFCURVE",
"635.857 1036.22 OFFCURVE",
"620 1026 CURVE SMOOTH",
"519.295 961.078 LINE",
"519 1248 LINE",
"519 1362 OFFCURVE",
"437 1456 OFFCURVE",
"334 1456 CURVE SMOOTH",
"232 1456 OFFCURVE",
"150 1362 OFFCURVE",
"150 1248 CURVE SMOOTH",
"150 722.423 LINE",
"25 641 LINE SMOOTH",
"-4.704 621.548 OFFCURVE",
"-18 589 OFFCURVE",
"-18 558 CURVE SMOOTH",
"-18 503 OFFCURVE",
"21 446 OFFCURVE",
"74 446 CURVE",
"74 446 OFFCURVE",
"104 453 OFFCURVE",
"122 462 CURVE",
"150 479.924 LINE",
"150 301 LINE SMOOTH",
"150 153 OFFCURVE",
"192 0 OFFCURVE",
"335 0 CURVE SMOOTH",
"1021 0 LINE SMOOTH",
"1094 0 OFFCURVE",
"1153 61 OFFCURVE",
"1153 139 CURVE SMOOTH",
"1153 216 OFFCURVE",
"1094 277 OFFCURVE",
"1021 277 CURVE SMOOTH"
);
}
);
width = 1197;
}
);
unicode = 0141;
},
{
glyphname = M;
lastChange = "2016-08-02 17:46:46 +0000";
layers = (
{
anchors = (
{
name = bottom;
position = "{942, 0}";
},
{
name = top;
position = "{979, 1438}";
}
);
layerId = "9E718F8A-2CEA-4931-B05D-987794BD97DA";
paths = (
{
closed = 1;
nodes = (
"299 1273 LINE",
"868 81 LINE SMOOTH",
"888 42 OFFCURVE",
"920 24 OFFCURVE",
"948 24 CURVE SMOOTH",
"976 24 OFFCURVE",
"1008 42 OFFCURVE",
"1028 81 CURVE SMOOTH",
"1597 1273 LINE",
"1597 42 LINE SMOOTH",
"1597 8 OFFCURVE",
"1626 -9 OFFCURVE",
"1654 -9 CURVE SMOOTH",
"1682 -9 OFFCURVE",
"1710 8 OFFCURVE",
"1710 42 CURVE SMOOTH",
"1710 1321 LINE SMOOTH",
"1710 1374 OFFCURVE",
"1667 1422 OFFCURVE",
"1617 1422 CURVE SMOOTH",
"1582 1422 OFFCURVE",
"1543 1399 OFFCURVE",
"1512 1337 CURVE SMOOTH",
"948 157 LINE",
"384 1337 LINE SMOOTH",
"353 1399 OFFCURVE",
"314 1422 OFFCURVE",
"279 1422 CURVE SMOOTH",
"229 1422 OFFCURVE",
"186 1374 OFFCURVE",
"186 1321 CURVE SMOOTH",
"186 42 LINE SMOOTH",
"186 8 OFFCURVE",
"214 -9 OFFCURVE",
"242 -9 CURVE SMOOTH",
"270 -9 OFFCURVE",
"299 8 OFFCURVE",
"299 42 CURVE SMOOTH"
);
}
);
width = 1884;
},
{
anchors = (
{
name = bottom;
position = "{948, 0}";
},
{
name = top;
position = "{948, 1424}";
}
);
layerId = "5FCC6278-3A1D-4B2B-A133-84AE53360430";
paths = (
{
closed = 1;
nodes = (
"331 1235 LINE",
"851 103 LINE SMOOTH",
"873 54 OFFCURVE",
"913 30 OFFCURVE",
"949 30 CURVE SMOOTH",
"986 30 OFFCURVE",
"1025 54 OFFCURVE",
"1048 103 CURVE SMOOTH",
"1568 1235 LINE",
"1568 62 LINE SMOOTH",
"1568 21 OFFCURVE",
"1605 1 OFFCURVE",
"1642 1 CURVE SMOOTH",
"1679 1 OFFCURVE",
"1716 21 OFFCURVE",
"1716 62 CURVE SMOOTH",
"1716 1305 LINE SMOOTH",
"1716 1371 OFFCURVE",
"1658 1423 OFFCURVE",
"1594 1423 CURVE SMOOTH",
"1546 1423 OFFCURVE",
"1495 1395 OFFCURVE",
"1461 1322 CURVE SMOOTH",
"949 214 LINE",
"438 1322 LINE SMOOTH",
"404 1395 OFFCURVE",
"352 1423 OFFCURVE",
"304 1423 CURVE SMOOTH",
"240 1423 OFFCURVE",
"182 1371 OFFCURVE",
"182 1305 CURVE SMOOTH",
"182 62 LINE SMOOTH",
"182 21 OFFCURVE",
"219 1 OFFCURVE",
"256 1 CURVE SMOOTH",
"293 1 OFFCURVE",
"331 21 OFFCURVE",
"331 62 CURVE SMOOTH"
);
}
);
width = 1895;
},
{
anchors = (
{
name = bottom;
position = "{953, 0}";
},
{
name = top;
position = "{977, 1438}";
}
);
layerId = "334510DF-EE69-4F45-9EE4-32E3392006F4";
paths = (
{
closed = 1;
nodes = (
"365 1172 LINE",
"831 126 LINE SMOOTH",
"857 67 OFFCURVE",
"906 37 OFFCURVE",
"951 37 CURVE SMOOTH",
"996 37 OFFCURVE",
"1045 67 OFFCURVE",
"1071 126 CURVE SMOOTH",
"1537 1172 LINE",
"1537 83 LINE SMOOTH",
"1537 35 OFFCURVE",
"1583 11 OFFCURVE",
"1630 11 CURVE SMOOTH",
"1676 11 OFFCURVE",
"1723 35 OFFCURVE",
"1723 83 CURVE SMOOTH",
"1723 1267 LINE SMOOTH",
"1723 1347 OFFCURVE",
"1649 1403 OFFCURVE",
"1570 1403 CURVE SMOOTH",
"1508 1403 OFFCURVE",
"1442 1369 OFFCURVE",
"1405 1284 CURVE SMOOTH",
"951 276 LINE",
"497 1284 LINE SMOOTH",
"459 1369 OFFCURVE",
"393 1403 OFFCURVE",
"331 1403 CURVE SMOOTH",
"252 1403 OFFCURVE",
"179 1347 OFFCURVE",
"179 1267 CURVE SMOOTH",
"179 83 LINE SMOOTH",
"179 35 OFFCURVE",
"226 11 OFFCURVE",
"272 11 CURVE SMOOTH",
"319 11 OFFCURVE",
"365 35 OFFCURVE",
"365 83 CURVE SMOOTH"
);
}
);
width = 1906;
},
{
anchors = (
{
name = bottom;
position = "{957, 0}";
},
{
name = top;
position = "{977, 1438}";
}
);
layerId = "F812A762-7E77-4DA4-9A10-AD66CDB59C76";
paths = (
{
closed = 1;
nodes = (
"386 1140 LINE",
"819 141 LINE SMOOTH",
"847 75 OFFCURVE",
"901 41 OFFCURVE",
"952 41 CURVE SMOOTH",
"1003 41 OFFCURVE",
"1057 75 OFFCURVE",
"1084 141 CURVE SMOOTH",
"1518 1140 LINE",
"1518 96 LINE SMOOTH",
"1518 44 OFFCURVE",
"1570.25 18 OFFCURVE",
"1622.5 18 CURVE SMOOTH",
"1674.75 18 OFFCURVE",
"1727 44 OFFCURVE",
"1727 96 CURVE SMOOTH",
"1727 1249 LINE SMOOTH",
"1727 1337.3 OFFCURVE",
"1644.65 1396.61 OFFCURVE",
"1556.17 1396.61 CURVE SMOOTH",
"1485.34 1396.61 OFFCURVE",
"1410.57 1358.6 OFFCURVE",
"1371 1267 CURVE SMOOTH",
"952 314 LINE",
"533 1267 LINE SMOOTH",
"493.427 1358.6 OFFCURVE",
"418.664 1396.61 OFFCURVE",
"347.827 1396.61 CURVE SMOOTH",
"259.35 1396.61 OFFCURVE",
"177 1337.3 OFFCURVE",
"177 1249 CURVE SMOOTH",
"177 96 LINE SMOOTH",
"177 44 OFFCURVE",
"229.25 18 OFFCURVE",
"281.5 18 CURVE SMOOTH",
"333.75 18 OFFCURVE",
"386 44 OFFCURVE",
"386 96 CURVE SMOOTH"
);
}
);
width = 1913;
},
{
anchors = (
{
name = bottom;
position = "{960, 0}";
},
{
name = top;
position = "{976, 1438}";
}
);
layerId = "04B13600-F055-45EE-B953-7859ECDADD08";
paths = (
{
closed = 1;
nodes = (
"404 1112 LINE",
"809 153 LINE SMOOTH",
"839 82 OFFCURVE",
"897 45 OFFCURVE",
"952 45 CURVE",
"952 346 LINE",
"564 1253 LINE SMOOTH",
"522.73 1350.34 OFFCURVE",
"440.207 1391.34 OFFCURVE",
"361.748 1391.34 CURVE SMOOTH",
"265.304 1391.34 OFFCURVE",
"175 1329.39 OFFCURVE",
"175 1234 CURVE SMOOTH",
"175 107 LINE SMOOTH",
"175 51.5 OFFCURVE",
"232.25 23.75 OFFCURVE",
"289.5 23.75 CURVE SMOOTH",
"346.75 23.75 OFFCURVE",
"404 51.5 OFFCURVE",
"404 107 CURVE SMOOTH"
);
},
{
closed = 1;
nodes = (
"953 346 LINE",
"953 45 LINE",
"1008 45 OFFCURVE",
"1067 82 OFFCURVE",
"1096 153 CURVE SMOOTH",
"1502 1112 LINE",
"1502 107 LINE SMOOTH",
"1502 51.5 OFFCURVE",
"1559.25 23.75 OFFCURVE",
"1616.5 23.75 CURVE SMOOTH",
"1673.75 23.75 OFFCURVE",
"1731 51.5 OFFCURVE",
"1731 107 CURVE SMOOTH",
"1731 1234 LINE SMOOTH",
"1731 1329.39 OFFCURVE",
"1640.7 1391.34 OFFCURVE",
"1544.08 1391.34 CURVE SMOOTH",
"1465.49 1391.34 OFFCURVE",
"1382.72 1350.34 OFFCURVE",
"1341 1253 CURVE SMOOTH"
);
}
);
width = 1919;
},
{
anchors = (
{
name = bottom;
position = "{971, 0}";
},
{
name = top;
position = "{985, 1438}";
}
);
layerId = "A4C065E6-C319-4A8F-B4BD-A6F28D5DCD95";
paths = (
{
closed = 1;
nodes = (
"428 1089 LINE",
"799 192 LINE SMOOTH",
"833 101 OFFCURVE",
"892 54 OFFCURVE",
"963 54 CURVE",
"963 403 LINE",
"615 1234 LINE SMOOTH",
"568 1354 OFFCURVE",
"474 1404 OFFCURVE",
"383 1404 CURVE SMOOTH",
"272 1404 OFFCURVE",
"168 1329 OFFCURVE",
"168 1215 CURVE SMOOTH",
"169 119 LINE SMOOTH",
"169 49 OFFCURVE",
"234 14 OFFCURVE",
"299 14 CURVE SMOOTH",
"364 14 OFFCURVE",
"428 49 OFFCURVE",
"428 119 CURVE SMOOTH"
);
},
{
closed = 1;
nodes = (
"964 403 LINE",
"964 54 LINE",
"1035 54 OFFCURVE",
"1094 102 OFFCURVE",
"1129 192 CURVE SMOOTH",
"1499 1089 LINE",
"1499 119 LINE SMOOTH",
"1499 49 OFFCURVE",
"1564 14 OFFCURVE",
"1629 14 CURVE SMOOTH",
"1694 14 OFFCURVE",
"1759 49 OFFCURVE",
"1759 119 CURVE SMOOTH",
"1759 1215 LINE SMOOTH",
"1759 1329 OFFCURVE",
"1656 1404 OFFCURVE",
"1545 1404 CURVE SMOOTH",
"1455 1404 OFFCURVE",
"1359 1354 OFFCURVE",
"1313 1234 CURVE SMOOTH"
);
}
);
width = 1941;
},
{
anchors = (
{
name = bottom;
position = "{984, 0}";
},
{
name = top;
position = "{1000, 1438}";
}
);
layerId = "8F6BE840-9356-4940-A488-AC64157678BA";
paths = (
{
closed = 1;
nodes = (
"442 1089 LINE",
"795 221 LINE SMOOTH",
"836 114 OFFCURVE",
"889 59 OFFCURVE",
"980 59 CURVE SMOOTH",
"1070 59 OFFCURVE",
"1124 115 OFFCURVE",
"1165 221 CURVE SMOOTH",
"1518 1089 LINE",
"1517 122 LINE SMOOTH",
"1517 40.378 OFFCURVE",
"1586.6 0.122 OFFCURVE",
"1656.53 0.122 CURVE SMOOTH",
"1727.1 0.122 OFFCURVE",
"1798 41.129 OFFCURVE",
"1798 122 CURVE SMOOTH",
"1798 1209 LINE SMOOTH",
"1798 1335.21 OFFCURVE",
"1684.09 1420.42 OFFCURVE",
"1562.25 1420.42 CURVE SMOOTH",
"1463.01 1420.42 OFFCURVE",
"1358.52 1363.9 OFFCURVE",
"1306 1227 CURVE SMOOTH",
"980 434 LINE",
"654 1227 LINE SMOOTH",
"601.035 1363.9 OFFCURVE",
"496.291 1420.42 OFFCURVE",
"396.921 1420.42 CURVE SMOOTH",
"274.909 1420.42 OFFCURVE",
"161 1335.21 OFFCURVE",
"161 1209 CURVE SMOOTH",
"162 122 LINE SMOOTH",
"162 41.129 OFFCURVE",
"232.648 0.122 OFFCURVE",
"302.969 0.122 CURVE SMOOTH",
"372.645 0.122 OFFCURVE",
"442 40.378 OFFCURVE",
"442 122 CURVE SMOOTH"
);
}
);
width = 1968;
},
{
anchors = (
{
name = bottom;
position = "{1003, 0}";
},
{
name = top;
position = "{1022, 1438}";
}
);
layerId = "E1B555A7-F4E1-459C-9C1A-AE952106EEF9";
paths = (
{
closed = 1;
nodes = (
"463 1089 LINE",
"789 278 LINE SMOOTH",
"839 141 OFFCURVE",
"885 71 OFFCURVE",
"1003 71 CURVE SMOOTH",
"1121 71 OFFCURVE",
"1167 142 OFFCURVE",
"1217 278 CURVE SMOOTH",
"1544 1089 LINE",
"1543 128 LINE SMOOTH",
"1543 23 OFFCURVE",
"1620 -28 OFFCURVE",
"1698 -28 CURVE SMOOTH",
"1776 -28 OFFCURVE",
"1855 24 OFFCURVE",
"1855 128 CURVE SMOOTH",
"1856 1196 LINE SMOOTH",
"1856 1348 OFFCURVE",
"1727 1454 OFFCURVE",
"1589 1454 CURVE SMOOTH",
"1476 1454 OFFCURVE",
"1357 1384 OFFCURVE",
"1295 1213 CURVE",
"1003 494 LINE",
"711 1213 LINE",
"649 1384 OFFCURVE",
"530 1454 OFFCURVE",
"417 1454 CURVE SMOOTH",
"279 1454 OFFCURVE",
"150 1348 OFFCURVE",
"150 1196 CURVE SMOOTH",
"151 128 LINE SMOOTH",
"151 24 OFFCURVE",
"230 -28 OFFCURVE",
"308 -28 CURVE SMOOTH",
"386 -28 OFFCURVE",
"463 23 OFFCURVE",
"463 128 CURVE SMOOTH"
);
}
);
width = 2006;
}
);
unicode = 004D;
userData = {
anchors = (
);
b = {
};
com.typemytype.robofont.layerData = {
b = {
anchors = (
);
components = (
);
contours = (
);
lib = {
};
name = M;
unicodes = (
);
width = 1899;
};
};
components = (
);
contours = (
);
lib = {
};
name = M;
unicodes = (
);
width = 1984;
};
},
{
glyphname = N;
lastChange = "2016-08-02 17:46:46 +0000";
layers = (
{
anchors = (
{
name = bottom;
position = "{749, 0}";
},
{
name = top;
position = "{787, 1438}";
}
);
layerId = "9E718F8A-2CEA-4931-B05D-987794BD97DA";
paths = (
{
closed = 1;
nodes = (
"1164 155 LINE",
"370 1338 LINE SMOOTH",
"332 1393 OFFCURVE",
"295 1419 OFFCURVE",
"263 1419 CURVE SMOOTH",
"214 1419 OFFCURVE",
"184 1385 OFFCURVE",
"184 1326 CURVE SMOOTH",
"184 59 LINE SMOOTH",
"184 19 OFFCURVE",
"209 0 OFFCURVE",
"243 0 CURVE SMOOTH",
"274 0 OFFCURVE",
"300 20 OFFCURVE",
"300 59 CURVE SMOOTH",
"300 1242 LINE",
"1109 40 LINE SMOOTH",
"1131 7 OFFCURVE",
"1152 0 OFFCURVE",
"1185 0 CURVE SMOOTH",
"1240 0 OFFCURVE",
"1280 33 OFFCURVE",
"1280 93 CURVE SMOOTH",
"1280 1359 LINE SMOOTH",
"1280 1398 OFFCURVE",
"1252 1419 OFFCURVE",
"1222 1419 CURVE SMOOTH",
"1189 1419 OFFCURVE",
"1164 1399 OFFCURVE",
"1164 1359 CURVE SMOOTH"
);
}
);
width = 1464;
},
{
anchors = (
{
name = bottom;
position = "{745, 0}";
},
{
name = top;
position = "{745, 1424}";
}
);
layerId = "5FCC6278-3A1D-4B2B-A133-84AE53360430";
paths = (
{
closed = 1;
nodes = (
"1159 219 LINE",
"397 1343 LINE SMOOTH",
"359 1399 OFFCURVE",
"312 1424 OFFCURVE",
"276 1424 CURVE SMOOTH",
"220 1424 OFFCURVE",
"180 1384 OFFCURVE",
"180 1313 CURVE SMOOTH",
"180 73 LINE SMOOTH",
"180 24 OFFCURVE",
"215 0 OFFCURVE",
"255 0 CURVE SMOOTH",
"294 0 OFFCURVE",
"329 25 OFFCURVE",
"329 73 CURVE SMOOTH",
"329 1187 LINE",
"1101 53 LINE SMOOTH",
"1127 14 OFFCURVE",
"1163 0 OFFCURVE",
"1201 0 CURVE SMOOTH",
"1261 0 OFFCURVE",
"1309 40 OFFCURVE",
"1309 111 CURVE SMOOTH",
"1309 1350 LINE SMOOTH",
"1309 1399 OFFCURVE",
"1272 1424 OFFCURVE",
"1234 1424 CURVE SMOOTH",
"1194 1424 OFFCURVE",
"1159 1399 OFFCURVE",
"1159 1350 CURVE SMOOTH"
);
}
);
width = 1489;
},
{
anchors = (
{
name = bottom;
position = "{783, 0}";
},
{
name = top;
position = "{797, 1438}";
}
);
layerId = "334510DF-EE69-4F45-9EE4-32E3392006F4";
paths = (
{
closed = 1;
nodes = (
"1154 290 LINE",
"426 1350 LINE SMOOTH",
"388 1405 OFFCURVE",
"332 1429 OFFCURVE",
"289 1429 CURVE SMOOTH",
"226 1429 OFFCURVE",
"175 1382 OFFCURVE",
"175 1300 CURVE SMOOTH",
"175 89 LINE SMOOTH",
"175 29 OFFCURVE",
"221 0 OFFCURVE",
"268 0 CURVE SMOOTH",
"315 0 OFFCURVE",
"362 30 OFFCURVE",
"362 89 CURVE SMOOTH",
"362 1126 LINE",
"1093 66 LINE SMOOTH",
"1124 21 OFFCURVE",
"1175 0 OFFCURVE",
"1217 0 CURVE SMOOTH",
"1284 0 OFFCURVE",
"1340 47 OFFCURVE",
"1340 129 CURVE SMOOTH",
"1340 1340 LINE SMOOTH",
"1340 1399 OFFCURVE",
"1293 1429 OFFCURVE",
"1247 1429 CURVE SMOOTH",
"1199 1429 OFFCURVE",
"1154 1399 OFFCURVE",
"1154 1340 CURVE SMOOTH"
);
}
);
width = 1515;
},
{
anchors = (
{
name = bottom;
position = "{793, 0}";
},
{
name = top;
position = "{801, 1438}";
}
);
layerId = "F812A762-7E77-4DA4-9A10-AD66CDB59C76";
paths = (
{
closed = 1;
nodes = (
"1151 333 LINE",
"443 1354 LINE SMOOTH",
"405 1408 OFFCURVE",
"344 1432 OFFCURVE",
"298 1432 CURVE SMOOTH",
"229 1432 OFFCURVE",
"172 1381 OFFCURVE",
"172 1291 CURVE SMOOTH",
"172 98 LINE SMOOTH",
"172 32 OFFCURVE",
"224 0 OFFCURVE",
"276 0 CURVE SMOOTH",
"328 0 OFFCURVE",
"381 33 OFFCURVE",
"381 98 CURVE SMOOTH",
"381 1089 LINE",
"1087 75 LINE SMOOTH",
"1122 26 OFFCURVE",
"1183 0 OFFCURVE",
"1227 0 CURVE SMOOTH",
"1298 0 OFFCURVE",
"1359 52 OFFCURVE",
"1359 141 CURVE SMOOTH",
"1359 1334 LINE SMOOTH",
"1359 1400 OFFCURVE",
"1306 1433 OFFCURVE",
"1255 1433 CURVE SMOOTH",
"1203 1433 OFFCURVE",
"1151 1399 OFFCURVE",
"1151 1334 CURVE SMOOTH"
);
}
);
width = 1531;
},
{
anchors = (
{
name = bottom;
position = "{802, 0}";
},
{
name = top;
position = "{804, 1438}";
}
);
layerId = "04B13600-F055-45EE-B953-7859ECDADD08";
paths = (
{
closed = 1;
nodes = (
"1148 370 LINE",
"458 1357 LINE SMOOTH",
"420 1411 OFFCURVE",
"354 1435 OFFCURVE",
"305 1435 CURVE SMOOTH",
"232 1435 OFFCURVE",
"170 1380 OFFCURVE",
"170 1284 CURVE SMOOTH",
"170 106 LINE SMOOTH",
"170 35 OFFCURVE",
"227 0 OFFCURVE",
"283 0 CURVE SMOOTH",
"339 0 OFFCURVE",
"398 36 OFFCURVE",
"398 106 CURVE SMOOTH",
"398 1057 LINE",
"1083 82 LINE SMOOTH",
"1120 30 OFFCURVE",
"1189 0 OFFCURVE",
"1236 0 CURVE SMOOTH",
"1310 0 OFFCURVE",
"1375 56 OFFCURVE",
"1375 151 CURVE SMOOTH",
"1375 1328 LINE SMOOTH",
"1375 1400 OFFCURVE",
"1318 1436 OFFCURVE",
"1262 1436 CURVE SMOOTH",
"1206 1436 OFFCURVE",
"1148 1399 OFFCURVE",
"1148 1328 CURVE SMOOTH"
);
}
);
width = 1545;
},
{
anchors = (
{
name = bottom;
position = "{814, 0}";
},
{
name = top;
position = "{820, 1441}";
}
);
layerId = "A4C065E6-C319-4A8F-B4BD-A6F28D5DCD95";
paths = (
{
closed = 1;
nodes = (
"1146 430 LINE",
"488 1341 LINE SMOOTH",
"445 1405 OFFCURVE",
"373 1442 OFFCURVE",
"315 1442 CURVE SMOOTH",
"234 1442 OFFCURVE",
"164 1379 OFFCURVE",
"164 1269 CURVE SMOOTH",
"164 126 LINE SMOOTH",
"164 47 OFFCURVE",
"228 0 OFFCURVE",
"292 0 CURVE SMOOTH",
"357 0 OFFCURVE",
"422 48 OFFCURVE",
"422 126 CURVE SMOOTH",
"422 1012 LINE",
"1075 108 LINE SMOOTH",
"1120 44 OFFCURVE",
"1195 0 OFFCURVE",
"1251 0 CURVE SMOOTH",
"1343 0 OFFCURVE",
"1403 81 OFFCURVE",
"1403 195 CURVE SMOOTH",
"1403 1316 LINE SMOOTH",
"1403 1395 OFFCURVE",
"1340 1443 OFFCURVE",
"1275 1443 CURVE SMOOTH",
"1209 1443 OFFCURVE",
"1146 1394 OFFCURVE",
"1146 1316 CURVE SMOOTH"
);
}
);
width = 1568;
},
{
anchors = (
{
name = bottom;
position = "{820, 0}";
},
{
name = top;
position = "{841, 1445}";
}
);
layerId = "8F6BE840-9356-4940-A488-AC64157678BA";
paths = (
{
closed = 1;
nodes = (
"1147 459 LINE",
"516 1322 LINE SMOOTH",
"465 1395 OFFCURVE",
"391 1446 OFFCURVE",
"322 1447 CURVE SMOOTH",
"233 1447 OFFCURVE",
"159 1380 OFFCURVE",
"159 1261 CURVE SMOOTH",
"159 139 LINE SMOOTH",
"159 57 OFFCURVE",
"224 0 OFFCURVE",
"298 0 CURVE SMOOTH",
"371 0 OFFCURVE",
"439 57 OFFCURVE",
"439 139 CURVE SMOOTH",
"439 992 LINE",
"1069 129 LINE SMOOTH",
"1123 54 OFFCURVE",
"1196 0 OFFCURVE",
"1263 0 CURVE SMOOTH",
"1381 0 OFFCURVE",
"1426 102 OFFCURVE",
"1426 230 CURVE SMOOTH",
"1426 1307 LINE SMOOTH",
"1426 1390 OFFCURVE",
"1360 1447 OFFCURVE",
"1286 1447 CURVE SMOOTH",
"1212 1447 OFFCURVE",
"1147 1389 OFFCURVE",
"1147 1307 CURVE SMOOTH"
);
}
);
width = 1585;
},
{
anchors = (
{
name = bottom;
position = "{830, 0}";
},
{
name = top;
position = "{873, 1452}";
}
);
layerId = "E1B555A7-F4E1-459C-9C1A-AE952106EEF9";
paths = (
{
closed = 1;
nodes = (
"1147 516 LINE",
"555 1284 LINE",
"493 1377 OFFCURVE",
"416 1455 OFFCURVE",
"332 1456 CURVE SMOOTH",
"232 1456 OFFCURVE",
"150 1380 OFFCURVE",
"150 1243 CURVE SMOOTH",
"150 166 LINE SMOOTH",
"150 77 OFFCURVE",
"218 0 OFFCURVE",
"306 0 CURVE SMOOTH",
"392 0 OFFCURVE",
"463 76 OFFCURVE",
"463 166 CURVE SMOOTH",
"463 953 LINE",
"1060 170 LINE",
"1127 75 OFFCURVE",
"1198 0 OFFCURVE",
"1281 0 CURVE SMOOTH",
"1435 0 OFFCURVE",
"1459 145 OFFCURVE",
"1459 302 CURVE SMOOTH",
"1459 1290 LINE SMOOTH",
"1459 1380 OFFCURVE",
"1389 1456 OFFCURVE",
"1302 1456 CURVE SMOOTH",
"1215 1456 OFFCURVE",
"1147 1380 OFFCURVE",
"1147 1290 CURVE SMOOTH"
);
}
);
width = 1609;
}
);
unicode = 004E;
userData = {
anchors = (
);
b = {
};
com.typemytype.robofont.layerData = {
b = {
anchors = (
);
components = (
);
contours = (
);
lib = {
};
name = N;
unicodes = (
);
width = 1499;
};
};
components = (
);
contours = (
);
lib = {
};
name = N;
unicodes = (
);
width = 1557;
};
},
{
glyphname = Eng;
lastChange = "2016-08-02 18:20:47 +0000";
layers = (
{
layerId = "9E718F8A-2CEA-4931-B05D-987794BD97DA";
paths = (
{
closed = 1;
nodes = (
"303 1242 LINE",
"1167 -6 LINE",
"1167 -7 LINE",
"1167 -218 OFFCURVE",
"1123 -323 OFFCURVE",
"944 -323 CURVE SMOOTH",
"873 -323 OFFCURVE",
"778 -306 OFFCURVE",
"654 -273 CURVE SMOOTH",
"647 -271 OFFCURVE",
"640 -270 OFFCURVE",
"634 -270 CURVE SMOOTH",
"598 -270 OFFCURVE",
"574 -291 OFFCURVE",
"574 -320 CURVE SMOOTH",
"574 -345 OFFCURVE",
"592.584 -368.167 OFFCURVE",
"638 -379 CURVE SMOOTH",
"747 -405 OFFCURVE",
"855 -423 OFFCURVE",
"941 -423 CURVE SMOOTH",
"1165 -423 OFFCURVE",
"1283 -317 OFFCURVE",
"1283 49 CURVE SMOOTH",
"1283 1359 LINE SMOOTH",
"1283 1398 OFFCURVE",
"1255 1419 OFFCURVE",
"1225 1419 CURVE SMOOTH",
"1192 1419 OFFCURVE",
"1167 1399 OFFCURVE",
"1167 1359 CURVE SMOOTH",
"1167 175 LINE",
"373 1338 LINE SMOOTH",
"335 1393 OFFCURVE",
"298 1419 OFFCURVE",
"266 1419 CURVE SMOOTH",
"217 1419 OFFCURVE",
"187 1385 OFFCURVE",
"187 1326 CURVE SMOOTH",
"187 59 LINE SMOOTH",
"187 19 OFFCURVE",
"212 0 OFFCURVE",
"246 0 CURVE SMOOTH",
"277 0 OFFCURVE",
"303 20 OFFCURVE",
"303 59 CURVE SMOOTH"
);
}
);
width = 1458;
},
{
layerId = "5FCC6278-3A1D-4B2B-A133-84AE53360430";
paths = (
{
closed = 1;
nodes = (
"331 1187 LINE",
"1161 7 LINE",
"1161 -7 LINE SMOOTH",
"1161 -217 OFFCURVE",
"1112 -316 OFFCURVE",
"937 -316 CURVE SMOOTH",
"867 -316 OFFCURVE",
"776 -300 OFFCURVE",
"658 -269 CURVE SMOOTH",
"650 -267 OFFCURVE",
"642 -266 OFFCURVE",
"635 -266 CURVE SMOOTH",
"594 -266 OFFCURVE",
"566 -297 OFFCURVE",
"566 -330 CURVE SMOOTH",
"566 -358 OFFCURVE",
"587 -388 OFFCURVE",
"637 -398 CURVE SMOOTH",
"753 -422 OFFCURVE",
"855 -437 OFFCURVE",
"942 -437 CURVE SMOOTH",
"1181 -437 OFFCURVE",
"1311 -322 OFFCURVE",
"1311 49 CURVE SMOOTH",
"1311 1350 LINE SMOOTH",
"1311 1399 OFFCURVE",
"1274 1424 OFFCURVE",
"1236 1424 CURVE SMOOTH",
"1196 1424 OFFCURVE",
"1161 1399 OFFCURVE",
"1161 1350 CURVE SMOOTH",
"1161 219 LINE",
"399 1343 LINE SMOOTH",
"361 1399 OFFCURVE",
"314 1424 OFFCURVE",
"278 1424 CURVE SMOOTH",
"222 1424 OFFCURVE",
"182 1384 OFFCURVE",
"182 1313 CURVE SMOOTH",
"182 73 LINE SMOOTH",
"182 24 OFFCURVE",
"217 0 OFFCURVE",
"257 0 CURVE SMOOTH",
"296 0 OFFCURVE",
"331 25 OFFCURVE",
"331 73 CURVE SMOOTH"
);
}
);
width = 1484;
},
{
layerId = "334510DF-EE69-4F45-9EE4-32E3392006F4";
paths = (
{
closed = 1;
nodes = (
"363 1126 LINE",
"1153 -4 LINE",
"1155 -7 LINE",
"1155 -216 OFFCURVE",
"1101 -308 OFFCURVE",
"932 -308 CURVE SMOOTH",
"863 -308 OFFCURVE",
"775 -293 OFFCURVE",
"664 -264 CURVE",
"655 -262 OFFCURVE",
"645 -260 OFFCURVE",
"637 -260 CURVE SMOOTH",
"589 -260 OFFCURVE",
"558 -297 OFFCURVE",
"558 -334 CURVE SMOOTH",
"558 -366 OFFCURVE",
"581 -399 OFFCURVE",
"636 -411 CURVE SMOOTH",
"752 -437 OFFCURVE",
"855 -453 OFFCURVE",
"944 -453 CURVE SMOOTH",
"1199 -453 OFFCURVE",
"1341 -326 OFFCURVE",
"1341 49 CURVE SMOOTH",
"1341 1340 LINE SMOOTH",
"1341 1399 OFFCURVE",
"1294 1429 OFFCURVE",
"1248 1429 CURVE SMOOTH",
"1200 1429 OFFCURVE",
"1155 1399 OFFCURVE",
"1155 1340 CURVE SMOOTH",
"1155 290 LINE",
"427 1350 LINE SMOOTH",
"389 1405 OFFCURVE",
"333 1429 OFFCURVE",
"290 1429 CURVE SMOOTH",
"227 1429 OFFCURVE",
"176 1382 OFFCURVE",
"176 1300 CURVE SMOOTH",
"176 89 LINE SMOOTH",
"176 29 OFFCURVE",
"222 0 OFFCURVE",
"269 0 CURVE SMOOTH",
"316 0 OFFCURVE",
"363 30 OFFCURVE",
"363 89 CURVE SMOOTH"
);
}
);
width = 1512;
},
{
layerId = "F812A762-7E77-4DA4-9A10-AD66CDB59C76";
paths = (
{
closed = 1;
nodes = (
"382 1089 LINE",
"1153 -4 LINE",
"1155 -7 LINE",
"1155 -215.816 OFFCURVE",
"1094.37 -303.377 OFFCURVE",
"929.138 -303.377 CURVE SMOOTH",
"860.942 -303.377 OFFCURVE",
"774.926 -288.462 OFFCURVE",
"668 -261 CURVE SMOOTH",
"657.799 -258.407 OFFCURVE",
"648.091 -257.211 OFFCURVE",
"638.957 -257.211 CURVE SMOOTH",
"586.912 -257.211 OFFCURVE",
"553.481 -296.036 OFFCURVE",
"553.481 -336.401 CURVE SMOOTH",
"553.481 -370.902 OFFCURVE",
"577.903 -406.528 OFFCURVE",
"636 -420 CURVE SMOOTH",
"751.755 -446.967 OFFCURVE",
"855.472 -462.608 OFFCURVE",
"945.784 -462.608 CURVE SMOOTH",
"1210.46 -462.608 OFFCURVE",
"1360 -328.27 OFFCURVE",
"1360 49 CURVE SMOOTH",
"1360 1334 LINE SMOOTH",
"1360 1400 OFFCURVE",
"1307 1433 OFFCURVE",
"1256 1433 CURVE SMOOTH",
"1204 1433 OFFCURVE",
"1152 1399 OFFCURVE",
"1152 1334 CURVE SMOOTH",
"1152 333 LINE",
"444 1354 LINE SMOOTH",
"406 1408 OFFCURVE",
"345 1432 OFFCURVE",
"299 1432 CURVE SMOOTH",
"230 1432 OFFCURVE",
"173 1381 OFFCURVE",
"173 1291 CURVE SMOOTH",
"173 98 LINE SMOOTH",
"173 32 OFFCURVE",
"225 0 OFFCURVE",
"277 0 CURVE SMOOTH",
"329 0 OFFCURVE",
"382 33 OFFCURVE",
"382 98 CURVE SMOOTH"
);
}
);
width = 1530;
},
{
layerId = "04B13600-F055-45EE-B953-7859ECDADD08";
paths = (
{
closed = 1;
nodes = (
"398 1057 LINE",
"1153 24 LINE",
"1154 -7 LINE SMOOTH",
"1154 -215 OFFCURVE",
"1087.58 -299.595 OFFCURVE",
"924.734 -299.595 CURVE SMOOTH",
"857.147 -299.595 OFFCURVE",
"772.951 -285.104 OFFCURVE",
"670 -259 CURVE SMOOTH",
"659.052 -256.197 OFFCURVE",
"648.641 -254.906 OFFCURVE",
"638.854 -254.906 CURVE SMOOTH",
"583.805 -254.906 OFFCURVE",
"548.509 -295.767 OFFCURVE",
"548.509 -338.391 CURVE SMOOTH",
"548.509 -374.71 OFFCURVE",
"574.134 -412.308 OFFCURVE",
"635 -427 CURVE SMOOTH",
"750.904 -454.847 OFFCURVE",
"855.227 -470.61 OFFCURVE",
"946.485 -470.61 CURVE SMOOTH",
"1218.99 -470.61 OFFCURVE",
"1375 -330.058 OFFCURVE",
"1375 49 CURVE SMOOTH",
"1375 1328 LINE SMOOTH",
"1375 1400 OFFCURVE",
"1318 1436 OFFCURVE",
"1262 1436 CURVE SMOOTH",
"1206 1436 OFFCURVE",
"1148 1399 OFFCURVE",
"1148 1328 CURVE SMOOTH",
"1148 387 LINE",
"458 1357 LINE SMOOTH",
"420 1411 OFFCURVE",
"354 1435 OFFCURVE",
"305 1435 CURVE SMOOTH",
"232 1435 OFFCURVE",
"170 1380 OFFCURVE",
"170 1284 CURVE SMOOTH",
"170 106 LINE SMOOTH",
"170 35 OFFCURVE",
"227 0 OFFCURVE",
"283 0 CURVE SMOOTH",
"339 0 OFFCURVE",
"398 36 OFFCURVE",
"398 106 CURVE SMOOTH"
);
}
);
width = 1545;
},
{
layerId = "A4C065E6-C319-4A8F-B4BD-A6F28D5DCD95";
paths = (
{
closed = 1;
nodes = (
"422 1012 LINE",
"1151 -5 LINE",
"1152 -7 LINE",
"1152 -206 OFFCURVE",
"1085 -288 OFFCURVE",
"927 -288 CURVE SMOOTH",
"863 -288 OFFCURVE",
"784 -275 OFFCURVE",
"688 -250 CURVE SMOOTH",
"677 -247 OFFCURVE",
"666 -246 OFFCURVE",
"656 -246 CURVE SMOOTH",
"597 -246 OFFCURVE",
"560 -291 OFFCURVE",
"560 -338 CURVE SMOOTH",
"560 -377 OFFCURVE",
"586 -418 OFFCURVE",
"649 -433 CURVE SMOOTH",
"765 -462 OFFCURVE",
"870 -477 OFFCURVE",
"962 -477 CURVE SMOOTH",
"1241 -477 OFFCURVE",
"1403 -332 OFFCURVE",
"1403 49 CURVE SMOOTH",
"1403 1316 LINE SMOOTH",
"1403 1395 OFFCURVE",
"1340 1443 OFFCURVE",
"1275 1443 CURVE SMOOTH",
"1209 1443 OFFCURVE",
"1146 1394 OFFCURVE",
"1146 1316 CURVE SMOOTH",
"1146 430 LINE",
"488 1341 LINE SMOOTH",
"445 1405 OFFCURVE",
"373 1442 OFFCURVE",
"315 1442 CURVE SMOOTH",
"234 1442 OFFCURVE",
"164 1379 OFFCURVE",
"164 1269 CURVE SMOOTH",
"164 126 LINE SMOOTH",
"164 47 OFFCURVE",
"228 0 OFFCURVE",
"292 0 CURVE SMOOTH",
"357 0 OFFCURVE",
"422 48 OFFCURVE",
"422 126 CURVE SMOOTH"
);
}
);
width = 1568;
},
{
layerId = "8F6BE840-9356-4940-A488-AC64157678BA";
paths = (
{
closed = 1;
nodes = (
"439 992 LINE",
"1147 -5 LINE",
"1148 -7 LINE",
"1148 -197.548 OFFCURVE",
"1086.99 -280.553 OFFCURVE",
"934.114 -280.553 CURVE SMOOTH",
"874.382 -280.553 OFFCURVE",
"800.624 -267.881 OFFCURVE",
"711 -244 CURVE SMOOTH",
"699.563 -240.881 OFFCURVE",
"688.69 -239.443 OFFCURVE",
"678.465 -239.443 CURVE SMOOTH",
"620.011 -239.443 OFFCURVE",
"582.763 -286.429 OFFCURVE",
"582.763 -334.829 CURVE SMOOTH",
"582.763 -375.677 OFFCURVE",
"609.294 -417.533 OFFCURVE",
"672 -433 CURVE SMOOTH",
"788.036 -461.513 OFFCURVE",
"892.885 -477.363 OFFCURVE",
"984.959 -477.363 CURVE SMOOTH",
"1264.24 -477.363 OFFCURVE",
"1426 -331.542 OFFCURVE",
"1426 49 CURVE SMOOTH",
"1426 1307 LINE SMOOTH",
"1426 1390 OFFCURVE",
"1360 1447 OFFCURVE",
"1286 1447 CURVE SMOOTH",
"1212 1447 OFFCURVE",
"1147 1389 OFFCURVE",
"1147 1307 CURVE SMOOTH",
"1147 446 LINE",
"516 1322 LINE SMOOTH",
"465 1395 OFFCURVE",
"391 1446 OFFCURVE",
"322 1447 CURVE SMOOTH",
"233 1447 OFFCURVE",
"159 1380 OFFCURVE",
"159 1261 CURVE SMOOTH",
"159 139 LINE SMOOTH",
"159 57 OFFCURVE",
"224 0 OFFCURVE",
"298 0 CURVE SMOOTH",
"371 0 OFFCURVE",
"439 57 OFFCURVE",
"439 139 CURVE SMOOTH"
);
}
);
width = 1585;
},
{
layerId = "E1B555A7-F4E1-459C-9C1A-AE952106EEF9";
paths = (
{
closed = 1;
nodes = (
"463 953 LINE",
"1142 -5 LINE",
"1143 -7 LINE",
"1143 -179.291 OFFCURVE",
"1090.32 -265.042 OFFCURVE",
"944.381 -265.042 CURVE SMOOTH",
"891.262 -265.042 OFFCURVE",
"825.787 -253.682 OFFCURVE",
"746 -231 CURVE SMOOTH",
"734.573 -227.624 OFFCURVE",
"723.693 -226.069 OFFCURVE",
"713.448 -226.069 CURVE SMOOTH",
"654.445 -226.069 OFFCURVE",
"616.515 -277.652 OFFCURVE",
"616.515 -330.003 CURVE SMOOTH",
"616.515 -373.561 OFFCURVE",
"642.773 -417.651 OFFCURVE",
"705 -433 CURVE SMOOTH",
"821.036 -461.513 OFFCURVE",
"925.885 -477.363 OFFCURVE",
"1017.96 -477.363 CURVE SMOOTH",
"1297.24 -477.363 OFFCURVE",
"1459 -331.542 OFFCURVE",
"1459 49 CURVE SMOOTH",
"1459 1290 LINE SMOOTH",
"1459 1380 OFFCURVE",
"1389 1456 OFFCURVE",
"1302 1456 CURVE SMOOTH",
"1215 1456 OFFCURVE",
"1147 1380 OFFCURVE",
"1147 1290 CURVE SMOOTH",
"1147 466 LINE",
"555 1284 LINE SMOOTH",
"489 1375 OFFCURVE",
"416 1455 OFFCURVE",
"332 1456 CURVE SMOOTH",
"232 1456 OFFCURVE",
"150 1380 OFFCURVE",
"150 1243 CURVE SMOOTH",
"150 166 LINE SMOOTH",
"150 77 OFFCURVE",
"218 0 OFFCURVE",
"306 0 CURVE SMOOTH",
"392 0 OFFCURVE",
"463 76 OFFCURVE",
"463 166 CURVE SMOOTH"
);
}
);
width = 1609;
}
);
unicode = 014A;
userData = {
com.typemytype.robofont.layerData = {
b = {
anchors = (
);
components = (
);
contours = (
);
lib = {
};
name = Eng;
unicodes = (
);
width = 1495;
};
};
};
},
{
glyphname = O;
lastChange = "2016-08-02 17:46:46 +0000";
layers = (
{
anchors = (
{
name = bottom;
position = "{797, 0}";
},
{
name = center;
position = "{797, 710}";
},
{
name = ogonek;
position = "{1434, 10}";
},
{
name = top;
position = "{795, 1438}";
},
{
name = topleft;
position = "{20, 1419}";
},
{
name = topright;
position = "{1573, 1419}";
}
);
layerId = "9E718F8A-2CEA-4931-B05D-987794BD97DA";
paths = (
{
closed = 1;
nodes = (
"407 1412 OFFCURVE",
"146 1143 OFFCURVE",
"146 695 CURVE SMOOTH",
"146 247 OFFCURVE",
"407 -22 OFFCURVE",
"797 -22 CURVE SMOOTH",
"1184 -22 OFFCURVE",
"1447 247 OFFCURVE",
"1447 695 CURVE SMOOTH",
"1447 1143 OFFCURVE",
"1184 1412 OFFCURVE",
"797 1412 CURVE SMOOTH"
);
},
{
closed = 1;
nodes = (
"1104 1312 OFFCURVE",
"1315 1091 OFFCURVE",
"1315 695 CURVE SMOOTH",
"1315 302 OFFCURVE",
"1105 78 OFFCURVE",
"797 78 CURVE SMOOTH",
"490 78 OFFCURVE",
"278 302 OFFCURVE",
"278 695 CURVE SMOOTH",
"278 1091 OFFCURVE",
"490 1312 OFFCURVE",
"797 1312 CURVE SMOOTH"
);
}
);
width = 1593;
},
{
anchors = (
{
name = bottom;
position = "{798, 0}";
},
{
name = center;
position = "{798, 712}";
},
{
name = ogonek;
position = "{1436, 10}";
},
{
name = top;
position = "{798, 1424}";
},
{
name = topleft;
position = "{20, 1424}";
},
{
name = topright;
position = "{1576, 1424}";
}
);
layerId = "5FCC6278-3A1D-4B2B-A133-84AE53360430";
paths = (
{
closed = 1;
nodes = (
"393 1430 OFFCURVE",
"135 1152 OFFCURVE",
"135 704 CURVE SMOOTH",
"135 256 OFFCURVE",
"393 -22 OFFCURVE",
"798 -22 CURVE SMOOTH",
"1202 -22 OFFCURVE",
"1461 256 OFFCURVE",
"1461 704 CURVE SMOOTH",
"1461 1152 OFFCURVE",
"1202 1430 OFFCURVE",
"798 1430 CURVE SMOOTH"
);
},
{
closed = 1;
nodes = (
"1100 1301 OFFCURVE",
"1290 1079 OFFCURVE",
"1290 704 CURVE SMOOTH",
"1290 330 OFFCURVE",
"1100 107 OFFCURVE",
"798 107 CURVE SMOOTH",
"497 107 OFFCURVE",
"306 330 OFFCURVE",
"306 704 CURVE SMOOTH",
"306 1079 OFFCURVE",
"497 1301 OFFCURVE",
"798 1301 CURVE SMOOTH"
);
}
);
width = 1596;
},
{
anchors = (
{
name = bottom;
position = "{800, 0}";
},
{
name = center;
position = "{800, 715}";
},
{
name = ogonek;
position = "{1439, 10}";
},
{
name = top;
position = "{801, 1438}";
},
{
name = topleft;
position = "{20, 1429}";
},
{
name = topright;
position = "{1579, 1429}";
}
);
layerId = "334510DF-EE69-4F45-9EE4-32E3392006F4";
paths = (
{
closed = 1;
nodes = (
"378 1450 OFFCURVE",
"123 1162 OFFCURVE",
"123 714 CURVE SMOOTH",
"123 266 OFFCURVE",
"378 -22 OFFCURVE",
"800 -22 CURVE SMOOTH",
"1222 -22 OFFCURVE",
"1476 266 OFFCURVE",
"1476 714 CURVE SMOOTH",
"1476 1162 OFFCURVE",
"1222 1450 OFFCURVE",
"800 1450 CURVE SMOOTH"
);
},
{
closed = 1;
nodes = (
"1095 1288 OFFCURVE",
"1262 1066 OFFCURVE",
"1262 714 CURVE SMOOTH",
"1262 361 OFFCURVE",
"1095 140 OFFCURVE",
"800 140 CURVE SMOOTH",
"505 140 OFFCURVE",
"337 361 OFFCURVE",
"337 714 CURVE SMOOTH",
"337 1066 OFFCURVE",
"504 1288 OFFCURVE",
"800 1288 CURVE SMOOTH"
);
}
);
width = 1599;
},
{
anchors = (
{
name = bottom;
position = "{801, 0}";
},
{
name = center;
position = "{801, 717}";
},
{
name = ogonek;
position = "{1441, 10}";
},
{
name = top;
position = "{802, 1438}";
},
{
name = topleft;
position = "{20, 1433}";
},
{
name = topright;
position = "{1581, 1433}";
}
);
layerId = "F812A762-7E77-4DA4-9A10-AD66CDB59C76";
paths = (
{
closed = 1;
nodes = (
"369 1462 OFFCURVE",
"115 1168 OFFCURVE",
"115 720 CURVE SMOOTH",
"115 272 OFFCURVE",
"369 -22 OFFCURVE",
"801 -22 CURVE SMOOTH",
"1234 -22 OFFCURVE",
"1485 272 OFFCURVE",
"1485 720 CURVE SMOOTH",
"1485 1168 OFFCURVE",
"1234 1462 OFFCURVE",
"801 1462 CURVE SMOOTH"
);
},
{
closed = 1;
nodes = (
"1092 1281 OFFCURVE",
"1245 1058 OFFCURVE",
"1245 720 CURVE SMOOTH",
"1245 380 OFFCURVE",
"1091 159 OFFCURVE",
"801 159 CURVE SMOOTH",
"510 159 OFFCURVE",
"356 380 OFFCURVE",
"356 720 CURVE SMOOTH",
"356 1058 OFFCURVE",
"509 1281 OFFCURVE",
"801 1281 CURVE SMOOTH"
);
}
);
width = 1601;
},
{
anchors = (
{
name = bottom;
position = "{802, 0}";
},
{
name = center;
position = "{802, 718}";
},
{
name = ogonek;
position = "{1443, 10}";
},
{
name = top;
position = "{804, 1438}";
},
{
name = topleft;
position = "{20, 1436}";
},
{
name = topright;
position = "{1583, 1436}";
}
);
layerId = "04B13600-F055-45EE-B953-7859ECDADD08";
paths = (
{
closed = 1;
nodes = (
"361 1472 OFFCURVE",
"109 1173 OFFCURVE",
"109 725 CURVE SMOOTH",
"109 278 OFFCURVE",
"361 -22 OFFCURVE",
"801 -22 CURVE SMOOTH",
"1244 -22 OFFCURVE",
"1493 278 OFFCURVE",
"1493 725 CURVE SMOOTH",
"1493 1173 OFFCURVE",
"1244 1472 OFFCURVE",
"801 1472 CURVE SMOOTH"
);
},
{
closed = 1;
nodes = (
"1090 1274 OFFCURVE",
"1231 1052 OFFCURVE",
"1231 725 CURVE SMOOTH",
"1231 396 OFFCURVE",
"1088 176 OFFCURVE",
"801 176 CURVE SMOOTH",
"514 176 OFFCURVE",
"372 396 OFFCURVE",
"372 725 CURVE SMOOTH",
"372 1052 OFFCURVE",
"513 1274 OFFCURVE",
"801 1274 CURVE SMOOTH"
);
}
);
width = 1603;
},
{
anchors = (
{
name = bottom;
position = "{805, 0}";
},
{
name = center;
position = "{805, 721}";
},
{
name = ogonek;
position = "{1449, 10}";
},
{
name = top;
position = "{807, 1441}";
},
{
name = topleft;
position = "{20, 1442}";
},
{
name = topright;
position = "{1590, 1442}";
}
);
layerId = "A4C065E6-C319-4A8F-B4BD-A6F28D5DCD95";
paths = (
{
closed = 1;
nodes = (
"353 1483 OFFCURVE",
"104 1191 OFFCURVE",
"104 728 CURVE SMOOTH",
"104 265 OFFCURVE",
"353 -26 OFFCURVE",
"805 -26 CURVE SMOOTH",
"1260 -26 OFFCURVE",
"1506 265 OFFCURVE",
"1506 728 CURVE SMOOTH",
"1506 1191 OFFCURVE",
"1260 1483 OFFCURVE",
"805 1483 CURVE SMOOTH"
);
},
{
closed = 1;
nodes = (
"1081 1256 OFFCURVE",
"1204 1057 OFFCURVE",
"1204 728 CURVE SMOOTH",
"1204 396 OFFCURVE",
"1079 200 OFFCURVE",
"805 200 CURVE SMOOTH",
"530 200 OFFCURVE",
"406 396 OFFCURVE",
"406 728 CURVE SMOOTH",
"406 1057 OFFCURVE",
"530 1256 OFFCURVE",
"805 1256 CURVE SMOOTH"
);
}
);
width = 1610;
},
{
anchors = (
{
name = bottom;
position = "{810, 0}";
},
{
name = center;
position = "{810, 723}";
},
{
name = ogonek;
position = "{1458, 10}";
},
{
name = top;
position = "{811, 1445}";
},
{
name = topleft;
position = "{20, 1446}";
},
{
name = topright;
position = "{1600, 1446}";
}
);
layerId = "8F6BE840-9356-4940-A488-AC64157678BA";
paths = (
{
closed = 1;
nodes = (
"350 1484 OFFCURVE",
"103 1206 OFFCURVE",
"103 727 CURVE SMOOTH",
"103 248 OFFCURVE",
"350 -30 OFFCURVE",
"810 -30 CURVE SMOOTH",
"1271 -30 OFFCURVE",
"1517 248 OFFCURVE",
"1517 727 CURVE SMOOTH",
"1517 1206 OFFCURVE",
"1271 1484 OFFCURVE",
"810 1484 CURVE SMOOTH"
);
},
{
closed = 1;
nodes = (
"1069 1244 OFFCURVE",
"1180 1069 OFFCURVE",
"1180 727 CURVE SMOOTH",
"1180 384 OFFCURVE",
"1068 210 OFFCURVE",
"810 210 CURVE SMOOTH",
"552 210 OFFCURVE",
"440 384 OFFCURVE",
"440 727 CURVE SMOOTH",
"440 1069 OFFCURVE",
"551 1244 OFFCURVE",
"810 1244 CURVE SMOOTH"
);
}
);
width = 1620;
},
{
anchors = (
{
name = bottom;
position = "{817, 0}";
},
{
name = center;
position = "{817, 728}";
},
{
name = ogonek;
position = "{1470, 10}";
},
{
name = top;
position = "{816, 1452}";
},
{
name = topleft;
position = "{20, 1456}";
},
{
name = topright;
position = "{1613, 1456}";
}
);
layerId = "E1B555A7-F4E1-459C-9C1A-AE952106EEF9";
paths = (
{
closed = 1;
nodes = (
"347 1487 OFFCURVE",
"102 1235 OFFCURVE",
"102 724 CURVE SMOOTH",
"102 215 OFFCURVE",
"347 -38 OFFCURVE",
"817 -38 CURVE SMOOTH",
"1286 -38 OFFCURVE",
"1531 215 OFFCURVE",
"1531 724 CURVE SMOOTH",
"1531 1235 OFFCURVE",
"1286 1487 OFFCURVE",
"817 1487 CURVE SMOOTH"
);
},
{
closed = 1;
nodes = (
"1052 1219 OFFCURVE",
"1146 1092 OFFCURVE",
"1146 724 CURVE SMOOTH",
"1146 359 OFFCURVE",
"1052 231 OFFCURVE",
"817 231 CURVE SMOOTH",
"583 231 OFFCURVE",
"489 359 OFFCURVE",
"489 724 CURVE SMOOTH",
"489 1092 OFFCURVE",
"583 1219 OFFCURVE",
"817 1219 CURVE SMOOTH"
);
}
);
width = 1633;
}
);
unicode = 004F;
userData = {
anchors = (
);
b = {
};
com.typemytype.robofont.guides = (
);
com.typemytype.robofont.layerData = {
b = {
anchors = (
);
components = (
);
contours = (
);
lib = {
};
name = O;
unicodes = (
);
width = 1597;
};
};
components = (
);
contours = (
);
lib = {
};
name = O;
unicodes = (
);
width = 1604;
};
},
{
glyphname = Oslash;
lastChange = "2016-08-02 17:46:46 +0000";
layers = (
{
anchors = (
{
name = bottom;
position = "{797, 0}";
},
{
name = top;
position = "{797, 1419}";
}
);
components = (
{
name = O;
}
);
layerId = "9E718F8A-2CEA-4931-B05D-987794BD97DA";
paths = (
{
closed = 1;
nodes = (
"226 -23 LINE",
"219 -32 OFFCURVE",
"218 -39 OFFCURVE",
"218 -47 CURVE SMOOTH",
"218 -69 OFFCURVE",
"238 -91 OFFCURVE",
"263 -91 CURVE SMOOTH",
"276 -91 OFFCURVE",
"294 -91 OFFCURVE",
"312 -70 CURVE",
"1381 1427 LINE SMOOTH",
"1394 1446 OFFCURVE",
"1398 1462 OFFCURVE",
"1398 1474 CURVE SMOOTH",
"1398 1503 OFFCURVE",
"1377 1521 OFFCURVE",
"1353 1521 CURVE SMOOTH",
"1338 1521 OFFCURVE",
"1316 1516 OFFCURVE",
"1299 1491 CURVE SMOOTH"
);
}
);
width = 1593;
},
{
anchors = (
{
name = bottom;
position = "{798, 0}";
},
{
name = top;
position = "{798, 1424}";
}
);
components = (
{
name = O;
}
);
layerId = "5FCC6278-3A1D-4B2B-A133-84AE53360430";
paths = (
{
closed = 1;
nodes = (
"230 -27 LINE SMOOTH",
"222 -39 OFFCURVE",
"219 -50 OFFCURVE",
"219 -61 CURVE SMOOTH",
"219 -89 OFFCURVE",
"243 -112 OFFCURVE",
"271 -112 CURVE SMOOTH",
"289 -112 OFFCURVE",
"308 -107 OFFCURVE",
"327 -81 CURVE SMOOTH",
"1386 1433 LINE SMOOTH",
"1399 1453 OFFCURVE",
"1405 1471 OFFCURVE",
"1405 1486 CURVE SMOOTH",
"1405 1518 OFFCURVE",
"1381 1539 OFFCURVE",
"1352 1539 CURVE SMOOTH",
"1334 1539 OFFCURVE",
"1312 1533 OFFCURVE",
"1294 1506 CURVE SMOOTH"
);
}
);
width = 1596;
},
{
anchors = (
{
name = bottom;
position = "{800, 0}";
},
{
name = top;
position = "{800, 1429}";
}
);
layerId = "334510DF-EE69-4F45-9EE4-32E3392006F4";
paths = (
{
closed = 1;
nodes = (
"1173.34 1352.36 LINE",
"1071.26 1415.7 OFFCURVE",
"945.633 1450 OFFCURVE",
"800 1450 CURVE SMOOTH",
"378 1450 OFFCURVE",
"123 1162 OFFCURVE",
"123 714 CURVE SMOOTH",
"123 463.006 OFFCURVE",
"203.041 262.233 OFFCURVE",
"347.647 134.192 CURVE",
"235 -32 LINE SMOOTH",
"225 -47 OFFCURVE",
"220 -62 OFFCURVE",
"220 -76 CURVE SMOOTH",
"220 -110 OFFCURVE",
"248 -135 OFFCURVE",
"281 -135 CURVE SMOOTH",
"304 -135 OFFCURVE",
"323 -123 OFFCURVE",
"345 -94 CURVE",
"450.999 61.203 LINE",
"548.571 7.105 OFFCURVE",
"665.847 -22 OFFCURVE",
"800 -22 CURVE SMOOTH",
"1222 -22 OFFCURVE",
"1476 266 OFFCURVE",
"1476 714 CURVE SMOOTH",
"1476 950.174 OFFCURVE",
"1405.41 1141.88 OFFCURVE",
"1276.83 1270.37 CURVE",
"1392 1439 LINE SMOOTH",
"1406 1460 OFFCURVE",
"1413 1481 OFFCURVE",
"1413 1499 CURVE SMOOTH",
"1413 1535 OFFCURVE",
"1384 1559 OFFCURVE",
"1352 1559 CURVE SMOOTH",
"1331 1559 OFFCURVE",
"1307 1551 OFFCURVE",
"1289 1523 CURVE SMOOTH"
);
},
{
closed = 1;
nodes = (
"457.076 295.635 LINE",
"378.716 394.971 OFFCURVE",
"337 538.097 OFFCURVE",
"337 714 CURVE SMOOTH",
"337 1066 OFFCURVE",
"504 1288 OFFCURVE",
"800 1288 CURVE SMOOTH",
"908.545 1288 OFFCURVE",
"999.76 1257.94 OFFCURVE",
"1071.7 1202.42 CURVE"
);
},
{
closed = 1;
nodes = (
"1162.93 1103.61 LINE",
"1227.77 1006.07 OFFCURVE",
"1262 873.359 OFFCURVE",
"1262 714 CURVE SMOOTH",
"1262 361 OFFCURVE",
"1095 140 OFFCURVE",
"800 140 CURVE SMOOTH",
"702.987 140 OFFCURVE",
"619.709 163.9 OFFCURVE",
"551.624 208.536 CURVE"
);
}
);
width = 1599;
},
{
anchors = (
{
name = bottom;
position = "{801, 0}";
},
{
name = top;
position = "{801, 1433}";
}
);
layerId = "F812A762-7E77-4DA4-9A10-AD66CDB59C76";
paths = (
{
closed = 1;
nodes = (
"1174.87 1366.73 LINE",
"1072.79 1428.44 OFFCURVE",
"947.283 1462 OFFCURVE",
"801 1462 CURVE SMOOTH",
"369 1462 OFFCURVE",
"115 1168 OFFCURVE",
"115 720 CURVE SMOOTH",
"115 464.73 OFFCURVE",
"197.466 259.46 OFFCURVE",
"348.339 130.088 CURVE",
"238 -35 LINE SMOOTH",
"226 -52 OFFCURVE",
"220 -70 OFFCURVE",
"220 -86 CURVE SMOOTH",
"220 -123 OFFCURVE",
"251 -149 OFFCURVE",
"286 -149 CURVE SMOOTH",
"313 -149 OFFCURVE",
"333 -133 OFFCURVE",
"355 -101 CURVE SMOOTH",
"460.006 54.793 LINE",
"555.99 4.888 OFFCURVE",
"670.355 -22 OFFCURVE",
"801 -22 CURVE SMOOTH",
"1234 -22 OFFCURVE",
"1485 272 OFFCURVE",
"1485 720 CURVE SMOOTH",
"1485 956.279 OFFCURVE",
"1415.18 1149.72 OFFCURVE",
"1285.67 1279.79 CURVE",
"1395 1442 LINE SMOOTH",
"1410 1465 OFFCURVE",
"1418 1487 OFFCURVE",
"1418 1507 CURVE SMOOTH",
"1418 1545 OFFCURVE",
"1386 1571 OFFCURVE",
"1351 1571 CURVE SMOOTH",
"1329 1571 OFFCURVE",
"1304 1562 OFFCURVE",
"1286 1533 CURVE SMOOTH"
);
},
{
closed = 1;
nodes = (
"469.668 311.618 LINE",
"394.6 409.384 OFFCURVE",
"356 549.778 OFFCURVE",
"356 720 CURVE SMOOTH",
"356 1058 OFFCURVE",
"509 1281 OFFCURVE",
"801 1281 CURVE SMOOTH",
"906.456 1281 OFFCURVE",
"993.789 1251.71 OFFCURVE",
"1062.28 1198.28 CURVE"
);
},
{
closed = 1;
nodes = (
"1157.63 1089.82 LINE",
"1215.45 994.868 OFFCURVE",
"1245 868.539 OFFCURVE",
"1245 720 CURVE SMOOTH",
"1245 380 OFFCURVE",
"1091 159 OFFCURVE",
"801 159 CURVE SMOOTH",
"711.046 159 OFFCURVE",
"634.183 180.118 OFFCURVE",
"570.913 219.34 CURVE"
);
}
);
width = 1601;
},
{
anchors = (
{
name = bottom;
position = "{802, 0}";
},
{
name = top;
position = "{802, 1436}";
}
);
layerId = "04B13600-F055-45EE-B953-7859ECDADD08";
paths = (
{
closed = 1;
nodes = (
"1175.36 1379.04 LINE",
"1073.19 1439.2 OFFCURVE",
"947.736 1472 OFFCURVE",
"801 1472 CURVE SMOOTH",
"361 1472 OFFCURVE",
"109 1173 OFFCURVE",
"109 725 CURVE SMOOTH",
"109 466.999 OFFCURVE",
"192.951 257.97 OFFCURVE",
"348.548 127.331 CURVE",
"240 -37 LINE SMOOTH",
"228 -56 OFFCURVE",
"221 -76 OFFCURVE",
"221 -94 CURVE SMOOTH",
"221 -134 OFFCURVE",
"254 -161 OFFCURVE",
"291 -161 CURVE SMOOTH",
"321 -161 OFFCURVE",
"341 -142 OFFCURVE",
"364 -108 CURVE SMOOTH",
"468.681 49.224 LINE",
"562.785 2.966 OFFCURVE",
"674.07 -22 OFFCURVE",
"801 -22 CURVE SMOOTH",
"1244 -22 OFFCURVE",
"1493 278 OFFCURVE",
"1493 725 CURVE SMOOTH",
"1493 961.334 OFFCURVE",
"1423.71 1156.2 OFFCURVE",
"1293.19 1287.59 CURVE",
"1398 1445 LINE SMOOTH",
"1413 1469 OFFCURVE",
"1422 1493 OFFCURVE",
"1422 1513 CURVE SMOOTH",
"1422 1554 OFFCURVE",
"1388 1582 OFFCURVE",
"1351 1582 CURVE SMOOTH",
"1327 1582 OFFCURVE",
"1302 1572 OFFCURVE",
"1283 1542 CURVE SMOOTH"
);
},
{
closed = 1;
nodes = (
"479.748 325.954 LINE",
"407.789 422.134 OFFCURVE",
"372 559.831 OFFCURVE",
"372 725 CURVE SMOOTH",
"372 1052 OFFCURVE",
"513 1274 OFFCURVE",
"801 1274 CURVE SMOOTH",
"903.887 1274 OFFCURVE",
"988.017 1245.86 OFFCURVE",
"1053.7 1194.87 CURVE"
);
},
{
closed = 1;
nodes = (
"1153.28 1077.44 LINE",
"1205.27 985.197 OFFCURVE",
"1231 864.677 OFFCURVE",
"1231 725 CURVE SMOOTH",
"1231 396 OFFCURVE",
"1088 176 OFFCURVE",
"801 176 CURVE SMOOTH",
"717.914 176 OFFCURVE",
"646.98 194.438 OFFCURVE",
"588.125 228.621 CURVE"
);
}
);
width = 1603;
},
{
anchors = (
{
name = bottom;
position = "{803, 0}";
},
{
name = top;
position = "{803, 1442}";
}
);
layerId = "A4C065E6-C319-4A8F-B4BD-A6F28D5DCD95";
paths = (
{
closed = 1;
nodes = (
"1174 1399 LINE",
"1073 1454 OFFCURVE",
"949 1483 OFFCURVE",
"805 1483 CURVE SMOOTH",
"353 1483 OFFCURVE",
"104 1191 OFFCURVE",
"104 728 CURVE SMOOTH",
"104 459 OFFCURVE",
"188 248 OFFCURVE",
"347 118 CURVE",
"244 -42 LINE SMOOTH",
"230 -64 OFFCURVE",
"221 -89 OFFCURVE",
"221 -111 CURVE SMOOTH",
"221 -157 OFFCURVE",
"258 -186 OFFCURVE",
"300 -186 CURVE SMOOTH",
"333 -186 OFFCURVE",
"354 -160 OFFCURVE",
"379 -121 CURVE SMOOTH",
"482 36 LINE",
"574 -5 OFFCURVE",
"682 -26 OFFCURVE",
"805 -26 CURVE SMOOTH",
"1260 -26 OFFCURVE",
"1506 265 OFFCURVE",
"1506 728 CURVE SMOOTH",
"1506 973 OFFCURVE",
"1437 1170 OFFCURVE",
"1305 1301 CURVE",
"1403 1452 LINE SMOOTH",
"1419 1477 OFFCURVE",
"1429 1504 OFFCURVE",
"1429 1527 CURVE SMOOTH",
"1429 1572 OFFCURVE",
"1392 1604 OFFCURVE",
"1351 1604 CURVE SMOOTH",
"1323 1604 OFFCURVE",
"1297 1591 OFFCURVE",
"1278 1560 CURVE SMOOTH"
);
},
{
closed = 1;
nodes = (
"496 349 LINE",
"435 439 OFFCURVE",
"406 567 OFFCURVE",
"406 728 CURVE SMOOTH",
"406 1057 OFFCURVE",
"530 1256 OFFCURVE",
"805 1256 CURVE SMOOTH",
"900 1256 OFFCURVE",
"978 1233 OFFCURVE",
"1038 1188 CURVE"
);
},
{
closed = 1;
nodes = (
"1144 1054 LINE",
"1185 969 OFFCURVE",
"1204 859 OFFCURVE",
"1204 728 CURVE SMOOTH",
"1204 396 OFFCURVE",
"1079 200 OFFCURVE",
"805 200 CURVE SMOOTH",
"731 200 OFFCURVE",
"668 215 OFFCURVE",
"615 242 CURVE"
);
}
);
width = 1606;
},
{
anchors = (
{
name = bottom;
position = "{804, 0}";
},
{
name = top;
position = "{804, 1446}";
}
);
layerId = "8F6BE840-9356-4940-A488-AC64157678BA";
paths = (
{
closed = 1;
nodes = (
"1171.51 1408.32 LINE",
"1071.67 1458.04 OFFCURVE",
"950.876 1484 OFFCURVE",
"810 1484 CURVE SMOOTH",
"350 1484 OFFCURVE",
"103 1206 OFFCURVE",
"103 727 CURVE SMOOTH",
"103 448.849 OFFCURVE",
"186.289 238.475 OFFCURVE",
"346.21 110.957 CURVE",
"247 -45 LINE SMOOTH",
"232 -69 OFFCURVE",
"222 -97 OFFCURVE",
"222 -121 CURVE SMOOTH",
"222 -171 OFFCURVE",
"262 -201 OFFCURVE",
"306 -201 CURVE SMOOTH",
"344 -201 OFFCURVE",
"365 -171 OFFCURVE",
"391 -129 CURVE SMOOTH",
"490.818 26.719 LINE",
"581.947 -10.621 OFFCURVE",
"688.549 -30 OFFCURVE",
"810 -30 CURVE SMOOTH",
"1271 -30 OFFCURVE",
"1517 248 OFFCURVE",
"1517 727 CURVE SMOOTH",
"1517 981.781 OFFCURVE",
"1447.4 1179.69 OFFCURVE",
"1312.87 1309.15 CURVE",
"1407 1456 LINE SMOOTH",
"1423 1482 OFFCURVE",
"1435 1510 OFFCURVE",
"1435 1536 CURVE SMOOTH",
"1435 1583 OFFCURVE",
"1394 1617 OFFCURVE",
"1350 1617 CURVE SMOOTH",
"1321 1617 OFFCURVE",
"1294 1603 OFFCURVE",
"1275 1571 CURVE SMOOTH"
);
},
{
closed = 1;
nodes = (
"510.197 368.742 LINE",
"462.386 454.084 OFFCURVE",
"440 573.652 OFFCURVE",
"440 727 CURVE SMOOTH",
"440 1069 OFFCURVE",
"551 1244 OFFCURVE",
"810 1244 CURVE SMOOTH",
"899.611 1244 OFFCURVE",
"971.505 1223.05 OFFCURVE",
"1027.21 1181.49 CURVE"
);
},
{
closed = 1;
nodes = (
"1134.93 1031.55 LINE",
"1165.55 952.02 OFFCURVE",
"1180 850.377 OFFCURVE",
"1180 727 CURVE SMOOTH",
"1180 384 OFFCURVE",
"1068 210 OFFCURVE",
"810 210 CURVE SMOOTH",
"740.465 210 OFFCURVE",
"681.535 222.639 OFFCURVE",
"632.545 247.82 CURVE"
);
}
);
width = 1608;
},
{
anchors = (
{
name = bottom;
position = "{806, 0}";
},
{
name = top;
position = "{806, 1456}";
}
);
components = (
{
name = O;
}
);
layerId = "E1B555A7-F4E1-459C-9C1A-AE952106EEF9";
paths = (
{
closed = 1;
nodes = (
"252 -51 LINE SMOOTH",
"235 -79 OFFCURVE",
"223 -112 OFFCURVE",
"223 -141 CURVE SMOOTH",
"223 -198 OFFCURVE",
"267 -231 OFFCURVE",
"316 -231 CURVE SMOOTH",
"358 -231 OFFCURVE",
"380 -192 OFFCURVE",
"408 -145 CURVE SMOOTH",
"1413 1464 LINE SMOOTH",
"1430 1491 OFFCURVE",
"1443 1523 OFFCURVE",
"1443 1553 CURVE SMOOTH",
"1443 1605 OFFCURVE",
"1398 1643 OFFCURVE",
"1350 1643 CURVE SMOOTH",
"1317 1643 OFFCURVE",
"1289 1627 OFFCURVE",
"1269 1593 CURVE SMOOTH"
);
}
);
width = 1612;
}
);
unicode = 00D8;
userData = {
com.typemytype.robofont.layerData = {
b = {
anchors = (
);
components = (
);
contours = (
);
lib = {
};
name = Oslash;
unicodes = (
);
width = 1597;
};
};
};
},
{
glyphname = OE;
lastChange = "2016-08-02 16:24:47 +0000";
layers = (
{
anchors = (
{
name = bottom;
position = "{1000, 0}";
},
{
name = top;
position = "{1000, 1419}";
}
);
layerId = "9E718F8A-2CEA-4931-B05D-987794BD97DA";
paths = (
{
closed = 1;
nodes = (
"1222 111 LINE",
"1222 676 LINE",
"1745 676 LINE SMOOTH",
"1789 676 OFFCURVE",
"1810 704 OFFCURVE",
"1810 732 CURVE SMOOTH",
"1810 762 OFFCURVE",
"1789 790 OFFCURVE",
"1745 790 CURVE SMOOTH",
"1222 790 LINE",
"1222 1307 LINE",
"1773 1307 LINE SMOOTH",
"1813 1307 OFFCURVE",
"1835 1335 OFFCURVE",
"1835 1363 CURVE SMOOTH",
"1835 1394 OFFCURVE",
"1813 1419 OFFCURVE",
"1773 1419 CURVE SMOOTH",
"1097 1419 LINE SMOOTH",
"1097 1419 OFFCURVE",
"853 1449 OFFCURVE",
"718 1449 CURVE SMOOTH",
"351 1449 OFFCURVE",
"127 1151 OFFCURVE",
"127 708 CURVE SMOOTH",
"127 267 OFFCURVE",
"351 -32 OFFCURVE",
"718 -32 CURVE SMOOTH",
"851 -32 OFFCURVE",
"1098 -1 OFFCURVE",
"1098 -1 CURVE",
"1802 -1 LINE SMOOTH",
"1841 -1 OFFCURVE",
"1862 25 OFFCURVE",
"1862 54 CURVE SMOOTH",
"1862 84 OFFCURVE",
"1841 111 OFFCURVE",
"1802 111 CURVE SMOOTH"
);
},
{
closed = 1;
nodes = (
"1097 111 LINE",
"1097 111 OFFCURVE",
"951 85 OFFCURVE",
"719 82 CURVE SMOOTH",
"398 82 OFFCURVE",
"255 397 OFFCURVE",
"255 709 CURVE SMOOTH",
"255 1020 OFFCURVE",
"397 1335 OFFCURVE",
"718 1335 CURVE SMOOTH",
"962 1335 OFFCURVE",
"1095 1312 OFFCURVE",
"1097 1313 CURVE"
);
}
);
width = 1999;
},
{
anchors = (
{
name = bottom;
position = "{999, 0}";
},
{
name = top;
position = "{999, 1424}";
}
);
layerId = "5FCC6278-3A1D-4B2B-A133-84AE53360430";
paths = (
{
closed = 1;
nodes = (
"1241 133 LINE",
"1241 666 LINE",
"1742 666 LINE SMOOTH",
"1790 666 OFFCURVE",
"1815 699 OFFCURVE",
"1815 733 CURVE SMOOTH",
"1815 767 OFFCURVE",
"1790 801 OFFCURVE",
"1742 801 CURVE SMOOTH",
"1241 801 LINE",
"1241 1290 LINE",
"1772 1290 LINE SMOOTH",
"1818 1290 OFFCURVE",
"1843 1323 OFFCURVE",
"1843 1357 CURVE SMOOTH",
"1843 1392 OFFCURVE",
"1818 1424 OFFCURVE",
"1772 1424 CURVE SMOOTH",
"1098 1424 LINE SMOOTH",
"1092 1424 OFFCURVE",
"859 1452 OFFCURVE",
"725 1452 CURVE SMOOTH",
"349 1452 OFFCURVE",
"121 1158 OFFCURVE",
"121 711 CURVE SMOOTH",
"121 266 OFFCURVE",
"350 -30 OFFCURVE",
"720 -30 CURVE SMOOTH",
"850 -30 OFFCURVE",
"1089 -1 OFFCURVE",
"1093 -1 CURVE SMOOTH",
"1799 -1 LINE SMOOTH",
"1844 -1 OFFCURVE",
"1869 31 OFFCURVE",
"1869 65 CURVE SMOOTH",
"1869 100 OFFCURVE",
"1844 133 OFFCURVE",
"1799 133 CURVE SMOOTH"
);
},
{
closed = 1;
nodes = (
"1082 131 LINE",
"1081 130 OFFCURVE",
"942 106 OFFCURVE",
"724 103 CURVE SMOOTH",
"420 103 OFFCURVE",
"284 400 OFFCURVE",
"284 712 CURVE SMOOTH",
"284 1023 OFFCURVE",
"421 1319 OFFCURVE",
"724 1319 CURVE SMOOTH",
"956 1319 OFFCURVE",
"1080 1296 OFFCURVE",
"1082 1297 CURVE"
);
}
);
width = 1998;
},
{
anchors = (
{
name = bottom;
position = "{999, 0}";
},
{
name = top;
position = "{999, 1429}";
}
);
layerId = "334510DF-EE69-4F45-9EE4-32E3392006F4";
paths = (
{
closed = 1;
nodes = (
"1262 158 LINE",
"1262 655 LINE",
"1737 655 LINE SMOOTH",
"1792 655 OFFCURVE",
"1820 694 OFFCURVE",
"1820 734 CURVE SMOOTH",
"1820 774 OFFCURVE",
"1792 814 OFFCURVE",
"1737 814 CURVE SMOOTH",
"1262 814 LINE",
"1262 1270 LINE",
"1771 1270 LINE SMOOTH",
"1825 1270 OFFCURVE",
"1853 1310 OFFCURVE",
"1853 1350 CURVE SMOOTH",
"1853 1390 OFFCURVE",
"1825 1429 OFFCURVE",
"1771 1429 CURVE SMOOTH",
"1100 1429 LINE SMOOTH",
"1085 1429 OFFCURVE",
"865 1455 OFFCURVE",
"733 1455 CURVE SMOOTH",
"347 1455 OFFCURVE",
"114 1165 OFFCURVE",
"114 714 CURVE SMOOTH",
"114 264 OFFCURVE",
"348 -28 OFFCURVE",
"722 -28 CURVE SMOOTH",
"848 -28 OFFCURVE",
"1073 -1 OFFCURVE",
"1086 -1 CURVE SMOOTH",
"1796 -1 LINE SMOOTH",
"1849 -1 OFFCURVE",
"1876 38 OFFCURVE",
"1876 78 CURVE SMOOTH",
"1876 118 OFFCURVE",
"1849 158 OFFCURVE",
"1796 158 CURVE SMOOTH"
);
},
{
closed = 1;
nodes = (
"1065 154 LINE",
"1061 151 OFFCURVE",
"932 129 OFFCURVE",
"731 126 CURVE SMOOTH",
"444 126 OFFCURVE",
"317 405 OFFCURVE",
"317 715 CURVE SMOOTH",
"317 1026 OFFCURVE",
"447 1301 OFFCURVE",
"731 1301 CURVE SMOOTH",
"944 1301 OFFCURVE",
"1059 1280 OFFCURVE",
"1065 1279 CURVE"
);
}
);
width = 1998;
},
{
anchors = (
{
name = bottom;
position = "{999, 0}";
},
{
name = top;
position = "{999, 1433}";
}
);
layerId = "F812A762-7E77-4DA4-9A10-AD66CDB59C76";
paths = (
{
closed = 1;
nodes = (
"1274 173 LINE",
"1274 649 LINE",
"1735 649 LINE SMOOTH",
"1793 649 OFFCURVE",
"1824 691 OFFCURVE",
"1824 734 CURVE SMOOTH",
"1824 778 OFFCURVE",
"1793 821 OFFCURVE",
"1735 821 CURVE SMOOTH",
"1274 821 LINE",
"1274 1258 LINE",
"1771 1258 LINE SMOOTH",
"1829 1258 OFFCURVE",
"1858 1302 OFFCURVE",
"1858 1346 CURVE SMOOTH",
"1858 1388 OFFCURVE",
"1829 1432 OFFCURVE",
"1771 1432 CURVE SMOOTH",
"1101 1432 LINE SMOOTH",
"1080 1432 OFFCURVE",
"868 1456 OFFCURVE",
"738 1456 CURVE SMOOTH",
"345 1456 OFFCURVE",
"110 1170 OFFCURVE",
"110 715 CURVE SMOOTH",
"110 263 OFFCURVE",
"347 -26 OFFCURVE",
"724 -26 CURVE SMOOTH",
"847 -26 OFFCURVE",
"1063 -1 OFFCURVE",
"1082 -1 CURVE SMOOTH",
"1794 -1 LINE SMOOTH",
"1851 -1 OFFCURVE",
"1881 42 OFFCURVE",
"1881 85 CURVE SMOOTH",
"1881 129 OFFCURVE",
"1851 173 OFFCURVE",
"1794 173 CURVE SMOOTH"
);
},
{
closed = 1;
nodes = (
"1054 167 LINE",
"1048 163 OFFCURVE",
"926 143 OFFCURVE",
"735 140 CURVE SMOOTH",
"458 140 OFFCURVE",
"336 407 OFFCURVE",
"336 717 CURVE SMOOTH",
"336 1027 OFFCURVE",
"462 1290 OFFCURVE",
"735 1290 CURVE SMOOTH",
"937 1290 OFFCURVE",
"1047 1270 OFFCURVE",
"1054 1268 CURVE"
);
}
);
width = 1997;
},
{
anchors = (
{
name = bottom;
position = "{999, 0}";
},
{
name = top;
position = "{999, 1436}";
}
);
layerId = "04B13600-F055-45EE-B953-7859ECDADD08";
paths = (
{
closed = 1;
nodes = (
"1285 185 LINE",
"1285 643 LINE",
"1733 643 LINE SMOOTH",
"1794 643 OFFCURVE",
"1827 688 OFFCURVE",
"1827 735 CURVE SMOOTH",
"1827 781 OFFCURVE",
"1794 828 OFFCURVE",
"1733 828 CURVE SMOOTH",
"1285 828 LINE",
"1285 1248 LINE",
"1770 1248 LINE SMOOTH",
"1832 1248 OFFCURVE",
"1863 1295 OFFCURVE",
"1863 1342 CURVE SMOOTH",
"1863 1387 OFFCURVE",
"1832 1435 OFFCURVE",
"1770 1435 CURVE SMOOTH",
"1101 1435 LINE SMOOTH",
"1076 1435 OFFCURVE",
"871 1458 OFFCURVE",
"742 1458 CURVE SMOOTH",
"344 1458 OFFCURVE",
"106 1174 OFFCURVE",
"106 717 CURVE SMOOTH",
"106 262 OFFCURVE",
"346 -25 OFFCURVE",
"725 -25 CURVE SMOOTH",
"846 -25 OFFCURVE",
"1054 -1 OFFCURVE",
"1079 -1 CURVE SMOOTH",
"1792 -1 LINE SMOOTH",
"1853 -1 OFFCURVE",
"1885 46 OFFCURVE",
"1885 92 CURVE SMOOTH",
"1885 138 OFFCURVE",
"1853 185 OFFCURVE",
"1792 185 CURVE SMOOTH"
);
},
{
closed = 1;
nodes = (
"1045 179 LINE",
"1038 174 OFFCURVE",
"921 155 OFFCURVE",
"738 152 CURVE SMOOTH",
"471 152 OFFCURVE",
"353 409 OFFCURVE",
"353 719 CURVE SMOOTH",
"353 1029 OFFCURVE",
"476 1281 OFFCURVE",
"739 1281 CURVE SMOOTH",
"931 1281 OFFCURVE",
"1036 1262 OFFCURVE",
"1045 1259 CURVE"
);
}
);
width = 1997;
},
{
anchors = (
{
name = bottom;
position = "{999, 0}";
},
{
name = top;
position = "{999, 1442}";
}
);
layerId = "A4C065E6-C319-4A8F-B4BD-A6F28D5DCD95";
paths = (
{
closed = 1;
nodes = (
"1305 214 LINE",
"1305 630 LINE",
"1708 630 LINE SMOOTH",
"1788 630 OFFCURVE",
"1832 670 OFFCURVE",
"1832 736 CURVE SMOOTH",
"1832 805 OFFCURVE",
"1784 844 OFFCURVE",
"1714 844 CURVE SMOOTH",
"1305 844 LINE",
"1305 1227 LINE",
"1749 1227 LINE SMOOTH",
"1830 1227 OFFCURVE",
"1873 1268 OFFCURVE",
"1873 1335 CURVE SMOOTH",
"1873 1398 OFFCURVE",
"1830 1442 OFFCURVE",
"1759 1442 CURVE SMOOTH",
"1103 1442 LINE SMOOTH",
"1069 1442 OFFCURVE",
"876 1462 OFFCURVE",
"750 1462 CURVE SMOOTH",
"341 1462 OFFCURVE",
"100 1181 OFFCURVE",
"100 720 CURVE SMOOTH",
"100 259 OFFCURVE",
"345 -22 OFFCURVE",
"727 -22 CURVE SMOOTH",
"828 -22 OFFCURVE",
"1044 -1 OFFCURVE",
"1073 -1 CURVE SMOOTH",
"1779 -1 LINE SMOOTH",
"1852 -1 OFFCURVE",
"1892 45 OFFCURVE",
"1892 106 CURVE SMOOTH",
"1892 175 OFFCURVE",
"1842 214 OFFCURVE",
"1768 214 CURVE SMOOTH"
);
},
{
closed = 1;
nodes = (
"1030 206 LINE",
"1020 200 OFFCURVE",
"911 182 OFFCURVE",
"745 179 CURVE SMOOTH",
"491 179 OFFCURVE",
"384 416 OFFCURVE",
"384 723 CURVE SMOOTH",
"384 1032 OFFCURVE",
"500 1260 OFFCURVE",
"746 1260 CURVE SMOOTH",
"920 1260 OFFCURVE",
"1017 1243 OFFCURVE",
"1030 1238 CURVE"
);
}
);
width = 1997;
},
{
anchors = (
{
name = bottom;
position = "{999, 0}";
},
{
name = top;
position = "{999, 1446}";
}
);
layerId = "8F6BE840-9356-4940-A488-AC64157678BA";
paths = (
{
closed = 1;
nodes = (
"1324 233 LINE",
"1324 622 LINE",
"1672 622 LINE SMOOTH",
"1776 622 OFFCURVE",
"1838 655 OFFCURVE",
"1838 737 CURVE SMOOTH",
"1838 825 OFFCURVE",
"1767 854 OFFCURVE",
"1686 854 CURVE SMOOTH",
"1324 854 LINE",
"1324 1213 LINE",
"1716 1213 LINE SMOOTH",
"1821 1213 OFFCURVE",
"1882 1246 OFFCURVE",
"1882 1330 CURVE SMOOTH",
"1882 1410 OFFCURVE",
"1822 1446 OFFCURVE",
"1742 1446 CURVE SMOOTH",
"1105 1446 LINE SMOOTH",
"1064 1446 OFFCURVE",
"880 1465 OFFCURVE",
"757 1465 CURVE SMOOTH",
"337 1465 OFFCURVE",
"94 1184 OFFCURVE",
"94 722 CURVE SMOOTH",
"94 257 OFFCURVE",
"345 -20 OFFCURVE",
"729 -20 CURVE SMOOTH",
"801 -20 OFFCURVE",
"1039 -1 OFFCURVE",
"1068 0 CURVE SMOOTH",
"1761 0 LINE SMOOTH",
"1848 0 OFFCURVE",
"1899 40 OFFCURVE",
"1899 116 CURVE SMOOTH",
"1899 205 OFFCURVE",
"1820 233 OFFCURVE",
"1732 233 CURVE SMOOTH"
);
},
{
closed = 1;
nodes = (
"1016 223 LINE",
"1006 216 OFFCURVE",
"901 198 OFFCURVE",
"751 197 CURVE SMOOTH",
"508 197 OFFCURVE",
"410 421 OFFCURVE",
"410 727 CURVE SMOOTH",
"410 1035 OFFCURVE",
"521 1248 OFFCURVE",
"753 1248 CURVE SMOOTH",
"911 1248 OFFCURVE",
"1002 1232 OFFCURVE",
"1016 1226 CURVE"
);
}
);
width = 1998;
},
{
anchors = (
{
name = bottom;
position = "{1000, 0}";
},
{
name = top;
position = "{1000, 1456}";
}
);
layerId = "E1B555A7-F4E1-459C-9C1A-AE952106EEF9";
paths = (
{
closed = 1;
nodes = (
"1350 269 LINE",
"1350 607 LINE",
"1620 607 LINE SMOOTH",
"1759 607 OFFCURVE",
"1846 624 OFFCURVE",
"1846 740 CURVE SMOOTH",
"1846 867 OFFCURVE",
"1742 875 OFFCURVE",
"1647 875 CURVE SMOOTH",
"1350 875 LINE",
"1350 1186 LINE",
"1668 1186 LINE SMOOTH",
"1810 1186 OFFCURVE",
"1894 1204 OFFCURVE",
"1894 1321 CURVE SMOOTH",
"1894 1434 OFFCURVE",
"1811 1455 OFFCURVE",
"1717 1455 CURVE SMOOTH",
"1107 1455 LINE SMOOTH",
"1055 1455 OFFCURVE",
"885 1471 OFFCURVE",
"768 1471 CURVE SMOOTH",
"331 1471 OFFCURVE",
"86 1191 OFFCURVE",
"86 726 CURVE SMOOTH",
"86 254 OFFCURVE",
"345 -17 OFFCURVE",
"732 -17 CURVE SMOOTH",
"762 -17 OFFCURVE",
"1032 -1 OFFCURVE",
"1061 0 CURVE SMOOTH",
"1734 0 LINE SMOOTH",
"1841 0 OFFCURVE",
"1910 31 OFFCURVE",
"1910 134 CURVE SMOOTH",
"1910 264 OFFCURVE",
"1789 269 OFFCURVE",
"1679 269 CURVE SMOOTH"
);
},
{
closed = 1;
nodes = (
"997 257 LINE",
"986 249 OFFCURVE",
"887 231 OFFCURVE",
"761 232 CURVE SMOOTH",
"532 232 OFFCURVE",
"448 430 OFFCURVE",
"448 733 CURVE SMOOTH",
"448 1040 OFFCURVE",
"551 1223 OFFCURVE",
"763 1223 CURVE SMOOTH",
"899 1223 OFFCURVE",
"980 1208 OFFCURVE",
"997 1201 CURVE"
);
}
);
width = 1999;
}
);
unicode = 0152;
},
{
glyphname = P;
lastChange = "2016-08-02 17:46:46 +0000";
layers = (
{
anchors = (
{
name = bottom;
position = "{575, 0}";
},
{
name = top;
position = "{626, 1438}";
}
);
layerId = "9E718F8A-2CEA-4931-B05D-987794BD97DA";
paths = (
{
closed = 1;
nodes = (
"306 656 LINE",
"636 656 LINE SMOOTH",
"904 656 OFFCURVE",
"1131 739 OFFCURVE",
"1131 1035 CURVE SMOOTH",
"1131 1325 OFFCURVE",
"948 1419 OFFCURVE",
"646 1419 CURVE SMOOTH",
"244 1419 LINE SMOOTH",
"207 1419 OFFCURVE",
"181 1392 OFFCURVE",
"181 1359 CURVE SMOOTH",
"181 58 LINE SMOOTH",
"181 20 OFFCURVE",
"212 1 OFFCURVE",
"244 1 CURVE SMOOTH",
"273 1 OFFCURVE",
"306 18 OFFCURVE",
"306 58 CURVE SMOOTH"
);
},
{
closed = 1;
nodes = (
"306 753 LINE",
"306 1320 LINE",
"662 1320 LINE SMOOTH",
"925 1320 OFFCURVE",
"1010 1218 OFFCURVE",
"1010 1035 CURVE SMOOTH",
"1010 847 OFFCURVE",
"902 753 OFFCURVE",
"643 753 CURVE SMOOTH"
);
}
);
width = 1150;
},
{
anchors = (
{
name = bottom;
position = "{595, 0}";
},
{
name = top;
position = "{595, 1424}";
}
);
layerId = "5FCC6278-3A1D-4B2B-A133-84AE53360430";
paths = (
{
closed = 1;
nodes = (
"341 636 LINE",
"659 636 LINE SMOOTH",
"945 636 OFFCURVE",
"1167 727 OFFCURVE",
"1167 1029 CURVE SMOOTH",
"1167 1324 OFFCURVE",
"980 1424 OFFCURVE",
"672 1424 CURVE SMOOTH",
"261 1424 LINE SMOOTH",
"214 1424 OFFCURVE",
"179 1389 OFFCURVE",
"179 1345 CURVE SMOOTH",
"179 76 LINE SMOOTH",
"179 25 OFFCURVE",
"219 0 OFFCURVE",
"260 0 CURVE SMOOTH",
"300 0 OFFCURVE",
"341 24 OFFCURVE",
"341 76 CURVE SMOOTH"
);
},
{
closed = 1;
nodes = (
"341 761 LINE",
"341 1295 LINE",
"678 1295 LINE SMOOTH",
"917 1295 OFFCURVE",
"1009 1212 OFFCURVE",
"1009 1029 CURVE SMOOTH",
"1009 841 OFFCURVE",
"901 761 OFFCURVE",
"662 761 CURVE SMOOTH"
);
}
);
width = 1190;
},
{
anchors = (
{
name = bottom;
position = "{617, 0}";
},
{
name = top;
position = "{648, 1438}";
}
);
layerId = "334510DF-EE69-4F45-9EE4-32E3392006F4";
paths = (
{
closed = 1;
nodes = (
"379 615 LINE",
"684 615 LINE SMOOTH",
"989 615 OFFCURVE",
"1206 714 OFFCURVE",
"1206 1022 CURVE SMOOTH",
"1206 1323 OFFCURVE",
"1014 1429 OFFCURVE",
"702 1429 CURVE SMOOTH",
"279 1429 LINE SMOOTH",
"221 1429 OFFCURVE",
"177 1384 OFFCURVE",
"177 1329 CURVE SMOOTH",
"177 96 LINE SMOOTH",
"177 32 OFFCURVE",
"227 0 OFFCURVE",
"278 0 CURVE SMOOTH",
"329 0 OFFCURVE",
"379 31 OFFCURVE",
"379 96 CURVE SMOOTH"
);
},
{
closed = 1;
nodes = (
"379 769 LINE",
"379 1269 LINE",
"694 1269 LINE SMOOTH",
"909 1269 OFFCURVE",
"1007 1206 OFFCURVE",
"1007 1022 CURVE SMOOTH",
"1007 834 OFFCURVE",
"900 769 OFFCURVE",
"683 769 CURVE SMOOTH"
);
}
);
width = 1234;
},
{
anchors = (
{
name = bottom;
position = "{630, 0}";
},
{
name = top;
position = "{655, 1438}";
}
);
layerId = "F812A762-7E77-4DA4-9A10-AD66CDB59C76";
paths = (
{
closed = 1;
nodes = (
"402 602 LINE",
"700 602 LINE SMOOTH",
"1016 602 OFFCURVE",
"1230 706 OFFCURVE",
"1230 1018 CURVE SMOOTH",
"1230 1323 OFFCURVE",
"1035 1433 OFFCURVE",
"720 1433 CURVE SMOOTH",
"290 1433 LINE SMOOTH",
"226 1433 OFFCURVE",
"175 1382 OFFCURVE",
"175 1320 CURVE SMOOTH",
"175 109 LINE SMOOTH",
"175 36 OFFCURVE",
"232 -1 OFFCURVE",
"289 -1 CURVE SMOOTH",
"346 -1 OFFCURVE",
"402 35 OFFCURVE",
"402 109 CURVE SMOOTH"
);
},
{
closed = 1;
nodes = (
"402 775 LINE",
"402 1253 LINE",
"704 1253 LINE SMOOTH",
"904 1253 OFFCURVE",
"1006 1203 OFFCURVE",
"1006 1018 CURVE SMOOTH",
"1006 830 OFFCURVE",
"900 775 OFFCURVE",
"695 775 CURVE SMOOTH"
);
}
);
width = 1260;
},
{
anchors = (
{
name = bottom;
position = "{642, 0}";
},
{
name = top;
position = "{661, 1438}";
}
);
layerId = "04B13600-F055-45EE-B953-7859ECDADD08";
paths = (
{
closed = 1;
nodes = (
"422 590 LINE",
"713 590 LINE SMOOTH",
"1040 590 OFFCURVE",
"1250 700 OFFCURVE",
"1250 1014 CURVE SMOOTH",
"1250 1322 OFFCURVE",
"1053 1436 OFFCURVE",
"735 1436 CURVE SMOOTH",
"300 1436 LINE SMOOTH",
"230 1436 OFFCURVE",
"174 1380 OFFCURVE",
"174 1312 CURVE SMOOTH",
"174 119 LINE SMOOTH",
"174 39 OFFCURVE",
"236 -1 OFFCURVE",
"298 -1 CURVE SMOOTH",
"361 -1 OFFCURVE",
"422 39 OFFCURVE",
"422 119 CURVE SMOOTH"
);
},
{
closed = 1;
nodes = (
"422 779 LINE",
"422 1239 LINE",
"713 1239 LINE SMOOTH",
"900 1239 OFFCURVE",
"1006 1200 OFFCURVE",
"1006 1014 CURVE SMOOTH",
"1006 826 OFFCURVE",
"899 779 OFFCURVE",
"706 779 CURVE SMOOTH"
);
}
);
width = 1283;
},
{
anchors = (
{
name = bottom;
position = "{659, 0}";
},
{
name = top;
position = "{680, 1438}";
}
);
layerId = "A4C065E6-C319-4A8F-B4BD-A6F28D5DCD95";
paths = (
{
closed = 1;
nodes = (
"456 573 LINE",
"735 573 LINE SMOOTH",
"1074 573 OFFCURVE",
"1282 696 OFFCURVE",
"1282 1009 CURVE SMOOTH",
"1282 1334 OFFCURVE",
"1072 1443 OFFCURVE",
"754 1443 CURVE SMOOTH",
"324 1443 LINE SMOOTH",
"221 1443 OFFCURVE",
"168 1364 OFFCURVE",
"168 1267 CURVE SMOOTH",
"168 148 LINE SMOOTH",
"168 55 OFFCURVE",
"238 -1 OFFCURVE",
"312 -1 CURVE SMOOTH",
"387 -1 OFFCURVE",
"456 55 OFFCURVE",
"456 148 CURVE SMOOTH"
);
},
{
closed = 1;
nodes = (
"456 781 LINE",
"456 1224 LINE",
"723 1224 LINE SMOOTH",
"895 1224 OFFCURVE",
"999 1193 OFFCURVE",
"999 1009 CURVE SMOOTH",
"999 822 OFFCURVE",
"897 782 OFFCURVE",
"716 781 CURVE SMOOTH"
);
}
);
width = 1318;
},
{
anchors = (
{
name = bottom;
position = "{673, 0}";
},
{
name = top;
position = "{702, 1438}";
}
);
layerId = "8F6BE840-9356-4940-A488-AC64157678BA";
paths = (
{
closed = 1;
nodes = (
"482 565 LINE",
"753 565 LINE SMOOTH",
"1097 565 OFFCURVE",
"1305 697 OFFCURVE",
"1305 1007 CURVE SMOOTH",
"1305 1345 OFFCURVE",
"1078 1447 OFFCURVE",
"765 1447 CURVE SMOOTH",
"351 1447 LINE SMOOTH",
"203 1447 OFFCURVE",
"161 1350 OFFCURVE",
"161 1229 CURVE SMOOTH",
"161 168 LINE SMOOTH",
"161 68 OFFCURVE",
"235 0 OFFCURVE",
"321 0 CURVE SMOOTH",
"407 0 OFFCURVE",
"482 68 OFFCURVE",
"482 168 CURVE SMOOTH"
);
},
{
closed = 1;
nodes = (
"482 779 LINE",
"482 1220 LINE",
"728 1220 LINE SMOOTH",
"894 1220 OFFCURVE",
"990 1188 OFFCURVE",
"990 1007 CURVE SMOOTH",
"990 822 OFFCURVE",
"894 782 OFFCURVE",
"717 779 CURVE SMOOTH"
);
}
);
width = 1345;
},
{
anchors = (
{
name = bottom;
position = "{691, 0}";
},
{
name = top;
position = "{735, 1438}";
}
);
layerId = "E1B555A7-F4E1-459C-9C1A-AE952106EEF9";
paths = (
{
closed = 1;
nodes = (
"520 549 LINE",
"779 549 LINE SMOOTH",
"1132 549 OFFCURVE",
"1340 700 OFFCURVE",
"1340 1004 CURVE SMOOTH",
"1340 1369 OFFCURVE",
"1087 1456 OFFCURVE",
"779 1456 CURVE SMOOTH",
"388 1456 LINE SMOOTH",
"176 1456 OFFCURVE",
"150 1322 OFFCURVE",
"150 1153 CURVE SMOOTH",
"150 208 LINE SMOOTH",
"150 95 OFFCURVE",
"232 0 OFFCURVE",
"334 0 CURVE SMOOTH",
"436 0 OFFCURVE",
"520 95 OFFCURVE",
"520 208 CURVE SMOOTH"
);
},
{
closed = 1;
nodes = (
"520 776 LINE",
"520 1214 LINE",
"736 1214 LINE SMOOTH",
"892 1214 OFFCURVE",
"978 1179 OFFCURVE",
"978 1004 CURVE SMOOTH",
"978 821 OFFCURVE",
"889 781 OFFCURVE",
"719 776 CURVE SMOOTH"
);
}
);
width = 1382;
}
);
unicode = 0050;
userData = {
anchors = (
);
b = {
};
com.typemytype.robofont.layerData = {
b = {
anchors = (
);
components = (
);
contours = (
{
points = (
{
segmentType = curve;
smooth = 1;
x = 266;
y = 0;
},
{
segmentType = line;
smooth = 1;
x = 1035;
y = 0;
},
{
smooth = 0;
x = 1084;
y = 0;
},
{
smooth = 0;
x = 1108;
y = 34;
},
{
segmentType = curve;
smooth = 1;
x = 1108;
y = 71;
},
{
smooth = 0;
x = 1108;
y = 107;
},
{
smooth = 0;
x = 1084;
y = 141;
},
{
segmentType = curve;
smooth = 1;
x = 1035;
y = 141;
},
{
segmentType = line;
smooth = 0;
x = 356;
y = 141;
},
{
segmentType = line;
smooth = 0;
x = 356;
y = 665;
},
{
segmentType = line;
smooth = 1;
x = 975;
y = 665;
},
{
smooth = 0;
x = 1024;
y = 665;
},
{
smooth = 0;
x = 1049;
y = 698;
},
{
segmentType = curve;
smooth = 1;
x = 1049;
y = 734;
},
{
smooth = 0;
x = 1049;
y = 770;
},
{
smooth = 0;
x = 1026;
y = 803;
},
{
segmentType = curve;
smooth = 1;
x = 975;
y = 803;
},
{
segmentType = line;
smooth = 0;
x = 356;
y = 803;
},
{
segmentType = line;
smooth = 0;
x = 356;
y = 1285;
},
{
segmentType = line;
smooth = 1;
x = 1007;
y = 1285;
},
{
smooth = 0;
x = 1056;
y = 1285;
},
{
smooth = 0;
x = 1080;
y = 1319;
},
{
segmentType = curve;
smooth = 1;
x = 1080;
y = 1356;
},
{
smooth = 0;
x = 1080;
y = 1392;
},
{
smooth = 0;
x = 1056;
y = 1426;
},
{
segmentType = curve;
smooth = 1;
x = 1007;
y = 1426;
},
{
segmentType = line;
smooth = 1;
x = 261;
y = 1426;
},
{
smooth = 0;
x = 213;
y = 1426;
},
{
smooth = 0;
x = 178;
y = 1383;
},
{
segmentType = curve;
smooth = 1;
x = 178;
y = 1340;
},
{
segmentType = line;
smooth = 1;
x = 178;
y = 86;
},
{
smooth = 0;
x = 178;
y = 41;
},
{
smooth = 0;
x = 222;
y = 0;
}
);
}
);
lib = {
};
name = P;
unicodes = (
);
width = 1201;
};
};
components = (
);
contours = (
);
lib = {
};
name = P;
unicodes = (
);
width = 1319;
};
},
